<svg width="316" height="68" viewBox="0 0 316 68" fill="none" xmlns="http://www.w3.org/2000/svg">
<path d="M101 42.85C99.0857 43.8302 96.9705 44.3539 94.82 44.38C88.02 44.38 83.42 40.48 83.42 34.06C83.3736 32.6081 83.6615 31.165 84.2614 29.842C84.8613 28.5191 85.7572 27.3517 86.88 26.43C89.2142 24.5968 92.1128 23.6318 95.08 23.7C97.3116 23.7394 99.5227 24.1344 101.63 24.87C101.299 26.2803 101.118 27.7216 101.09 29.17H100.2V27.17C100.2 26.38 99.07 25.89 97.76 25.41C96.7352 25.0842 95.6653 24.9222 94.59 24.93C89.25 24.93 86.45 28.81 86.45 33.63C86.45 39.25 90.16 42.88 95.78 42.88C97.8205 42.8699 99.8156 42.2766 101.53 41.17L101.78 41.46L101 42.85Z" fill="#C02F33"/>
<path d="M102.81 37.74C102.81 33.49 105.47 30.51 110.04 30.51C110.893 30.5005 111.738 30.6622 112.527 30.9856C113.316 31.309 114.032 31.7875 114.633 32.3928C115.233 32.998 115.706 33.7176 116.024 34.509C116.341 35.3004 116.496 36.1475 116.48 37C116.518 37.9846 116.352 38.9664 115.992 39.8835C115.631 40.8006 115.085 41.6331 114.387 42.3284C113.689 43.0237 112.854 43.5668 111.935 43.9233C111.017 44.2799 110.034 44.4422 109.05 44.4C105.47 44.51 102.81 41.67 102.81 37.76V37.74ZM105.44 36.54C105.44 39.54 106.52 43.45 110.15 43.45C112.73 43.45 113.84 40.88 113.84 38.24C113.84 34.58 112.11 31.47 109.39 31.47C106.39 31.47 105.39 33.9 105.39 36.54" fill="#C02F33"/>
<path d="M119.34 34.54C119.394 33.9425 119.326 33.3402 119.14 32.77C118.97 32.55 118.69 32.46 118.14 32.46H117V31.67C118.525 31.4986 120.017 31.1079 121.43 30.51L121.68 30.62V33.49H121.74L123.27 31.67C123.56 31.317 123.923 31.0307 124.334 30.8305C124.744 30.6303 125.193 30.521 125.65 30.51C126.106 30.5019 126.556 30.6085 126.96 30.82L126.7 34.22H126.1C125.947 33.834 125.681 33.5034 125.336 33.2714C124.992 33.0394 124.585 32.9169 124.17 32.92C123.448 33.029 122.794 33.4071 122.34 33.9785C121.885 34.5499 121.664 35.2721 121.72 36V40.88C121.69 41.4305 121.737 41.9826 121.86 42.52C121.97 42.77 122.4 42.89 123.05 42.92L124.53 43V43.85C123.05 43.85 121.92 43.77 120.53 43.77C119.14 43.77 118.01 43.77 117 43.85V43L118.3 42.92C118.78 42.92 119.09 42.77 119.21 42.52C119.333 41.9826 119.38 41.4305 119.35 40.88L119.34 34.54Z" fill="#C02F33"/>
<path d="M132.61 40.92C132.58 41.4705 132.627 42.0226 132.75 42.56C132.87 42.81 133.17 42.93 133.66 42.96L134.93 43.04V43.89C133.93 43.89 132.81 43.81 131.42 43.81C130.03 43.81 128.9 43.81 127.9 43.89V43H129.18C129.66 43 129.97 42.85 130.08 42.6C130.213 42.0641 130.264 41.5111 130.23 40.96V34.54C130.274 33.9427 130.206 33.3425 130.03 32.77C129.86 32.55 129.57 32.46 128.98 32.46H127.98V31.67C129.502 31.4987 130.99 31.108 132.4 30.51L132.66 30.62V33L134.76 31.19C135.074 30.9192 135.44 30.7164 135.836 30.5942C136.232 30.472 136.648 30.4331 137.06 30.48C140.38 30.48 141.74 32.32 141.74 35.41V40.89C141.71 41.4405 141.757 41.9926 141.88 42.53C141.99 42.78 142.31 42.9 142.79 42.93L144 43V43.85C143.29 43.85 142.47 43.77 141.68 43.77C140.89 43.77 140.06 43.77 139.41 43.85V35.85C139.41 33.5 138.07 32.25 136.14 32.25C134.42 32.25 132.66 33.75 132.66 34.92L132.61 40.92Z" fill="#C02F33"/>
<path d="M156.51 35.7C156.52 36.0976 156.5 36.4954 156.45 36.89C154.753 37.159 153.038 37.2894 151.32 37.28H147.18C147.18 40.61 148.83 42.88 152.31 42.88C153.586 42.7742 154.807 42.3096 155.83 41.54L156.2 41.82L155.63 42.82C154.309 43.7831 152.733 44.336 151.1 44.41C146.82 44.41 144.55 41.68 144.55 37.85C144.55 35.1 145.28 33.46 146.55 32.44C147.087 31.9938 147.675 31.6112 148.3 31.3C149.163 30.8438 150.115 30.5843 151.09 30.54C151.794 30.4857 152.502 30.5812 153.166 30.8203C153.831 31.0593 154.437 31.4364 154.946 31.9267C155.454 32.417 155.853 33.0095 156.115 33.665C156.378 34.3206 156.499 35.0243 156.47 35.73L156.51 35.7ZM147.2 36.18C149.444 36.3883 151.701 36.4184 153.95 36.27C153.95 33.63 152.95 31.48 150.95 31.48C148.76 31.48 147.06 33.09 147.2 36.18Z" fill="#C02F33"/>
<path d="M159.34 26.23C159.34 25.58 159.26 25.06 158.64 25.06H157.05V24.27C158.559 24.0911 160.042 23.7387 161.47 23.22L161.73 23.45V40.92C161.695 41.4706 161.742 42.0234 161.87 42.56C161.99 42.81 162.29 42.93 162.78 42.96L164.08 43.04V43.89C163.08 43.89 161.92 43.81 160.54 43.81C159.16 43.81 158.01 43.81 157 43.89V43H158.3C158.78 43 159.09 42.85 159.21 42.6C159.328 42.0619 159.372 41.51 159.34 40.96V26.23Z" fill="#C02F33"/>
<path d="M167.74 26.23C167.74 25.58 167.65 25.06 167.03 25.06H165.44V24.27C166.949 24.0933 168.433 23.7409 169.86 23.22L170.12 23.45V40.92C170.09 41.4705 170.137 42.0226 170.26 42.56C170.37 42.81 170.69 42.93 171.17 42.96L172.48 43.04V43.89C171.48 43.89 170.32 43.81 168.93 43.81C167.54 43.81 166.41 43.81 165.38 43.89V43H166.69C167.17 43 167.48 42.85 167.6 42.6C167.723 42.0626 167.77 41.5105 167.74 40.96V26.23Z" fill="#C02F33"/>
<path d="M184 42.33C184.784 42.504 185.587 42.5813 186.39 42.56C188.71 42.56 192.17 42.48 192.65 42.02C192.964 41.4607 193.168 40.8462 193.25 40.21L193.58 38.79H194.5C194.32 40.35 194.13 42.25 193.9 43.66C192.65 43.66 190.41 43.77 188.32 43.75C185.76 43.75 183.89 43.66 182.13 43.66C181.13 43.66 180.46 43.72 179.72 43.75V43.1L180.6 42.65C180.855 42.4587 181.055 42.2036 181.179 41.9104C181.304 41.6172 181.349 41.2962 181.31 40.98V27.53C181.38 26.8136 181.295 26.0904 181.06 25.41C180.88 25.12 180.55 25.01 179.86 24.98L178.5 24.9V24.05C179.98 24.11 181.31 24.14 182.7 24.14C184.09 24.14 185.34 24.14 186.81 24.05V24.9L185.45 24.98C184.77 24.98 184.45 25.12 184.26 25.41C184.019 26.089 183.93 26.8128 184 27.53V42.33Z" fill="#C02F33"/>
<path d="M204.32 35.5C204.32 33.29 203.24 31.87 200.75 31.87C199.52 31.87 199.13 31.98 198.75 32.46C198.569 32.7607 198.412 33.075 198.28 33.4L197.91 34.28L197.17 34.09V32.24L198.68 31.33C199.662 30.704 200.796 30.3583 201.96 30.33C205.51 30.33 206.58 31.89 206.58 35.97V41.2C206.58 41.6083 206.61 42.0161 206.67 42.42C206.73 42.7 206.99 42.81 207.38 42.85H208.49V43.7C207.78 43.7 207.06 43.61 206.36 43.61C205.66 43.61 204.91 43.67 204.18 43.7L204.32 41.3L200.8 43.72C200.392 43.9137 199.94 43.9965 199.49 43.96C199.03 44.0028 198.565 43.9454 198.129 43.7916C197.693 43.6378 197.296 43.3913 196.964 43.0691C196.632 42.7469 196.374 42.3567 196.208 41.9253C196.041 41.4938 195.971 41.0315 196 40.57C196 37.32 198.86 36.49 201.47 36.01L204.32 35.5ZM204.32 36.4C202.905 36.569 201.516 36.9047 200.18 37.4C199.674 37.6409 199.246 38.0187 198.943 38.4906C198.641 38.9625 198.477 39.5096 198.47 40.07C198.458 40.3695 198.506 40.6683 198.612 40.9487C198.718 41.2291 198.88 41.4852 199.087 41.7017C199.294 41.9183 199.543 42.0909 199.818 42.2091C200.094 42.3274 200.39 42.3889 200.69 42.39C201.707 42.2419 202.656 41.7886 203.41 41.09C203.756 40.8213 204.063 40.5048 204.32 40.15V36.4Z" fill="#C02F33"/>
<path d="M218.94 30.37H219.6C219.84 31.19 220.13 31.93 220.41 32.67L223.67 40.89C224.13 39.73 224.61 38.56 225.04 37.37L226.45 33.37C226.91 32.13 226.6 31.53 225.55 31.48L224.55 31.42V30.63C225.49 30.63 226.4 30.71 227.33 30.71C228.26 30.71 229.17 30.65 230.11 30.63V31.42L229.38 31.48C228.72 31.48 228.27 32.29 227.56 33.94L225.63 38.36C224.87 40.12 224.33 42.02 223.68 43.83H222.4L218.54 34.14C218.06 35.14 217.54 36.26 217.07 37.32L214.29 43.83H213L210.1 34.31C209.37 31.93 208.94 31.53 208.23 31.48L207.44 31.42V30.63C208.58 30.63 209.68 30.71 210.82 30.71C211.96 30.71 213.06 30.65 214.19 30.63V31.42L213.06 31.48C212.06 31.48 211.78 31.84 212.06 32.87L214.44 40.69C214.81 39.92 215.12 39.16 215.44 38.39L218.94 30.37Z" fill="#C02F33"/>
<path d="M247.52 28.75L247.35 27.14C247.27 26.37 247.16 26.09 246.11 25.44C245.156 24.9512 244.091 24.717 243.02 24.76C242.467 24.732 241.914 24.8191 241.397 25.0158C240.879 25.2125 240.408 25.5145 240.013 25.9028C239.618 26.291 239.308 26.757 239.103 27.2712C238.898 27.7854 238.801 28.3366 238.82 28.89C238.82 30.82 239.95 32.01 243.49 32.41C247.49 32.84 250.02 33.82 250.02 37.06C250.02 41.9 245.68 44.23 241.45 44.23C239.78 44.2088 238.133 43.8446 236.61 43.16C236.803 41.7219 236.87 40.2697 236.81 38.82H237.71L237.94 40.72C238.08 41.9 240.32 42.99 242.56 42.99C245.12 42.99 247.64 41.43 247.64 38.62C247.64 35.81 245.54 35.16 242.64 34.82C238.18 34.31 236.43 32.92 236.43 29.98C236.43 25.58 240.28 23.57 243.68 23.57C245.456 23.6156 247.205 24.0204 248.82 24.76C248.548 26.0758 248.414 27.4164 248.42 28.76L247.52 28.75Z" fill="#C02F33"/>
<path d="M261 34.85L260.8 33.12C260.52 32.5 258.85 31.84 257.86 31.84C255.86 31.84 253.71 32.75 253.71 36.47C253.71 40.94 256.26 42.76 259.02 42.76C260.036 42.7273 261.028 42.4457 261.91 41.94L262.19 42.36L261.59 43.27C260.404 43.9857 259.033 44.3337 257.65 44.27C256.788 44.2987 255.93 44.1484 255.13 43.8284C254.329 43.5085 253.604 43.0259 253 42.4112C252.395 41.7965 251.925 41.0631 251.619 40.2573C251.312 39.4515 251.177 38.5909 251.22 37.73C251.185 36.716 251.387 35.7078 251.811 34.7858C252.234 33.8639 252.868 33.0537 253.66 32.42C254.389 31.8676 255.173 31.3918 256 31C256.857 30.6013 257.785 30.3801 258.73 30.35C259.938 30.3334 261.123 30.6819 262.13 31.35C261.86 32.4936 261.726 33.665 261.73 34.84L261 34.85Z" fill="#C02F33"/>
<path d="M265.45 26.09C265.45 25.44 265.36 24.93 264.73 24.93H263.14V24.14C264.652 23.954 266.138 23.5985 267.57 23.08L267.83 23.31V32.9L269.93 31.08C270.244 30.8092 270.61 30.6064 271.006 30.4842C271.401 30.362 271.818 30.3231 272.23 30.37C275.55 30.37 276.91 32.21 276.91 35.3V40.77C276.874 41.3239 276.921 41.8801 277.05 42.42C277.17 42.67 277.47 42.79 277.95 42.81L279.12 42.9V43.75C278.4 43.75 277.59 43.66 276.79 43.66C275.99 43.66 275.18 43.72 274.52 43.75V35.75C274.52 33.4 273.19 32.15 271.26 32.15C269.53 32.15 267.78 33.65 267.78 34.82V40.82C267.747 41.3733 267.791 41.9286 267.91 42.47C268.03 42.72 268.34 42.84 268.83 42.86L270.1 42.95V43.8C269.1 43.8 267.98 43.71 266.58 43.71C265.18 43.71 264.06 43.77 263.07 43.8V42.9L264.34 42.81C264.83 42.81 265.14 42.67 265.26 42.42C265.378 41.8784 265.426 41.3237 265.4 40.77L265.45 26.09Z" fill="#C02F33"/>
<path d="M279.36 37.6C279.36 33.35 282.04 30.37 286.6 30.37C287.448 30.3659 288.287 30.531 289.07 30.8555C289.853 31.1801 290.563 31.6577 291.159 32.2602C291.756 32.8627 292.225 33.5782 292.541 34.3646C292.857 35.151 293.013 35.9926 293 36.84C293.038 37.8241 292.872 38.8055 292.512 39.7221C292.151 40.6387 291.605 41.4706 290.906 42.1651C290.208 42.8597 289.373 43.4018 288.455 43.7572C287.536 44.1126 286.554 44.2736 285.57 44.23C282.01 44.35 279.33 41.52 279.33 37.6H279.36ZM282 36.38C282 39.38 283.08 43.3 286.71 43.3C289.29 43.3 290.39 40.72 290.39 38.08C290.39 34.42 288.66 31.3 285.94 31.3C282.94 31.3 282 33.74 282 36.38Z" fill="#C02F33"/>
<path d="M294.72 37.6C294.72 33.35 297.39 30.37 301.96 30.37C302.81 30.3619 303.653 30.524 304.44 30.8468C305.226 31.1695 305.94 31.6465 306.539 32.2494C307.138 32.8524 307.611 33.5692 307.929 34.3576C308.246 35.146 308.403 35.99 308.39 36.84C308.428 37.8206 308.263 38.7985 307.905 39.7123C307.547 40.6261 307.004 41.456 306.31 42.1499C305.616 42.8438 304.786 43.3868 303.872 43.7448C302.959 44.1027 301.981 44.2679 301 44.23C297.43 44.35 294.76 41.52 294.76 37.6H294.72ZM297.4 36.38C297.4 39.38 298.48 43.3 302.11 43.3C304.69 43.3 305.79 40.72 305.79 38.08C305.79 34.42 304.06 31.3 301.34 31.3C298.34 31.3 297.4 33.74 297.4 36.38Z" fill="#C02F33"/>
<path d="M311.1 26.09C311.1 25.44 311.01 24.93 310.39 24.93H308.8V24.14C310.308 23.9529 311.791 23.5973 313.22 23.08L313.48 23.31V40.77C313.444 41.3239 313.491 41.8801 313.62 42.42C313.73 42.67 314.04 42.79 314.53 42.81L315.83 42.9V43.75C314.83 43.75 313.68 43.66 312.29 43.66C310.9 43.66 309.76 43.72 308.74 43.75V42.9L310.04 42.81C310.53 42.81 310.84 42.67 310.95 42.42C311.083 41.8808 311.134 41.3244 311.1 40.77V26.09Z" fill="#C02F33"/>
<path d="M33.88 0.479982C27.2499 0.478004 20.7682 2.44224 15.2546 6.12426C9.7409 9.80628 5.443 15.0407 2.90442 21.1655C0.365837 27.2903 -0.299398 34.0304 0.992849 40.5333C2.2851 47.0362 5.47678 53.0098 10.1642 57.6987C14.8517 62.3875 20.8244 65.581 27.3269 66.8752C33.8294 68.1694 40.5697 67.5061 46.6952 64.9694C52.8208 62.4326 58.0565 58.1363 61.7402 52.6237C65.4238 47.1112 67.39 40.63 67.39 34C67.3794 25.1149 63.8458 16.5966 57.5641 10.313C51.2823 4.02934 42.7651 0.493213 33.88 0.479982ZM33.88 65.95C27.5467 65.9599 21.353 64.0902 16.083 60.5778C10.8129 57.0654 6.70365 52.0682 4.27545 46.219C1.84725 40.3697 1.20933 33.9314 2.44247 27.7194C3.6756 21.5073 6.72432 15.8009 11.2026 11.3226C15.6809 6.84432 21.3873 3.79559 27.5994 2.56246C33.8114 1.32932 40.2497 1.96724 46.099 4.39544C51.9482 6.82364 56.9455 10.9329 60.4579 16.2029C63.9703 21.473 65.8399 27.6667 65.83 34C65.83 42.4783 62.4654 50.61 56.4751 56.6097C50.4847 62.6095 42.3583 65.9867 33.88 66" fill="#C02F33"/>
<path d="M33.88 8.82998C28.899 8.828 24.0293 10.3034 19.887 13.0694C15.7446 15.8355 12.5157 19.7679 10.6086 24.3694C8.70157 28.9708 8.20207 34.0345 9.17333 38.9199C10.1446 43.8053 12.543 48.2928 16.065 51.8149C19.5871 55.337 24.0747 57.7354 28.9601 58.7066C33.8454 59.6779 38.9091 59.1784 43.5106 57.2714C48.112 55.3643 52.0445 52.1354 54.8106 47.993C57.5766 43.8506 59.052 38.981 59.05 34C59.042 27.3269 56.3877 20.9294 51.6691 16.2109C46.9505 11.4923 40.5531 8.83792 33.88 8.82998ZM33.88 57.62C29.2084 57.62 24.6417 56.2347 20.7574 53.6393C16.8731 51.0439 13.8457 47.355 12.058 43.039C10.2702 38.723 9.80246 33.9738 10.7138 29.3919C11.6252 24.8101 13.8748 20.6014 17.1781 17.2981C20.4814 13.9948 24.6901 11.7452 29.272 10.8338C33.8538 9.92245 38.603 10.3902 42.919 12.1779C47.235 13.9657 50.9239 16.9931 53.5193 20.8774C56.1147 24.7617 57.5 29.3284 57.5 34C57.4921 40.262 55.001 46.2652 50.5731 50.6931C46.1452 55.121 40.142 57.612 33.88 57.62Z" fill="#C02F33"/>
<path d="M31.54 19.37H22.18V20.16C22.18 22.58 22.18 25.51 22.18 25.66C22.2477 26.0851 22.4154 26.4881 22.6692 26.8358C22.923 27.1834 23.2557 27.4659 23.64 27.66C24.74 28.4 26.37 29.36 26.44 29.4L26.82 29.62L27.21 29.42C27.28 29.42 29.05 28.42 30.16 27.67C30.5355 27.4742 30.8575 27.1897 31.098 26.8411C31.3385 26.4926 31.4902 26.0905 31.54 25.67C31.54 25.55 31.54 23.67 31.54 20.17V19.37ZM23.74 20.94H30V22.3H23.74V20.94ZM30 25.6C30 25.88 29.51 26.23 29.31 26.37C28.56 26.87 27.45 27.5 26.87 27.82C26.31 27.49 25.28 26.87 24.53 26.37C23.98 26 23.78 25.7 23.76 25.55V23.87H30V25.6Z" fill="#C02F33"/>
<path d="M36.66 19.34C36.66 19.34 36.66 25.5 36.66 25.62C36.7259 26.0444 36.8917 26.4471 37.1439 26.7948C37.396 27.1425 37.7271 27.4254 38.11 27.62C39.2 28.36 40.84 29.32 40.91 29.35L41.29 29.58L41.68 29.37C41.75 29.37 43.52 28.37 44.68 27.62C45.0571 27.4263 45.3805 27.1423 45.6213 26.7934C45.8621 26.4444 46.0128 26.0413 46.06 25.62V19.34H36.66ZM44.5 25.49V25.56C44.5 25.84 44.02 26.19 43.82 26.33C43.07 26.83 41.96 27.46 41.38 27.79C40.83 27.46 39.79 26.79 39.04 26.33C38.5 25.96 38.29 25.67 38.28 25.51C38.27 25.35 38.28 25.43 38.28 25.35L41.36 23.13L44.51 25.23V25.49H44.5ZM41.32 21.22L38.32 23.43V20.9H44.56V23.35L41.32 21.22Z" fill="#C02F33"/>
<path d="M36.31 37.62L36.98 37.69C37.4 37.69 37.76 37.77 38.07 37.78H38.61L40.04 37.83V37H38.07C37.77 37 37.44 36.95 37.07 36.91L36.4 36.84C36.247 36.8253 36.093 36.8253 35.94 36.84V37.66C36.0531 37.6503 36.1669 37.6503 36.28 37.66" fill="#C02F33"/>
<path d="M37.09 39.39L36.4 39.31H35.94V40.13C36.0565 40.1209 36.1735 40.1209 36.29 40.13L36.98 40.2C37.38 40.2 37.73 40.28 38.05 40.28L40.05 40.33V39.51L38.05 39.46C37.76 39.46 37.43 39.46 37.05 39.38" fill="#C02F33"/>
<path d="M38.09 42C37.8 42 37.48 42 37.09 41.92L36.38 41.85C36.2301 41.8404 36.0798 41.8404 35.93 41.85V42.67C36.0465 42.6606 36.1635 42.6606 36.28 42.67L36.97 42.74C37.37 42.74 37.72 42.82 38.03 42.82H39.98V42H38.09Z" fill="#C02F33"/>
<path d="M38.09 44.49C37.8 44.49 37.47 44.49 37.09 44.41L36.39 44.34C36.237 44.3254 36.083 44.3254 35.93 44.34V45.17H36.28L36.97 45.24C37.37 45.24 37.72 45.32 38.03 45.32H38.11L40 45.38V44.55H38.11L38.09 44.49Z" fill="#C02F33"/>
<path d="M29.63 37.76C29.96 37.76 30.32 37.76 30.74 37.67L31.39 37.6H31.72V36.78H31.3L30.64 36.85C30.2718 36.899 29.9013 36.9291 29.53 36.94L27.63 36.99V37.81L29.63 37.76Z" fill="#C02F33"/>
<path d="M30.63 39.36C30.24 39.36 29.91 39.45 29.63 39.45H27.63V40.27H29.63C29.9947 40.2609 30.3587 40.2308 30.72 40.18L31.38 40.11H31.71V39.28H31.28L30.6 39.35" fill="#C02F33"/>
<path d="M30.62 41.88C30.2881 41.9202 29.9543 41.9435 29.62 41.95C29 41.95 27.95 42.01 27.62 42.01V42.83H29.62C29.9814 42.8212 30.3421 42.7912 30.7 42.74L31.39 42.67H31.71V41.84C31.5702 41.8298 31.4298 41.8298 31.29 41.84L30.6 41.91" fill="#C02F33"/>
<path d="M30.65 44.39C30.25 44.39 29.91 44.47 29.65 44.48H27.69V45.3H29.67C30.0414 45.2906 30.412 45.2606 30.78 45.21L31.43 45.15C31.5364 45.1403 31.6435 45.1403 31.75 45.15V44.33H31.33L30.67 44.41" fill="#C02F33"/>
<path d="M17.87 17V38.53C17.87 50.53 32.93 57.1 33.57 57.37L33.89 57.51L34.2 57.37C36.984 56.0822 39.6029 54.4639 42 52.55C47.17 48.41 49.89 43.69 49.89 38.91V17H17.87ZM33.23 47C32.954 46.8732 32.6537 46.8083 32.35 46.81H32.3C31.5183 46.8124 30.7372 46.8558 29.96 46.94C29.24 47 28.5 47.07 27.41 47.1H26.23V35.48C26.69 35.48 27.23 35.48 27.96 35.48C28.69 35.48 29.21 35.4 29.96 35.31L31.31 35.18C31.7999 35.1286 32.2947 35.1455 32.78 35.23C32.9254 35.2679 33.0662 35.3216 33.2 35.39L33.23 47ZM33.23 33.72H33.15C32.4913 33.5921 31.8175 33.5617 31.15 33.63L29.79 33.77C29.07 33.85 28.45 33.92 27.92 33.93H24.66V36H23.12V37.87H24.66V40.33H23.12V42.2H24.66V44.2H23.12V46.07H24.66V48.6H25.4C25.4 48.6 26.31 48.6 27.4 48.6C28.49 48.6 29.35 48.5 30.05 48.44C30.7841 48.3615 31.5217 48.3215 32.26 48.32C32.3687 48.3102 32.478 48.3312 32.5753 48.3808C32.6726 48.4303 32.754 48.5063 32.81 48.6C32.9157 48.746 33.044 48.8743 33.19 48.98V55.41C30 53.83 19.44 47.83 19.44 38.53V31.73H33.23V33.72ZM48.3 38.91C48.3 47.91 37.51 53.97 34.4 55.54V49.06C34.5589 48.96 34.7008 48.835 34.82 48.69C35.01 48.48 35.09 48.38 35.4 48.38C36.1485 48.3712 36.8967 48.4113 37.64 48.5C38.35 48.56 39.15 48.63 40.29 48.66C41.43 48.69 42.29 48.66 42.34 48.66H43.08V46.46H44.45V44.58H43.08V42.58H44.54V40.72H43.08V38.26H44.46V36.39H43.07V33.93H39.79C39.26 33.93 38.64 33.85 37.92 33.77L36.57 33.63C35.9024 33.5655 35.2291 33.5958 34.57 33.72C34.5114 33.7339 34.4544 33.754 34.4 33.78V31.78H48.3V38.91ZM34.4 47V35.45C34.544 35.3314 34.7163 35.2522 34.9 35.22C35.398 35.1292 35.9063 35.109 36.41 35.16C36.9 35.16 37.34 35.26 37.76 35.3C38.51 35.38 39.16 35.45 39.76 35.46C40.36 35.47 40.76 35.46 41.22 35.46H41.52V47.11H40.33C39.24 47.11 38.5 47.01 37.78 46.95C37.0028 46.8658 36.2217 46.8224 35.44 46.82C35.0931 46.8156 34.7501 46.8945 34.44 47.05L34.4 47ZM19.44 30.19V18.6H48.3V30.18L19.44 30.19Z" fill="#C02F33"/>
<path d="M7.64999 31.8C7.66198 31.4647 7.63513 31.1291 7.56999 30.8H6.80999C6.92277 31.1206 6.96706 31.4612 6.93999 31.8C6.93228 32.0087 6.88078 32.2135 6.78882 32.401C6.69686 32.5885 6.5665 32.7547 6.4062 32.8885C6.2459 33.0224 6.05924 33.1211 5.85833 33.1782C5.65742 33.2353 5.44675 33.2496 5.23999 33.22C5.02732 33.2266 4.81567 33.1879 4.6191 33.1064C4.42254 33.025 4.24555 32.9026 4.0999 32.7475C3.95425 32.5924 3.84326 32.4081 3.77431 32.2068C3.70536 32.0055 3.68003 31.7918 3.69999 31.58C3.70526 31.2408 3.80954 30.9106 3.99999 30.63L3.23999 30.52C3.09741 30.8356 3.01273 31.1744 2.98999 31.52C2.93683 31.8427 2.95565 32.1732 3.04508 32.4878C3.13452 32.8024 3.29237 33.0934 3.50735 33.3399C3.72232 33.5864 3.98912 33.7824 4.28864 33.9138C4.58817 34.0452 4.91303 34.1088 5.23999 34.1C5.55643 34.1395 5.8777 34.1081 6.18052 34.0082C6.48334 33.9082 6.76012 33.7421 6.99082 33.5219C7.22152 33.3018 7.40035 33.033 7.51436 32.7352C7.62837 32.4374 7.6747 32.1179 7.64999 31.8Z" fill="#C02F33"/>
<path d="M5.67999 28.6C5.96272 28.7039 6.26383 28.7483 6.56451 28.7306C6.8652 28.7128 7.15898 28.6332 7.4275 28.4967C7.69602 28.3603 7.93351 28.1699 8.12511 27.9375C8.31672 27.7051 8.45832 27.4356 8.54107 27.146C8.62382 26.8564 8.64593 26.5528 8.60603 26.2543C8.56613 25.9557 8.46507 25.6686 8.30917 25.4109C8.15328 25.1531 7.94589 24.9304 7.69998 24.7564C7.45407 24.5825 7.17492 24.4611 6.87999 24.4C6.59691 24.2796 6.29093 24.2226 5.98349 24.2329C5.67605 24.2432 5.37458 24.3206 5.1002 24.4597C4.82583 24.5988 4.58519 24.7962 4.39514 25.0381C4.20509 25.28 4.07022 25.5605 3.99999 25.86C3.90143 26.1505 3.86802 26.4591 3.90214 26.764C3.93626 27.0688 4.03707 27.3624 4.19742 27.624C4.35777 27.8855 4.57372 28.1085 4.82995 28.2772C5.08617 28.4459 5.37639 28.5561 5.67999 28.6ZM4.72999 26.06C4.96999 25.2 5.85999 25.06 6.61999 25.29C7.37999 25.52 8.09999 26.07 7.84999 26.94C7.59999 27.81 6.71999 27.94 5.93999 27.7C5.15999 27.46 4.48999 26.91 4.72999 26.06Z" fill="#C02F33"/>
<path d="M10.24 22.53L8.58999 21.65L8.71999 21.39C8.89999 21.06 9.06999 21.02 9.42999 21.06L10.92 21.25L11.39 20.38L9.48999 20.18C9.37672 20.1528 9.25819 20.1571 9.14717 20.1924C9.03616 20.2276 8.93686 20.2925 8.85999 20.38C8.95898 20.142 8.96224 19.8749 8.86908 19.6346C8.77592 19.3942 8.59353 19.1991 8.35999 19.09C7.25999 18.5 6.74999 19.52 6.29999 20.37L5.84999 21.21L9.84999 23.34L10.24 22.53ZM8.09999 21.05L7.99999 21.31L6.92999 20.74L6.99999 20.48C7.21999 20.08 7.48999 19.66 7.99999 19.93C8.50999 20.2 8.31999 20.66 8.10999 21.05" fill="#C02F33"/>
<path d="M12.91 18.26L10.31 16.11L10.32 16.09L14.01 16.94L14.7 16.1L11.23 13.22L10.69 13.88L13.28 16.03L13.27 16.04L9.58999 15.19L8.88999 16.04L12.37 18.92L12.91 18.26Z" fill="#C02F33"/>
<path d="M18.31 12.96L17.86 12.41L16.5 13.52L15.7 12.54L16.94 11.53L16.49 10.98L15.26 11.98L14.55 11.12L15.9 10.03L15.45 9.46998L13.41 11.14L16.26 14.63L18.31 12.96Z" fill="#C02F33"/>
<path d="M22.34 10.52L21.99 9.89998L20.48 10.75L18.62 7.43998L17.84 7.86998L20.05 11.81L22.34 10.52Z" fill="#C02F33"/>
<path d="M26.43 8.92998L26.18 8.25998L24.55 8.84998L23.26 5.26998L22.43 5.57998L23.96 9.81998L26.43 8.92998Z" fill="#C02F33"/>
<path d="M31.81 8.04998C33 7.99998 33.58 7.38998 33.48 6.18998L33.24 3.31998L32.35 3.38998L32.57 5.99998C32.63 6.75998 32.43 7.28998 31.76 7.33998C31.09 7.38998 30.76 6.90998 30.76 6.14998L30.54 3.54998L29.65 3.62998L29.89 6.49998C29.99 7.70998 30.7 8.14998 31.84 8.05998" fill="#C02F33"/>
<path d="M37.01 4.62998H37.02L38.25 8.20998L39.33 8.34998L39.94 3.87998L39.09 3.75998L38.64 7.10998H38.63L37.4 3.52998L36.31 3.38998L35.71 7.85998L36.55 7.97998L37.01 4.62998Z" fill="#C02F33"/>
<path d="M42.6952 4.62089L41.3518 8.92615L42.2014 9.19126L43.5448 4.886L42.6952 4.62089Z" fill="#C02F33"/>
<path d="M49.57 7.54998L48.77 7.14998L46.17 9.79998L46.16 9.78998L46.74 6.11998L45.88 5.67998L45.21 10.4L46.19 10.89L49.57 7.54998Z" fill="#C02F33"/>
<path d="M51.04 14.2L51.48 13.64L50.09 12.56L50.88 11.56L52.13 12.54L52.56 11.98L51.32 11L52 10.13L53.37 11.19L53.8 10.64L51.73 9.00998L48.96 12.57L51.04 14.2Z" fill="#C02F33"/>
<path d="M53.08 16.23L54.5 15L54.69 15.22C54.93 15.5 54.91 15.67 54.74 15.99L54 17.32L54.65 18.06L55.51 16.36C55.566 16.259 55.5954 16.1455 55.5954 16.03C55.5954 15.9145 55.566 15.8009 55.51 15.7C55.6965 15.8802 55.9457 15.981 56.205 15.981C56.4643 15.981 56.7135 15.8802 56.9 15.7C57.84 14.88 57.07 14.04 56.43 13.32L55.8 12.59L52.41 15.59L53.08 16.23ZM55.94 13.72L56.14 13.95C56.43 14.28 56.73 14.69 56.32 15.04C55.91 15.39 55.51 15.04 55.22 14.75L55 14.53L55.94 13.72Z" fill="#C02F33"/>
<path d="M56.78 20.11C56.6044 19.8053 56.5081 19.4615 56.5 19.11L55.75 19.46C55.8472 19.835 55.9952 20.195 56.19 20.53C56.65 21.3 57.36 21.77 58.19 21.27C59.49 20.5 58.19 18.99 58.88 18.59C58.9558 18.5423 59.041 18.5115 59.1299 18.4999C59.2187 18.4883 59.309 18.496 59.3945 18.5226C59.48 18.5493 59.5588 18.5941 59.6253 18.654C59.6919 18.714 59.7446 18.7877 59.78 18.87C59.9343 19.1411 60.0329 19.4403 60.07 19.75L60.75 19.44C60.6781 19.0852 60.5426 18.7465 60.35 18.44C60.2772 18.2523 60.1633 18.0832 60.0167 17.9452C59.8701 17.8073 59.6946 17.7038 59.5028 17.6424C59.3111 17.5811 59.108 17.5634 58.9086 17.5906C58.7091 17.6179 58.5182 17.6894 58.35 17.8C57.06 18.56 58.35 20.06 57.62 20.49C57.27 20.7 56.89 20.4 56.72 20.11" fill="#C02F33"/>
<path d="M62.0738 21.9944L57.897 23.6956L58.2327 24.5198L62.4095 22.8187L62.0738 21.9944Z" fill="#C02F33"/>
<path d="M59.17 27.37L59.38 28.23L63.07 27.32L63.37 28.57L64.06 28.4L63.25 25.05L62.55 25.22L62.86 26.46L59.17 27.37Z" fill="#C02F33"/>
<path d="M59.99 32.38L60.04 33.27L61.83 33.16L64.64 34.61L64.58 33.67L62.63 32.7L64.47 31.55L64.41 30.5L61.78 32.28L59.99 32.38Z" fill="#C02F33"/>
<path d="M6.50999 43.11L7.18999 42.91L6.76999 41.45L7.83999 41.14L8.27999 42.68L8.95999 42.48L8.26999 40.08L3.93999 41.33L4.17999 42.2L6.08999 41.65L6.50999 43.11Z" fill="#C02F33"/>
<path d="M10.39 45.61C10.2769 45.3254 10.1026 45.0692 9.87951 44.8595C9.65642 44.6498 9.38998 44.4916 9.09902 44.3962C8.80806 44.3008 8.49969 44.2705 8.19573 44.3074C7.89176 44.3444 7.59963 44.4477 7.33999 44.61C7.05169 44.7113 6.78897 44.8743 6.57019 45.0877C6.3514 45.301 6.18181 45.5596 6.07326 45.8452C5.96471 46.1309 5.91981 46.4368 5.9417 46.7416C5.96359 47.0464 6.05174 47.3428 6.19999 47.61C6.32154 47.8912 6.50258 48.1427 6.73065 48.3472C6.95871 48.5517 7.22839 48.7043 7.52111 48.7946C7.81383 48.8849 8.12264 48.9107 8.42628 48.8702C8.72992 48.8297 9.02117 48.7238 9.27999 48.56C9.56356 48.4527 9.82082 48.2859 10.0344 48.0707C10.248 47.8556 10.413 47.5971 10.5182 47.3128C10.6234 47.0284 10.6664 46.7248 10.6443 46.4225C10.6222 46.1201 10.5354 45.826 10.39 45.56V45.61ZM8.85999 47.77C8.12999 48.13 7.23999 48.19 6.85999 47.36C6.47999 46.53 7.03999 45.87 7.76999 45.51C8.49999 45.15 9.37999 45.13 9.76999 45.93C10.16 46.73 9.58999 47.42 8.87999 47.77" fill="#C02F33"/>
<path d="M14 51.33L12 53C11.4 53.48 10.85 53.6 10.43 53.06C10.01 52.52 10.24 52.01 10.84 51.53L12.84 49.91L12.28 49.21L10.05 51C9.84367 51.1298 9.67064 51.3062 9.54479 51.5149C9.41894 51.7237 9.34376 51.9591 9.32529 52.2021C9.30681 52.4452 9.34556 52.6892 9.43842 52.9146C9.53127 53.14 9.67566 53.3405 9.85999 53.5C9.97662 53.7127 10.1407 53.8958 10.3394 54.0349C10.5382 54.174 10.7663 54.2655 11.0062 54.3023C11.246 54.339 11.4911 54.32 11.7224 54.2468C11.9537 54.1736 12.165 54.0481 12.34 53.88L14.6 52L14 51.33Z" fill="#C02F33"/>
<path d="M18.21 55.28L16.07 57.89L16.06 57.88L16.87 54.19L16.01 53.48L13.15 56.98L13.82 57.52L15.96 54.91L15.97 54.92L15.16 58.63L16.02 59.32L18.88 55.83L18.21 55.28Z" fill="#C02F33"/>
<path d="M21.69 57.49L20.59 56.94L18.59 60.94L19.7 61.49C20.93 62.12 22.22 62.25 23.03 60.64C23.84 59.03 22.95 58.08 21.72 57.46L21.69 57.49ZM22.19 60.22C22.1073 60.3998 21.9897 60.5613 21.8439 60.6951C21.6981 60.8289 21.5271 60.9323 21.341 60.9994C21.1548 61.0664 20.9571 61.0957 20.7595 61.0855C20.5619 61.0753 20.3683 61.0258 20.19 60.94L19.74 60.71L21.08 58L21.53 58.23C21.7029 58.3197 21.8565 58.4426 21.9818 58.5918C22.1071 58.7409 22.2017 58.9133 22.2603 59.0992C22.3188 59.285 22.3401 59.4805 22.3229 59.6746C22.3057 59.8686 22.2503 60.0574 22.16 60.23" fill="#C02F33"/>
<path d="M24.65 63.62L27.23 64.31L27.41 63.62L25.7 63.16L26.03 61.94L27.58 62.36L27.76 61.67L26.21 61.25L26.5 60.18L28.19 60.63L28.38 59.95L25.81 59.26L24.65 63.62Z" fill="#C02F33"/>
<path d="M31.59 60.37L30.36 60.3L30.11 64.81L31.33 64.88C32.71 64.95 33.95 64.56 34.05 62.77C34.15 60.98 32.97 60.45 31.59 60.37ZM31.59 64.18H31.08L31.26 61.09H31.76C32.1528 61.1348 32.5136 61.328 32.7687 61.6301C33.0237 61.9322 33.1537 62.3204 33.132 62.7151C33.1102 63.1099 32.9385 63.4814 32.6519 63.7537C32.3652 64.0261 31.9853 64.1785 31.59 64.18Z" fill="#C02F33"/>
<path d="M38.64 60L37.88 64.78L38.79 64.59L39 63.47L40.78 63.08L41.37 64.01L42.37 63.8L39.7 59.8L38.64 60ZM39.06 62.75L39.3 60.75L40.3 62.43L39.06 62.75Z" fill="#C02F33"/>
<path d="M43.32 62.44L43.63 63.29L44.48 62.99L44.17 62.14L43.32 62.44Z" fill="#C02F33"/>
<path d="M45.54 57.58L44.46 58.17L46.62 62.17L47.7 61.59C48.91 60.93 49.76 59.95 48.91 58.36C48.06 56.77 46.76 56.96 45.54 57.62V57.58ZM47.54 60.88L47.1 61.12L45.6 58.36L46.04 58.12C46.3971 57.9593 46.8018 57.9398 47.1727 58.0653C47.5437 58.1908 47.8534 58.4521 48.0396 58.7966C48.2257 59.1411 48.2746 59.5433 48.1764 59.9224C48.0781 60.3014 47.8401 60.6293 47.51 60.84" fill="#C02F33"/>
<path d="M50.22 59L50.73 59.75L51.47 59.23L50.96 58.49L50.22 59Z" fill="#C02F33"/>
<path d="M52.08 52.83L51.88 54.51L52.62 54.61L52.73 53.63L55.17 56.12L55.81 55.48L52.65 52.26L52.08 52.83Z" fill="#C02F33"/>
<path d="M56.93 50.34C56.9878 50.1139 56.9778 49.8758 56.9014 49.6553C56.8249 49.4349 56.6853 49.2417 56.5 49.1C55.9 48.65 55.21 49.03 54.73 49.67C54.6031 49.7932 54.5043 49.9422 54.4402 50.1071C54.3762 50.2719 54.3484 50.4486 54.3588 50.6252C54.3693 50.8017 54.4177 50.9739 54.5007 51.1301C54.5837 51.2862 54.6995 51.4226 54.84 51.53C55.0309 51.6577 55.2553 51.7258 55.485 51.7258C55.7146 51.7258 55.9391 51.6577 56.13 51.53C56.0539 51.7654 56.0525 52.0186 56.1259 52.2549C56.1993 52.4912 56.3439 52.6991 56.54 52.85C57.28 53.4 58 53.06 58.54 52.35C58.6772 52.2171 58.7837 52.0558 58.852 51.8775C58.9204 51.6991 58.9489 51.5079 58.9355 51.3174C58.9222 51.1268 58.8673 50.9415 58.7748 50.7744C58.6823 50.6073 58.5544 50.4624 58.4 50.35C58.1879 50.1955 57.9323 50.1123 57.67 50.1123C57.4076 50.1123 57.1521 50.1955 56.94 50.35L56.93 50.34ZM55.37 50.85C55.3141 50.7942 55.2697 50.728 55.2394 50.6551C55.2091 50.5821 55.1935 50.5039 55.1935 50.425C55.1935 50.346 55.2091 50.2678 55.2394 50.1949C55.2697 50.122 55.3141 50.0557 55.37 50C55.4104 49.9371 55.4639 49.8837 55.5269 49.8433C55.5898 49.803 55.6608 49.7767 55.7348 49.7663C55.8088 49.7558 55.8842 49.7615 55.9559 49.7828C56.0275 49.8042 56.0937 49.8407 56.15 49.89C56.2601 49.9857 56.3404 50.1111 56.3811 50.2512C56.4219 50.3912 56.4215 50.5401 56.38 50.68C56.11 50.86 55.73 51.08 55.38 50.85H55.37ZM58 52C57.9509 52.0717 57.8881 52.133 57.8152 52.1804C57.7423 52.2278 57.6608 52.2604 57.5753 52.2762C57.4898 52.2919 57.4021 52.2907 57.3171 52.2725C57.2321 52.2543 57.1515 52.2194 57.08 52.17C56.9517 52.0632 56.859 51.9199 56.8143 51.7591C56.7696 51.5982 56.7751 51.4276 56.83 51.27C56.9688 51.1302 57.1496 51.0399 57.3447 51.0128C57.5398 50.9857 57.7384 51.0234 57.91 51.12C57.9767 51.1697 58.0324 51.2327 58.0734 51.305C58.1145 51.3773 58.1401 51.4574 58.1486 51.5402C58.157 51.6229 58.1482 51.7065 58.1226 51.7857C58.097 51.8649 58.0553 51.9378 58 52Z" fill="#C02F33"/>
<path d="M60.61 45.61C60.4571 45.5112 60.2843 45.4472 60.104 45.4227C59.9236 45.3982 59.74 45.4137 59.5663 45.4681C59.3926 45.5225 59.233 45.6145 59.0988 45.7375C58.9646 45.8605 58.8592 46.0116 58.79 46.18C58.7022 46.332 58.656 46.5044 58.656 46.68C58.656 46.8555 58.7022 47.028 58.79 47.18C58.2 46.86 57.67 46.29 58.02 45.6C58.1489 45.3598 58.3219 45.1461 58.53 44.97L57.93 44.54C57.7007 44.7666 57.5114 45.0303 57.37 45.32C56.72 46.62 57.74 47.58 58.84 48.12C59.79 48.59 60.84 48.81 61.4 47.69C61.5057 47.5061 61.5691 47.301 61.5858 47.0896C61.6024 46.8782 61.5718 46.6657 61.4962 46.4675C61.4206 46.2694 61.3018 46.0905 61.1486 45.9439C60.9953 45.7974 60.8113 45.6867 60.61 45.62V45.61ZM60.8 47.39C60.6 47.79 60.18 47.78 59.8 47.59C59.42 47.4 59.11 47.06 59.31 46.67C59.51 46.28 59.94 46.3 60.31 46.5C60.68 46.7 60.95 47.01 60.77 47.39" fill="#C02F33"/>
<path d="M62.36 40.73C62.1757 40.6555 61.9771 40.6229 61.7786 40.6347C61.5802 40.6465 61.3868 40.7022 61.2126 40.798C61.0384 40.8937 60.8876 41.027 60.7713 41.1882C60.655 41.3494 60.576 41.5345 60.54 41.73C60.4979 41.8628 60.4743 42.0007 60.47 42.14L59.55 41.85L60 40.15L59.4 40L58.66 42.47L60.97 43.21C60.9609 42.9357 60.998 42.6619 61.08 42.4C61.23 41.9 61.57 41.47 62.13 41.63C62.242 41.6689 62.3445 41.7311 62.4308 41.8125C62.517 41.8939 62.585 41.9927 62.6304 42.1022C62.6757 42.2118 62.6973 42.3298 62.6938 42.4483C62.6903 42.5668 62.6617 42.6833 62.61 42.79C62.5065 43.0897 62.3432 43.3653 62.13 43.6L62.9 43.85C63.0841 43.5369 63.2253 43.2006 63.32 42.85C63.4135 42.6471 63.4614 42.4262 63.4605 42.2028C63.4595 41.9794 63.4096 41.7589 63.3143 41.5568C63.2189 41.3548 63.0805 41.1761 62.9088 41.0332C62.737 40.8904 62.536 40.7869 62.32 40.73" fill="#C02F33"/>
</svg>
