<svg width="66" height="60" viewBox="0 0 66 60" fill="none" xmlns="http://www.w3.org/2000/svg">
<path d="M30 60C29.4324 59.9311 28.8197 59.4875 28.0877 59.0139C26.2169 57.8052 24.2959 56.676 22.439 55.439C18.4517 52.7865 14.6011 49.899 11.0672 46.6387C8.26712 44.0533 5.05859 41.3319 3.22242 37.9178C1.27377 34.2917 0.164451 29.9233 0.0156195 25.8059C-0.148788 21.2466 0.981294 16.5832 3.56681 12.8633C7.01763 7.89237 12.3236 5.69758 17.9204 6.03334C17.1434 6.50693 16.3871 7.06005 15.662 7.69092C12.2665 10.6526 10.0514 14.8938 9.11858 19.3523C8.2775 23.3849 8.30866 27.8981 9.32625 31.899C10.2885 35.67 12.7494 39.1089 14.8451 42.3162C17.4895 46.3612 20.5284 50.1235 23.7612 53.6895C25.2651 55.3524 26.8555 56.9269 28.3819 58.5686C28.9772 59.2083 29.467 59.7915 30 60Z" fill="#F9AD42"/>
<path d="M30 60C29.4789 59.7914 29.0017 59.2079 28.418 58.566C26.9256 56.9234 25.3706 55.3479 23.9002 53.6841C20.7395 50.1159 17.7683 46.3515 15.1829 42.3041C13.1339 39.0967 10.7278 35.654 9.78706 31.8807C8.79046 27.8776 8.76001 23.3617 9.58402 19.3267C10.496 14.8638 12.6618 10.622 15.9816 7.65855C16.6922 7.02554 17.4299 6.47387 18.1897 6C19.4045 6.07603 20.6329 6.27407 21.8563 6.59587C23.0847 6.91768 24.3199 7.30491 25.5178 7.75756C23.0779 9.77328 21.1033 12.4202 19.7243 15.3448C17.9815 19.0438 16.9528 23.4306 16.9832 27.5682C17.012 31.467 18.5382 35.4171 19.7751 39.0542C21.3334 43.6391 23.3351 48.0489 25.5618 52.3155C26.6007 54.3047 27.7378 56.232 28.8004 58.2053C29.2166 58.9762 29.5432 59.664 30 60Z" fill="#7CBD27"/>
<path d="M65.9927 17.6195C64.9185 16.3378 63.6831 15.2367 62.3005 14.3477C60.7551 13.3571 59.0277 12.6382 57.1427 12.2454C55.1849 10.2028 52.8615 8.67558 50.2938 7.81994C48.5543 7.24133 46.7056 6.97132 44.7842 7.05723C43.8798 7.09756 42.9581 7.21679 42.0225 7.41842C40.775 7.69195 39.5622 8.10574 38.3997 8.6335C35.4959 9.95203 32.9005 11.9982 30.8318 14.4599C28.2122 17.5757 26.1417 21.533 25.1784 25.5184C24.2723 29.2741 24.8423 33.4611 25.1975 37.2677C25.6479 42.0736 26.5766 46.82 27.7652 51.4892C28.3178 53.6651 28.9884 55.806 29.5705 57.9714C29.7957 58.8165 29.9569 59.5564 30.3259 59.9965C30.3259 59.9982 30.3276 60 30.3276 60C29.8616 59.6651 29.5254 58.9848 29.101 58.2221C28.0129 56.2653 26.8469 54.3559 25.7848 52.3816C23.5048 48.149 21.4551 43.7761 19.8594 39.2314C18.5929 35.6265 17.0301 31.7095 17.0007 27.8416C16.9695 23.7387 18.0229 19.3886 19.8074 15.7206C21.2178 12.8188 23.2397 10.194 25.7398 8.19692C25.9615 8.27933 26.1816 8.35647 26.3999 8.44063C27.6404 8.92632 28.9087 9.96431 30.2912 9.92047C31.9181 9.86787 33.1205 8.31264 34.1306 7.20802C34.3593 6.95904 34.5932 6.71533 34.8289 6.47687C35.5375 5.75974 36.2825 5.0847 37.0743 4.46401C37.4589 4.16068 37.8522 3.86962 38.2576 3.59259C41.2584 1.5394 44.7721 0.212106 48.4018 0.0227428C53.7711 -0.261302 59.1854 2.13028 62.5292 6.35764C63.1097 7.09055 63.6277 7.87956 64.0712 8.71942C64.9514 10.3834 65.5006 12.1823 65.7795 14.0391C65.9563 15.2156 66.0238 16.4149 65.9927 17.6195Z" fill="#298FFB"/>
<path d="M50.4122 7.22161C46.5682 6.62929 43.1335 7.38934 42.2047 7.59202C40.9663 7.86459 39.7624 8.27695 38.6083 8.80287C35.7257 10.1168 33.1492 12.1559 31.0956 14.609C28.4951 17.7139 26.4398 21.6574 25.4835 25.6289C24.584 29.3715 25.1498 33.544 25.5024 37.3373C25.9496 42.1265 26.8715 46.8563 28.0514 51.5092C28.6 53.6776 29.2656 55.811 29.8435 57.9688C30.0671 58.811 30.2271 59.5484 30.5934 59.9869C30.5934 59.9887 30.5951 59.9904 30.5951 59.9904C30.5951 59.9904 30.5951 59.9904 30.5969 59.9904C31.1335 60.0568 31.6305 59.7877 32.1465 58.8879C35.7463 52.6275 41.7472 48.5861 47.5365 44.6355C53.6509 40.4631 59.4677 35.908 62.9729 29.1479C63.2515 28.608 63.5164 28.0594 63.7624 27.502C64.2783 26.3278 64.7221 25.0855 65.0747 23.8048C65.6182 21.8461 65.9484 19.7966 66 17.7558C64.9336 16.4786 61.0431 8.86053 50.4122 7.22161Z" fill="#2F418D"/>
</svg>
