<svg width="220" height="61" viewBox="0 0 220 61" fill="none" xmlns="http://www.w3.org/2000/svg">
<path d="M88.25 6.96875V13.1562H93.7031C94.7865 13.1562 95.599 13.0312 96.1406 12.7812C97.099 12.3438 97.5781 11.4792 97.5781 10.1875C97.5781 8.79167 97.1146 7.85417 96.1875 7.375C95.6667 7.10417 94.8854 6.96875 93.8438 6.96875H88.25ZM94.8438 2.96875C96.4583 3 97.6979 3.19792 98.5625 3.5625C99.4375 3.92708 100.177 4.46354 100.781 5.17188C101.281 5.75521 101.677 6.40104 101.969 7.10938C102.26 7.81771 102.406 8.625 102.406 9.53125C102.406 10.625 102.13 11.7031 101.578 12.7656C101.026 13.8177 100.115 14.5625 98.8438 15C99.9062 15.4271 100.656 16.0365 101.094 16.8281C101.542 17.6094 101.766 18.8073 101.766 20.4219V21.9688C101.766 23.0208 101.807 23.7344 101.891 24.1094C102.016 24.7031 102.307 25.1406 102.766 25.4219V26H97.4688C97.3229 25.4896 97.2188 25.0781 97.1562 24.7656C97.0312 24.1198 96.9635 23.4583 96.9531 22.7812L96.9219 20.6406C96.901 19.1719 96.6302 18.1927 96.1094 17.7031C95.599 17.2135 94.6354 16.9688 93.2188 16.9688H88.25V26H83.5469V2.96875H94.8438Z" fill="white"/>
<path d="M110.781 6.9375H106.266V2.82812H110.781V6.9375ZM106.266 8.96875H110.781V26H106.266V8.96875Z" fill="white"/>
<path d="M122.422 22.3438C123.464 22.3438 124.344 21.9531 125.062 21.1719C125.781 20.3802 126.141 19.125 126.141 17.4062C126.141 15.7917 125.797 14.5625 125.109 13.7188C124.432 12.875 123.521 12.4531 122.375 12.4531C120.812 12.4531 119.734 13.1875 119.141 14.6562C118.828 15.4375 118.672 16.401 118.672 17.5469C118.672 18.5365 118.839 19.4167 119.172 20.1875C119.776 21.625 120.859 22.3438 122.422 22.3438ZM121.312 8.5625C122.167 8.5625 122.911 8.69271 123.547 8.95312C124.63 9.40104 125.505 10.224 126.172 11.4219V8.96875H130.5V25.125C130.5 27.3229 130.13 28.9792 129.391 30.0938C128.12 32.0104 125.682 32.9688 122.078 32.9688C119.901 32.9688 118.125 32.5417 116.75 31.6875C115.375 30.8333 114.615 29.5573 114.469 27.8594H119.312C119.438 28.3802 119.641 28.7552 119.922 28.9844C120.401 29.3906 121.208 29.5938 122.344 29.5938C123.948 29.5938 125.021 29.0573 125.562 27.9844C125.917 27.2969 126.094 26.1406 126.094 24.5156V23.4219C125.667 24.151 125.208 24.6979 124.719 25.0625C123.833 25.7396 122.682 26.0781 121.266 26.0781C119.078 26.0781 117.328 25.3125 116.016 23.7812C114.714 22.2396 114.062 20.1562 114.062 17.5312C114.062 15 114.693 12.875 115.953 11.1562C117.214 9.42708 119 8.5625 121.312 8.5625Z" fill="white"/>
<path d="M144.062 8.53125C145.115 8.53125 146.068 8.71354 146.922 9.07812C147.786 9.44271 148.495 10 149.047 10.75C149.516 11.3854 149.802 12.0417 149.906 12.7188C150.01 13.3854 150.062 14.4792 150.062 16V26H145.516V15.6406C145.516 14.724 145.359 13.9844 145.047 13.4219C144.641 12.6302 143.87 12.2344 142.734 12.2344C141.557 12.2344 140.661 12.6302 140.047 13.4219C139.443 14.2031 139.141 15.3229 139.141 16.7812V26H134.703V3.04688H139.141V11.1875C139.786 10.1979 140.531 9.51042 141.375 9.125C142.229 8.72917 143.125 8.53125 144.062 8.53125Z" fill="white"/>
<path d="M152.484 12.2969V9.125H154.859V4.375H159.266V9.125H162.031V12.2969H159.266V21.2969C159.266 21.9948 159.354 22.4323 159.531 22.6094C159.708 22.776 160.25 22.8594 161.156 22.8594C161.292 22.8594 161.432 22.8594 161.578 22.8594C161.734 22.849 161.885 22.8385 162.031 22.8281V26.1562L159.922 26.2344C157.818 26.3073 156.38 25.9427 155.609 25.1406C155.109 24.6302 154.859 23.8438 154.859 22.7812V12.2969H152.484Z" fill="white"/>
<path d="M168.359 20.5625C168.453 21.3542 168.656 21.9167 168.969 22.25C169.521 22.8438 170.542 23.1406 172.031 23.1406C172.906 23.1406 173.599 23.0104 174.109 22.75C174.63 22.4896 174.891 22.099 174.891 21.5781C174.891 21.0781 174.682 20.6979 174.266 20.4375C173.849 20.1771 172.302 19.7292 169.625 19.0938C167.698 18.6146 166.339 18.0156 165.547 17.2969C164.755 16.5885 164.359 15.5677 164.359 14.2344C164.359 12.6615 164.974 11.3125 166.203 10.1875C167.443 9.05208 169.182 8.48438 171.422 8.48438C173.547 8.48438 175.276 8.91146 176.609 9.76562C177.953 10.6094 178.724 12.0729 178.922 14.1562H174.469C174.406 13.5833 174.245 13.1302 173.984 12.7969C173.495 12.1927 172.661 11.8906 171.484 11.8906C170.516 11.8906 169.823 12.0417 169.406 12.3438C169 12.6458 168.797 13 168.797 13.4062C168.797 13.9167 169.016 14.2865 169.453 14.5156C169.891 14.7552 171.438 15.1667 174.094 15.75C175.865 16.1667 177.193 16.7969 178.078 17.6406C178.953 18.4948 179.391 19.5625 179.391 20.8438C179.391 22.5312 178.76 23.9115 177.5 24.9844C176.25 26.0469 174.312 26.5781 171.688 26.5781C169.01 26.5781 167.031 26.0156 165.75 24.8906C164.479 23.7552 163.844 22.3125 163.844 20.5625H168.359Z" fill="white"/>
<path d="M89.3594 36.7344C89.6406 36.7344 89.8958 36.7448 90.125 36.7656C90.3542 36.776 90.6667 36.7969 91.0625 36.8281V40.4531C90.8125 40.4219 90.3906 40.401 89.7969 40.3906C89.2135 40.3698 88.8073 40.5 88.5781 40.7812C88.3594 41.0521 88.25 41.3542 88.25 41.6875C88.25 42.0208 88.25 42.5 88.25 43.125H91.1719V46.2656H88.25V60H83.8125V46.2656H81.3281V43.125H83.7656V42.0312C83.7656 40.2083 84.0729 38.9531 84.6875 38.2656C85.3333 37.2448 86.8906 36.7344 89.3594 36.7344Z" fill="white"/>
<path d="M101.375 56.8594C102.677 56.8594 103.677 56.3958 104.375 55.4688C105.073 54.5417 105.422 53.224 105.422 51.5156C105.422 49.8073 105.073 48.4948 104.375 47.5781C103.677 46.651 102.677 46.1875 101.375 46.1875C100.073 46.1875 99.0677 46.651 98.3594 47.5781C97.6615 48.4948 97.3125 49.8073 97.3125 51.5156C97.3125 53.224 97.6615 54.5417 98.3594 55.4688C99.0677 56.3958 100.073 56.8594 101.375 56.8594ZM110.094 51.5156C110.094 54.0156 109.375 56.1562 107.938 57.9375C106.5 59.7083 104.318 60.5938 101.391 60.5938C98.4635 60.5938 96.2812 59.7083 94.8438 57.9375C93.4062 56.1562 92.6875 54.0156 92.6875 51.5156C92.6875 49.0573 93.4062 46.9271 94.8438 45.125C96.2812 43.3229 98.4635 42.4219 101.391 42.4219C104.318 42.4219 106.5 43.3229 107.938 45.125C109.375 46.9271 110.094 49.0573 110.094 51.5156Z" fill="white"/>
<path d="M122.547 42.5625C122.63 42.5625 122.698 42.5677 122.75 42.5781C122.812 42.5781 122.943 42.5833 123.141 42.5938V47.1562C122.859 47.125 122.609 47.1042 122.391 47.0938C122.172 47.0833 121.995 47.0781 121.859 47.0781C120.068 47.0781 118.865 47.6615 118.25 48.8281C117.906 49.4844 117.734 50.4948 117.734 51.8594V60H113.25V42.9688H117.5V45.9375C118.188 44.8021 118.786 44.026 119.297 43.6094C120.13 42.9115 121.214 42.5625 122.547 42.5625Z" fill="white"/>
<path d="M126.094 60V36.9688H130.859V45.75H139.859V36.9688H144.641V60H139.859V49.7188H130.859V60H126.094Z" fill="white"/>
<path d="M155.609 46.1875C154.578 46.1875 153.776 46.5104 153.203 47.1562C152.641 47.8021 152.286 48.6771 152.141 49.7812H159.062C158.99 48.6042 158.63 47.7135 157.984 47.1094C157.349 46.4948 156.557 46.1875 155.609 46.1875ZM155.609 42.5156C157.026 42.5156 158.302 42.7812 159.438 43.3125C160.573 43.8438 161.51 44.6823 162.25 45.8281C162.917 46.8385 163.349 48.0104 163.547 49.3438C163.661 50.125 163.708 51.25 163.688 52.7188H152.031C152.094 54.4271 152.63 55.625 153.641 56.3125C154.255 56.7396 154.995 56.9531 155.859 56.9531C156.776 56.9531 157.521 56.6927 158.094 56.1719C158.406 55.8906 158.682 55.5 158.922 55H163.469C163.354 56.0104 162.828 57.0365 161.891 58.0781C160.432 59.7344 158.391 60.5625 155.766 60.5625C153.599 60.5625 151.688 59.8646 150.031 58.4688C148.375 57.0729 147.547 54.8021 147.547 51.6562C147.547 48.7083 148.292 46.4479 149.781 44.875C151.281 43.3021 153.224 42.5156 155.609 42.5156Z" fill="white"/>
<path d="M176.094 51.7188C175.812 51.8958 175.526 52.0417 175.234 52.1562C174.953 52.2604 174.562 52.3594 174.062 52.4531L173.062 52.6406C172.125 52.8073 171.453 53.0104 171.047 53.25C170.359 53.6562 170.016 54.2865 170.016 55.1406C170.016 55.901 170.224 56.4531 170.641 56.7969C171.068 57.1302 171.583 57.2969 172.188 57.2969C173.146 57.2969 174.026 57.0156 174.828 56.4531C175.641 55.8906 176.062 54.8646 176.094 53.375V51.7188ZM173.391 49.6406C174.214 49.5365 174.802 49.4062 175.156 49.25C175.792 48.9792 176.109 48.5573 176.109 47.9844C176.109 47.2865 175.865 46.8073 175.375 46.5469C174.896 46.276 174.188 46.1406 173.25 46.1406C172.198 46.1406 171.453 46.401 171.016 46.9219C170.703 47.3073 170.495 47.8281 170.391 48.4844H166.094C166.188 46.9948 166.604 45.7708 167.344 44.8125C168.521 43.3125 170.542 42.5625 173.406 42.5625C175.271 42.5625 176.927 42.9323 178.375 43.6719C179.823 44.4115 180.547 45.8073 180.547 47.8594V55.6719C180.547 56.2135 180.557 56.8698 180.578 57.6406C180.609 58.224 180.698 58.6198 180.844 58.8281C180.99 59.0365 181.208 59.2083 181.5 59.3438V60H176.656C176.521 59.6562 176.427 59.3333 176.375 59.0312C176.323 58.7292 176.281 58.3854 176.25 58C175.635 58.6667 174.927 59.2344 174.125 59.7031C173.167 60.2552 172.083 60.5312 170.875 60.5312C169.333 60.5312 168.057 60.0938 167.047 59.2188C166.047 58.3333 165.547 57.0833 165.547 55.4688C165.547 53.375 166.354 51.8594 167.969 50.9219C168.854 50.4115 170.156 50.0469 171.875 49.8281L173.391 49.6406Z" fill="white"/>
<path d="M189.062 60H184.609V36.9688H189.062V60Z" fill="white"/>
<path d="M191.672 46.2969V43.125H194.047V38.375H198.453V43.125H201.219V46.2969H198.453V55.2969C198.453 55.9948 198.542 56.4323 198.719 56.6094C198.896 56.776 199.438 56.8594 200.344 56.8594C200.479 56.8594 200.62 56.8594 200.766 56.8594C200.922 56.849 201.073 56.8385 201.219 56.8281V60.1562L199.109 60.2344C197.005 60.3073 195.568 59.9427 194.797 59.1406C194.297 58.6302 194.047 57.8438 194.047 56.7812V46.2969H191.672Z" fill="white"/>
<path d="M213.469 42.5312C214.521 42.5312 215.474 42.7135 216.328 43.0781C217.193 43.4427 217.901 44 218.453 44.75C218.922 45.3854 219.208 46.0417 219.312 46.7188C219.417 47.3854 219.469 48.4792 219.469 50V60H214.922V49.6406C214.922 48.724 214.766 47.9844 214.453 47.4219C214.047 46.6302 213.276 46.2344 212.141 46.2344C210.964 46.2344 210.068 46.6302 209.453 47.4219C208.849 48.2031 208.547 49.3229 208.547 50.7812V60H204.109V37.0469H208.547V45.1875C209.193 44.1979 209.938 43.5104 210.781 43.125C211.635 42.7292 212.531 42.5312 213.469 42.5312Z" fill="white"/>
<path d="M30 60C29.4324 59.9311 28.8197 59.4875 28.0877 59.0139C26.2169 57.8052 24.2959 56.676 22.439 55.439C18.4517 52.7865 14.6011 49.899 11.0672 46.6387C8.26712 44.0533 5.05859 41.3319 3.22242 37.9178C1.27377 34.2917 0.164451 29.9233 0.0156195 25.8059C-0.148788 21.2466 0.981294 16.5832 3.56681 12.8633C7.01763 7.89237 12.3236 5.69758 17.9204 6.03334C17.1434 6.50693 16.3871 7.06005 15.662 7.69092C12.2665 10.6526 10.0514 14.8938 9.11858 19.3523C8.2775 23.3849 8.30866 27.8981 9.32625 31.899C10.2885 35.67 12.7494 39.1089 14.8451 42.3162C17.4895 46.3612 20.5284 50.1235 23.7612 53.6895C25.2651 55.3524 26.8555 56.9269 28.3819 58.5686C28.9772 59.2083 29.467 59.7915 30 60Z" fill="#F9AD42"/>
<path d="M30 60C29.4789 59.7914 29.0017 59.2079 28.418 58.566C26.9256 56.9234 25.3706 55.3479 23.9002 53.6841C20.7395 50.1159 17.7683 46.3515 15.1829 42.3041C13.1339 39.0967 10.7278 35.654 9.78706 31.8807C8.79046 27.8776 8.76001 23.3617 9.58402 19.3267C10.496 14.8638 12.6618 10.622 15.9816 7.65855C16.6922 7.02554 17.4299 6.47387 18.1897 6C19.4045 6.07603 20.6329 6.27407 21.8563 6.59587C23.0847 6.91768 24.3199 7.30491 25.5178 7.75756C23.0779 9.77328 21.1033 12.4202 19.7243 15.3448C17.9815 19.0438 16.9528 23.4306 16.9832 27.5682C17.012 31.467 18.5382 35.4171 19.7751 39.0542C21.3334 43.6391 23.3351 48.0489 25.5618 52.3155C26.6007 54.3047 27.7378 56.232 28.8004 58.2053C29.2166 58.9762 29.5432 59.664 30 60Z" fill="#7CBD27"/>
<path d="M65.9927 17.6195C64.9185 16.3378 63.6831 15.2367 62.3005 14.3477C60.7551 13.3571 59.0277 12.6382 57.1427 12.2454C55.1849 10.2028 52.8615 8.67558 50.2938 7.81994C48.5543 7.24133 46.7056 6.97132 44.7842 7.05723C43.8798 7.09756 42.9581 7.21679 42.0225 7.41842C40.7751 7.69195 39.5622 8.10574 38.3997 8.6335C35.4959 9.95203 32.9005 11.9982 30.8318 14.4599C28.2122 17.5757 26.1417 21.533 25.1784 25.5184C24.2723 29.2741 24.8423 33.4611 25.1975 37.2677C25.6479 42.0736 26.5766 46.82 27.7652 51.4892C28.3178 53.6651 28.9884 55.806 29.5705 57.9714C29.7957 58.8165 29.9569 59.5564 30.3259 59.9965L30.3276 60C29.8616 59.6651 29.5254 58.9848 29.101 58.2221C28.0129 56.2653 26.8469 54.3559 25.7848 52.3816C23.5048 48.149 21.4551 43.7761 19.8594 39.2314C18.5929 35.6265 17.0301 31.7095 17.0007 27.8416C16.9695 23.7387 18.0229 19.3886 19.8074 15.7206C21.2178 12.8188 23.2397 10.194 25.7398 8.19692C25.9615 8.27933 26.1816 8.35647 26.3999 8.44063C27.6404 8.92632 28.9087 9.96431 30.2912 9.92047C31.9181 9.86787 33.1205 8.31264 34.1306 7.20802C34.3593 6.95904 34.5932 6.71533 34.8289 6.47687C35.5375 5.75974 36.2825 5.0847 37.0743 4.46401C37.4589 4.16068 37.8522 3.86962 38.2576 3.59259C41.2584 1.5394 44.7721 0.212106 48.4018 0.0227428C53.7711 -0.261302 59.1854 2.13028 62.5292 6.35764C63.1097 7.09055 63.6277 7.87956 64.0712 8.71942C64.9514 10.3834 65.5006 12.1823 65.7795 14.0391C65.9563 15.2156 66.0238 16.4149 65.9927 17.6195Z" fill="#298FFB"/>
<path d="M50.4122 7.22161C46.5682 6.62929 43.1335 7.38934 42.2047 7.59202C40.9663 7.86459 39.7624 8.27695 38.6083 8.80287C35.7257 10.1168 33.1492 12.1559 31.0956 14.609C28.4951 17.7139 26.4398 21.6574 25.4835 25.6289C24.584 29.3715 25.1498 33.544 25.5024 37.3373C25.9496 42.1265 26.8715 46.8563 28.0514 51.5092C28.6 53.6776 29.2656 55.811 29.8435 57.9688C30.0671 58.811 30.2271 59.5484 30.5934 59.9869C30.5934 59.9887 30.5951 59.9904 30.5951 59.9904C30.5951 59.9904 30.5951 59.9904 30.5969 59.9904C31.1335 60.0568 31.6305 59.7877 32.1465 58.8879C35.7463 52.6275 41.7472 48.5861 47.5365 44.6355C53.6509 40.4631 59.4677 35.908 62.9729 29.1479C63.2515 28.608 63.5164 28.0594 63.7624 27.502C64.2783 26.3278 64.7221 25.0855 65.0747 23.8048C65.6182 21.8461 65.9484 19.7966 66 17.7558C64.9336 16.4786 61.0431 8.86053 50.4122 7.22161Z" fill="#375C83"/>
</svg>
