<svg width="1529" height="778" viewBox="0 0 1529 778" fill="none" xmlns="http://www.w3.org/2000/svg">
<g filter="url(#filter0_d_8_2)">
<path d="M908.959 536.361H565.986C564.93 536.359 563.916 535.939 563.169 535.191C562.422 534.444 562.001 533.431 562 532.374V213.866C562.001 212.809 562.422 211.796 563.169 211.048C563.916 210.301 564.93 209.881 565.986 209.879H908.959C910.016 209.881 911.029 210.301 911.776 211.048C912.523 211.796 912.944 212.809 912.945 213.866V532.373C912.944 533.43 912.524 534.444 911.776 535.191C911.029 535.938 910.016 536.359 908.959 536.36V536.361Z" fill="#F1F1F1"/>
<path d="M963.023 583.99H620.051C618.994 583.989 617.981 583.569 617.234 582.821C616.486 582.074 616.066 581.061 616.064 580.004V261.496C616.066 260.439 616.486 259.426 617.234 258.678C617.981 257.931 618.994 257.511 620.051 257.509H963.023C964.08 257.511 965.093 257.931 965.84 258.678C966.588 259.426 967.008 260.439 967.01 261.496V580.003C967.008 581.06 966.588 582.074 965.841 582.821C965.093 583.568 964.08 583.989 963.023 583.99V583.99Z" fill="white"/>
<path d="M963.023 583.99H620.051C618.994 583.989 617.981 583.569 617.234 582.821C616.486 582.074 616.066 581.061 616.064 580.004V261.496C616.066 260.439 616.486 259.426 617.234 258.678C617.981 257.931 618.994 257.511 620.051 257.509H963.023C964.08 257.511 965.093 257.931 965.84 258.678C966.588 259.426 967.008 260.439 967.01 261.496V580.003C967.008 581.06 966.588 582.074 965.841 582.821C965.093 583.568 964.08 583.989 963.023 583.99V583.99ZM620.051 259.101C619.417 259.102 618.81 259.354 618.363 259.802C617.915 260.25 617.662 260.857 617.661 261.49V580.003C617.662 580.637 617.915 581.244 618.363 581.692C618.81 582.139 619.417 582.392 620.051 582.393H963.023C963.657 582.392 964.264 582.14 964.712 581.692C965.16 581.244 965.412 580.637 965.413 580.003V261.496C965.412 260.862 965.159 260.255 964.711 259.807C964.264 259.359 963.657 259.107 963.023 259.106L620.051 259.101Z" fill="#E6E6E6"/>
<path d="M709.701 385C708.984 385.001 708.297 385.287 707.791 385.794C707.284 386.302 707 386.989 707 387.706C707 388.423 707.284 389.111 707.791 389.618C708.297 390.126 708.984 390.411 709.701 390.413H858.203C858.92 390.411 859.607 390.126 860.114 389.618C860.62 389.111 860.904 388.423 860.904 387.706C860.904 386.989 860.62 386.302 860.114 385.794C859.607 385.287 858.92 385.001 858.203 385H709.701Z" fill="white"/>
<path d="M733.701 401C732.984 401.001 732.297 401.287 731.791 401.795C731.284 402.302 731 402.989 731 403.706C731 404.423 731.284 405.111 731.791 405.618C732.297 406.126 732.984 406.411 733.701 406.413H809.514C810.231 406.411 810.918 406.126 811.425 405.618C811.931 405.111 812.216 404.423 812.216 403.706C812.216 402.989 811.931 402.302 811.425 401.795C810.918 401.287 810.231 401.001 809.514 401H733.701Z" fill="white"/>
<path d="M652.701 437C651.984 437.001 651.297 437.287 650.791 437.794C650.284 438.302 650 438.989 650 439.706C650 440.423 650.284 441.111 650.791 441.618C651.297 442.126 651.984 442.411 652.701 442.413H931.143C931.86 442.411 932.547 442.126 933.054 441.618C933.56 441.111 933.845 440.423 933.845 439.706C933.845 438.989 933.56 438.302 933.054 437.794C932.547 437.287 931.86 437.001 931.143 437H652.701Z" fill="#E6E6E6"/>
<path d="M652.701 453C651.984 453.001 651.297 453.287 650.791 453.794C650.284 454.302 650 454.989 650 455.706C650 456.423 650.284 457.111 650.791 457.618C651.297 458.126 651.984 458.411 652.701 458.413H858.455C859.171 458.411 859.859 458.126 860.365 457.618C860.871 457.111 861.156 456.423 861.156 455.706C861.156 454.989 860.871 454.302 860.365 453.794C859.859 453.287 859.171 453.001 858.455 453H652.701Z" fill="#E6E6E6"/>
<path d="M652.701 469C651.984 469.001 651.297 469.287 650.791 469.795C650.284 470.302 650 470.989 650 471.706C650 472.423 650.284 473.111 650.791 473.618C651.297 474.126 651.984 474.411 652.701 474.413H931.143C931.86 474.411 932.547 474.126 933.054 473.618C933.56 473.111 933.845 472.423 933.845 471.706C933.845 470.989 933.56 470.302 933.054 469.795C932.547 469.287 931.86 469.001 931.143 469H652.701Z" fill="#E6E6E6"/>
<path d="M652.701 485C651.984 485.001 651.297 485.287 650.791 485.794C650.284 486.302 650 486.989 650 487.706C650 488.423 650.284 489.111 650.791 489.618C651.297 490.126 651.984 490.411 652.701 490.413H858.455C859.171 490.411 859.859 490.126 860.365 489.618C860.871 489.111 861.156 488.423 861.156 487.706C861.156 486.989 860.871 486.302 860.365 485.794C859.859 485.287 859.171 485.001 858.455 485H652.701Z" fill="#E6E6E6"/>
<path d="M905.586 522.047H823.986C822.929 522.045 821.916 521.625 821.169 520.878C820.422 520.13 820.001 519.117 820 518.06V504.986C820.001 503.929 820.422 502.916 821.169 502.169C821.916 501.422 822.929 501.001 823.986 501H905.586C906.643 501.001 907.656 501.422 908.403 502.169C909.151 502.916 909.571 503.929 909.572 504.986V518.06C909.571 519.117 909.151 520.13 908.403 520.878C907.656 521.625 906.643 522.045 905.586 522.047Z" fill="#557AA1"/>
<path d="M703.286 412.024C702.421 412.084 699.003 411.419 697.778 410.923C694.648 409.657 693.931 409.493 690.814 408.181C684.121 405.369 677.564 402.168 671.373 398.322C666.467 395.272 660.913 392.135 657.206 387.576C653.27 382.733 650.373 376.546 648.977 370.458C647.432 363.717 647.784 356.452 650.572 350.176C654.292 341.791 661.566 337.01 669.994 335.913C668.972 336.84 668.004 337.879 667.104 339.025C662.894 344.403 660.806 351.35 660.689 358.253C660.587 364.497 661.92 371.208 664.577 376.874C667.085 382.214 671.73 386.632 675.765 390.809C680.855 396.077 686.453 400.812 692.283 405.199C695.309 407.482 699.419 411.306 703.286 412.024Z" fill="#F9AD42"/>
<path d="M702.184 409.821C698.879 408.719 697.122 407.008 694.275 404.809C688.552 400.398 683.054 395.641 678.051 390.353C674.085 386.162 669.521 381.723 667.044 376.373C664.419 370.697 663.085 363.983 663.161 357.74C663.246 350.836 665.26 343.903 669.358 338.544C670.235 337.399 671.176 336.367 672.172 335.445C674.002 335.211 675.888 335.156 677.801 335.286C679.722 335.415 680.317 335.964 682.229 336.296C679.172 339.993 676.555 344.514 675.336 349.262C673.796 355.266 673.516 362.091 674.741 368.242C675.896 374.039 679.295 379.484 682.174 384.547C685.802 390.928 690.04 396.923 694.572 402.64C696.801 405.449 698.879 407.617 702.184 409.821Z" fill="#7CBD27"/>
<path d="M746.251 337.111C744.964 335.167 744.136 335.026 742.946 333.806C738.998 329.758 732.874 327.909 727.523 327.196C718.784 326.033 710.432 328.355 703.013 333.601C699.065 336.392 695.785 340.179 693.407 344.434C690.396 349.82 688.442 356.302 688.145 362.511C687.867 368.361 689.91 374.432 691.524 379.998C693.566 387.025 696.302 393.826 699.404 400.439C700.847 403.521 702.456 406.517 703.94 409.575C704.517 410.769 704.968 411.824 705.643 412.374L705.646 412.379C704.857 412.013 704.162 411.096 703.313 410.082C701.135 407.479 698.854 404.969 696.71 402.332C692.108 396.681 687.809 390.755 684.137 384.444C681.223 379.438 677.779 374.052 676.632 368.302C675.415 362.203 675.743 355.426 677.353 349.456C678.625 344.733 680.887 340.248 684.04 336.562C684.393 336.621 684.743 336.674 685.092 336.737C687.077 337.106 689.262 338.289 691.308 337.83C693.715 337.287 694.473 334.908 696.676 332.705C696.676 332.705 698.979 330.55 699.981 329.4C700.467 328.838 700.558 328.826 701.083 328.298C704.965 324.385 710.098 321.449 715.448 320.131C723.361 318.177 732.104 320.193 738.288 325.533C741.606 328.395 745.528 332.727 746.251 337.111Z" fill="#298FFB"/>
<path d="M720.747 329.391C714.854 329.6 709.958 331.719 708.634 332.287C706.868 333.049 705.194 334.01 703.627 335.127C699.712 337.917 696.461 341.706 694.108 345.967C691.127 351.359 690.167 356.876 689.883 363.098C689.618 368.96 691.658 375.049 693.272 380.63C695.312 387.676 698.042 394.498 701.133 401.131C702.715 404.555 702.341 404.453 704.388 408.719C704.962 409.917 705.373 411.735 706.044 412.288C707.693 410.923 708.284 410.214 708.794 408.719C712.357 398.315 719.372 392.025 726.858 384.456C734.764 376.462 742.117 367.98 745.395 356.854C745.655 355.966 745.892 355.069 746.098 354.164C746.53 352.258 746.834 350.27 746.991 348.251C747.238 345.162 747.142 341.998 746.633 338.927C744.679 337.318 737.045 328.814 720.747 329.391Z" fill="#26415E"/>
<path d="M770.266 336.182H780.325C782.486 336.182 784.329 336.507 785.852 337.158C787.376 337.81 788.541 338.773 789.348 340.049C790.169 341.312 790.579 342.875 790.579 344.737C790.579 346.156 790.318 347.406 789.797 348.487C789.277 349.567 788.541 350.479 787.59 351.221C786.64 351.95 785.507 352.517 784.192 352.92L782.708 353.643H773.665L773.626 349.756H780.403C781.575 349.756 782.551 349.548 783.333 349.131C784.114 348.714 784.7 348.148 785.09 347.432C785.494 346.703 785.696 345.882 785.696 344.971C785.696 343.981 785.501 343.122 785.11 342.393C784.732 341.651 784.146 341.084 783.352 340.694C782.558 340.29 781.549 340.088 780.325 340.088H775.169V364.619H770.266V336.182ZM786.497 364.619L779.817 351.846L784.954 351.826L791.731 364.366V364.619H786.497ZM800.032 343.487V364.619H795.305V343.487H800.032ZM794.993 337.94C794.993 337.224 795.227 336.631 795.696 336.162C796.178 335.681 796.842 335.44 797.688 335.44C798.521 335.44 799.179 335.681 799.661 336.162C800.142 336.631 800.383 337.224 800.383 337.94C800.383 338.643 800.142 339.229 799.661 339.698C799.179 340.166 798.521 340.401 797.688 340.401C796.842 340.401 796.178 340.166 795.696 339.698C795.227 339.229 794.993 338.643 794.993 337.94ZM818.723 343.487H823.001V364.033C823.001 365.935 822.597 367.549 821.79 368.877C820.982 370.205 819.856 371.214 818.411 371.905C816.965 372.608 815.292 372.959 813.391 372.959C812.584 372.959 811.685 372.842 810.696 372.608C809.719 372.373 808.769 371.996 807.844 371.475C806.933 370.967 806.171 370.297 805.559 369.463L807.766 366.69C808.521 367.588 809.355 368.246 810.266 368.662C811.178 369.079 812.135 369.287 813.137 369.287C814.218 369.287 815.136 369.086 815.891 368.682C816.659 368.291 817.252 367.712 817.669 366.944C818.085 366.175 818.294 365.238 818.294 364.131V348.272L818.723 343.487ZM804.368 354.287V353.877C804.368 352.276 804.563 350.817 804.954 349.502C805.344 348.174 805.904 347.035 806.633 346.084C807.363 345.121 808.248 344.385 809.29 343.877C810.331 343.356 811.51 343.096 812.825 343.096C814.192 343.096 815.357 343.343 816.321 343.838C817.297 344.333 818.111 345.043 818.762 345.967C819.413 346.879 819.921 347.972 820.286 349.248C820.663 350.511 820.943 351.918 821.126 353.467V354.776C820.956 356.286 820.67 357.666 820.266 358.916C819.863 360.166 819.329 361.247 818.665 362.158C818.001 363.07 817.18 363.773 816.204 364.268C815.24 364.763 814.101 365.01 812.786 365.01C811.497 365.01 810.331 364.743 809.29 364.209C808.261 363.675 807.376 362.927 806.633 361.963C805.904 361 805.344 359.867 804.954 358.565C804.563 357.25 804.368 355.824 804.368 354.287ZM809.075 353.877V354.287C809.075 355.251 809.166 356.149 809.348 356.983C809.544 357.816 809.836 358.552 810.227 359.19C810.631 359.815 811.139 360.31 811.751 360.674C812.376 361.026 813.111 361.201 813.958 361.201C815.064 361.201 815.969 360.967 816.672 360.498C817.389 360.03 817.935 359.398 818.313 358.604C818.704 357.797 818.977 356.898 819.133 355.908V352.373C819.055 351.605 818.892 350.889 818.645 350.225C818.411 349.561 818.092 348.981 817.688 348.487C817.284 347.979 816.777 347.588 816.165 347.315C815.553 347.028 814.83 346.885 813.997 346.885C813.15 346.885 812.415 347.067 811.79 347.432C811.165 347.797 810.65 348.298 810.247 348.936C809.856 349.574 809.563 350.316 809.368 351.162C809.172 352.009 809.075 352.914 809.075 353.877ZM832.532 334.619V364.619H827.844V334.619H832.532ZM831.711 353.272L830.188 353.252C830.201 351.794 830.403 350.446 830.794 349.209C831.197 347.972 831.757 346.898 832.473 345.987C833.202 345.062 834.075 344.353 835.09 343.858C836.106 343.35 837.232 343.096 838.469 343.096C839.511 343.096 840.448 343.239 841.282 343.526C842.128 343.812 842.857 344.274 843.469 344.912C844.081 345.537 844.544 346.358 844.856 347.373C845.182 348.376 845.344 349.6 845.344 351.045V364.619H840.618V351.006C840.618 349.991 840.468 349.183 840.169 348.584C839.882 347.985 839.459 347.556 838.899 347.295C838.339 347.022 837.655 346.885 836.848 346.885C836.002 346.885 835.253 347.054 834.602 347.393C833.964 347.731 833.43 348.194 833.001 348.78C832.571 349.366 832.245 350.043 832.024 350.811C831.816 351.579 831.711 352.399 831.711 353.272ZM859.797 343.487V346.924H847.883V343.487H859.797ZM851.321 338.311H856.028V358.78C856.028 359.431 856.119 359.932 856.301 360.283C856.497 360.622 856.764 360.85 857.102 360.967C857.441 361.084 857.838 361.143 858.294 361.143C858.619 361.143 858.932 361.123 859.231 361.084C859.53 361.045 859.771 361.006 859.954 360.967L859.973 364.561C859.583 364.678 859.127 364.782 858.606 364.873C858.098 364.964 857.512 365.01 856.848 365.01C855.767 365.01 854.81 364.821 853.977 364.444C853.144 364.053 852.493 363.422 852.024 362.549C851.555 361.677 851.321 360.518 851.321 359.073V338.311ZM875.286 358.897C875.286 358.428 875.169 358.005 874.934 357.627C874.7 357.237 874.251 356.885 873.586 356.573C872.935 356.26 871.972 355.974 870.696 355.713C869.576 355.466 868.547 355.173 867.61 354.834C866.685 354.483 865.891 354.06 865.227 353.565C864.563 353.07 864.049 352.484 863.684 351.807C863.32 351.13 863.137 350.349 863.137 349.463C863.137 348.604 863.326 347.79 863.704 347.022C864.081 346.254 864.622 345.576 865.325 344.991C866.028 344.405 866.881 343.942 867.883 343.604C868.899 343.265 870.032 343.096 871.282 343.096C873.053 343.096 874.57 343.395 875.833 343.994C877.109 344.58 878.085 345.381 878.762 346.397C879.439 347.399 879.778 348.532 879.778 349.795H875.071C875.071 349.235 874.928 348.714 874.641 348.233C874.368 347.738 873.951 347.341 873.391 347.041C872.831 346.729 872.128 346.573 871.282 346.573C870.475 346.573 869.804 346.703 869.27 346.963C868.749 347.211 868.359 347.536 868.098 347.94C867.851 348.343 867.727 348.786 867.727 349.268C867.727 349.619 867.792 349.938 867.922 350.225C868.066 350.498 868.3 350.752 868.626 350.987C868.951 351.208 869.394 351.416 869.954 351.612C870.527 351.807 871.243 351.996 872.102 352.178C873.717 352.517 875.103 352.953 876.262 353.487C877.434 354.007 878.333 354.685 878.958 355.518C879.583 356.338 879.895 357.38 879.895 358.643C879.895 359.58 879.693 360.44 879.29 361.221C878.899 361.989 878.326 362.66 877.571 363.233C876.816 363.793 875.911 364.229 874.856 364.541C873.814 364.854 872.642 365.01 871.34 365.01C869.426 365.01 867.805 364.672 866.477 363.994C865.149 363.304 864.14 362.425 863.45 361.358C862.773 360.277 862.434 359.157 862.434 357.998H866.985C867.037 358.871 867.278 359.567 867.708 360.088C868.15 360.596 868.697 360.967 869.348 361.201C870.012 361.423 870.696 361.533 871.399 361.533C872.245 361.533 872.955 361.423 873.528 361.201C874.101 360.967 874.537 360.655 874.836 360.264C875.136 359.86 875.286 359.405 875.286 358.897ZM776.165 404.619H771.458V381.455C771.458 379.88 771.751 378.558 772.336 377.491C772.935 376.41 773.788 375.596 774.895 375.049C776.002 374.489 777.31 374.209 778.821 374.209C779.29 374.209 779.752 374.242 780.208 374.307C780.663 374.359 781.106 374.444 781.536 374.561L781.419 378.194C781.158 378.129 780.872 378.083 780.559 378.057C780.26 378.031 779.934 378.018 779.583 378.018C778.866 378.018 778.248 378.155 777.727 378.428C777.219 378.688 776.829 379.073 776.555 379.58C776.295 380.088 776.165 380.713 776.165 381.455V404.619ZM780.52 383.487V386.924H768.215V383.487H780.52ZM783.04 394.287V393.838C783.04 392.315 783.261 390.902 783.704 389.6C784.146 388.285 784.784 387.145 785.618 386.182C786.464 385.205 787.493 384.45 788.704 383.916C789.928 383.369 791.308 383.096 792.844 383.096C794.394 383.096 795.774 383.369 796.985 383.916C798.209 384.45 799.244 385.205 800.09 386.182C800.937 387.145 801.581 388.285 802.024 389.6C802.467 390.902 802.688 392.315 802.688 393.838V394.287C802.688 395.811 802.467 397.224 802.024 398.526C801.581 399.828 800.937 400.967 800.09 401.944C799.244 402.907 798.215 403.662 797.004 404.209C795.794 404.743 794.42 405.01 792.883 405.01C791.334 405.01 789.947 404.743 788.723 404.209C787.512 403.662 786.484 402.907 785.637 401.944C784.791 400.967 784.146 399.828 783.704 398.526C783.261 397.224 783.04 395.811 783.04 394.287ZM787.747 393.838V394.287C787.747 395.238 787.844 396.136 788.04 396.983C788.235 397.829 788.541 398.571 788.958 399.209C789.374 399.847 789.908 400.349 790.559 400.713C791.21 401.078 791.985 401.26 792.883 401.26C793.756 401.26 794.511 401.078 795.149 400.713C795.8 400.349 796.334 399.847 796.751 399.209C797.167 398.571 797.473 397.829 797.669 396.983C797.877 396.136 797.981 395.238 797.981 394.287V393.838C797.981 392.901 797.877 392.015 797.669 391.182C797.473 390.336 797.161 389.587 796.731 388.936C796.314 388.285 795.78 387.777 795.129 387.412C794.491 387.035 793.73 386.846 792.844 386.846C791.959 386.846 791.191 387.035 790.54 387.412C789.902 387.777 789.374 388.285 788.958 388.936C788.541 389.587 788.235 390.336 788.04 391.182C787.844 392.015 787.747 392.901 787.747 393.838ZM811.36 387.51V404.619H806.653V383.487H811.145L811.36 387.51ZM817.825 383.35L817.786 387.725C817.499 387.673 817.187 387.634 816.848 387.608C816.523 387.582 816.197 387.569 815.872 387.569C815.064 387.569 814.355 387.686 813.743 387.92C813.131 388.142 812.616 388.467 812.2 388.897C811.796 389.313 811.484 389.821 811.262 390.42C811.041 391.019 810.911 391.69 810.872 392.432L809.797 392.51C809.797 391.182 809.928 389.951 810.188 388.819C810.448 387.686 810.839 386.69 811.36 385.83C811.894 384.971 812.558 384.3 813.352 383.819C814.159 383.337 815.09 383.096 816.145 383.096C816.432 383.096 816.738 383.122 817.063 383.174C817.402 383.226 817.655 383.285 817.825 383.35ZM840.032 388.057V391.944H824.934V388.057H840.032ZM826.145 376.182V404.619H821.243V376.182H826.145ZM843.801 376.182V404.619H838.919V376.182H843.801ZM858.489 405.01C856.926 405.01 855.514 404.756 854.251 404.248C853.001 403.728 851.933 403.005 851.047 402.08C850.175 401.156 849.504 400.069 849.036 398.819C848.567 397.569 848.333 396.221 848.333 394.776V393.994C848.333 392.341 848.573 390.843 849.055 389.502C849.537 388.161 850.208 387.015 851.067 386.065C851.926 385.101 852.942 384.366 854.114 383.858C855.286 383.35 856.555 383.096 857.922 383.096C859.433 383.096 860.754 383.35 861.887 383.858C863.02 384.366 863.958 385.082 864.7 386.006C865.455 386.918 866.015 388.005 866.379 389.268C866.757 390.531 866.946 391.924 866.946 393.448V395.459H850.618V392.08H862.297V391.709C862.271 390.863 862.102 390.069 861.79 389.326C861.49 388.584 861.028 387.985 860.403 387.53C859.778 387.074 858.945 386.846 857.903 386.846C857.122 386.846 856.425 387.015 855.813 387.354C855.214 387.679 854.713 388.155 854.309 388.78C853.905 389.405 853.593 390.16 853.372 391.045C853.163 391.918 853.059 392.901 853.059 393.994V394.776C853.059 395.7 853.183 396.56 853.43 397.354C853.691 398.135 854.068 398.819 854.563 399.405C855.058 399.991 855.657 400.453 856.36 400.791C857.063 401.117 857.864 401.28 858.762 401.28C859.895 401.28 860.904 401.052 861.79 400.596C862.675 400.14 863.443 399.496 864.094 398.662L866.575 401.065C866.119 401.729 865.527 402.367 864.797 402.979C864.068 403.578 863.176 404.066 862.122 404.444C861.08 404.821 859.869 405.01 858.489 405.01ZM882.532 400.381V390.303C882.532 389.548 882.395 388.897 882.122 388.35C881.848 387.803 881.432 387.38 880.872 387.08C880.325 386.781 879.635 386.631 878.801 386.631C878.033 386.631 877.369 386.761 876.809 387.022C876.249 387.282 875.813 387.634 875.501 388.076C875.188 388.519 875.032 389.02 875.032 389.58H870.344C870.344 388.747 870.546 387.94 870.95 387.158C871.353 386.377 871.939 385.681 872.708 385.069C873.476 384.457 874.394 383.975 875.461 383.623C876.529 383.272 877.727 383.096 879.055 383.096C880.644 383.096 882.05 383.363 883.274 383.897C884.511 384.431 885.481 385.238 886.184 386.319C886.9 387.386 887.258 388.728 887.258 390.342V399.737C887.258 400.7 887.323 401.566 887.454 402.334C887.597 403.089 887.799 403.747 888.059 404.307V404.619H883.235C883.014 404.112 882.838 403.467 882.708 402.686C882.59 401.892 882.532 401.123 882.532 400.381ZM883.215 391.768L883.254 394.678H879.876C879.003 394.678 878.235 394.763 877.571 394.932C876.907 395.088 876.353 395.323 875.911 395.635C875.468 395.948 875.136 396.325 874.915 396.768C874.693 397.211 874.583 397.712 874.583 398.272C874.583 398.832 874.713 399.346 874.973 399.815C875.234 400.27 875.611 400.629 876.106 400.889C876.614 401.149 877.226 401.28 877.942 401.28C878.905 401.28 879.745 401.084 880.461 400.694C881.191 400.29 881.764 399.802 882.18 399.229C882.597 398.643 882.818 398.089 882.844 397.569L884.368 399.658C884.211 400.192 883.945 400.765 883.567 401.377C883.189 401.989 882.695 402.575 882.083 403.135C881.484 403.682 880.761 404.131 879.915 404.483C879.081 404.834 878.118 405.01 877.024 405.01C875.644 405.01 874.413 404.737 873.333 404.19C872.252 403.63 871.405 402.881 870.794 401.944C870.182 400.993 869.876 399.919 869.876 398.721C869.876 397.601 870.084 396.612 870.501 395.752C870.93 394.88 871.555 394.151 872.376 393.565C873.209 392.979 874.225 392.536 875.422 392.237C876.62 391.924 877.988 391.768 879.524 391.768H883.215ZM897.219 374.619V404.619H892.493V374.619H897.219ZM912.063 383.487V386.924H900.149V383.487H912.063ZM903.586 378.311H908.294V398.78C908.294 399.431 908.385 399.932 908.567 400.283C908.762 400.622 909.029 400.85 909.368 400.967C909.706 401.084 910.103 401.143 910.559 401.143C910.885 401.143 911.197 401.123 911.497 401.084C911.796 401.045 912.037 401.006 912.219 400.967L912.239 404.561C911.848 404.678 911.392 404.782 910.872 404.873C910.364 404.964 909.778 405.01 909.114 405.01C908.033 405.01 907.076 404.821 906.243 404.444C905.409 404.053 904.758 403.422 904.29 402.549C903.821 401.677 903.586 400.518 903.586 399.073V378.311ZM920.344 374.619V404.619H915.657V374.619H920.344ZM919.524 393.272L918.001 393.252C918.014 391.794 918.215 390.446 918.606 389.209C919.01 387.972 919.57 386.898 920.286 385.987C921.015 385.062 921.887 384.353 922.903 383.858C923.919 383.35 925.045 383.096 926.282 383.096C927.323 383.096 928.261 383.239 929.094 383.526C929.941 383.812 930.67 384.274 931.282 384.912C931.894 385.537 932.356 386.358 932.669 387.373C932.994 388.376 933.157 389.6 933.157 391.045V404.619H928.43V391.006C928.43 389.991 928.28 389.183 927.981 388.584C927.695 387.985 927.271 387.556 926.711 387.295C926.152 387.022 925.468 386.885 924.661 386.885C923.814 386.885 923.066 387.054 922.415 387.393C921.777 387.731 921.243 388.194 920.813 388.78C920.383 389.366 920.058 390.043 919.836 390.811C919.628 391.579 919.524 392.399 919.524 393.272Z" fill="#555555"/>
<path d="M560.299 335.301L336.612 223.396L338.09 220.571L561.776 332.476L560.299 335.301Z" fill="#E5E5E5"/>
<path d="M4 166.618C4.00772 197.324 12.6832 227.431 29.0704 253.622C45.4576 279.812 68.9201 301.07 96.8721 315.051C98.3156 315.781 99.7764 316.495 101.237 317.162C102.096 317.574 102.957 317.955 103.816 318.336C105.926 319.272 108.067 320.177 110.225 321.018C117.901 324.087 125.804 326.586 133.865 328.492C135.001 328.777 136.169 329.031 137.321 329.285C140.225 329.92 143.151 330.47 146.098 330.935C162.187 333.57 178.577 333.944 194.773 332.046C198.132 331.665 201.463 331.179 204.768 330.586C206.342 330.301 207.916 329.999 209.473 329.682C209.684 329.634 209.895 329.587 210.106 329.555C215.697 328.404 221.221 326.963 226.655 325.239C229.576 324.318 232.481 323.334 235.32 322.255C236.796 321.7 238.256 321.129 239.7 320.542C240.414 320.256 241.128 319.955 241.826 319.653C270.063 307.748 294.479 288.591 312.486 264.213C330.493 239.835 341.418 211.146 344.104 181.188C346.79 151.229 341.136 121.118 327.741 94.0479C314.347 66.9776 293.712 43.9571 268.024 27.4275C242.336 10.898 212.553 1.47563 181.833 0.159646C151.113 -1.15634 120.602 5.68313 93.5348 19.9527C66.4675 34.2223 43.8533 55.3901 28.0902 81.2113C12.3271 107.033 4.00278 136.545 4 166.618Z" fill="#F1F1F1"/>
<path d="M68.5979 106.022C74.2004 87.3305 86.9406 70.187 104.56 63.8681C122.18 57.5492 147.981 67.1749 161.228 80.9957C185.458 106.277 191.371 193.125 174.724 220.571C171.413 220.387 159.987 220.252 156.636 220.12L151.895 203.578V219.957C146.556 219.784 141.175 219.665 135.752 219.599C117.571 219.363 100.185 211.757 87.2495 198.379C74.3142 185.002 66.8369 166.895 66.3897 147.866C65.9559 129.661 66.3901 113.389 68.5979 106.022Z" fill="#3F3D56"/>
<path d="M128.932 168.205C150.367 168.205 167.742 150.088 167.742 127.741C167.742 105.393 150.367 87.2762 128.932 87.2762C107.498 87.2762 90.1222 105.393 90.1222 127.741C90.1222 150.088 107.498 168.205 128.932 168.205Z" fill="#9E616A"/>
<path d="M96.093 91.954L140.168 68.2341C149.179 72.5983 156.94 79.4739 162.645 88.148C168.35 96.8221 171.792 106.979 172.615 117.564L173.713 131.708L155.257 126.658L153.235 108.573L150.1 125.247L141.583 122.918L141.664 94.8415L133.141 122.898L102.72 115.386L96.093 91.954Z" fill="#3F3D56"/>
<path d="M203.567 228.565C185.083 251.548 159.069 265.667 131.142 267.873C103.215 270.078 75.6137 260.194 54.2974 240.353L63.4487 212.449C65.5167 207.493 68.7802 203.245 72.8893 200.162C76.9984 197.078 81.798 195.275 86.7735 194.946L92.5954 194.555L106.477 181.471C106.477 181.471 143.882 180.012 143.327 179.313L165.984 194.206L165.965 194.103L174.872 194.699C179.848 195.027 184.648 196.829 188.757 199.913C192.867 202.997 196.13 207.245 198.197 212.202L203.567 228.565Z" fill="#557AA1"/>
<path d="M315.52 151.021C315.52 150.877 315.52 150.733 315.52 150.589C315.225 144.945 310.462 140.453 304.618 140.453C299.904 140.453 295.902 143.359 294.379 147.442L286.473 146.674C286.473 146.602 286.473 146.53 286.473 146.458C286.473 136.635 281.563 127.94 274 122.585L280.801 111.369C281.759 111.633 282.79 111.801 283.846 111.801C289.862 111.801 294.748 107.022 294.748 101.137C294.748 101.113 294.748 101.113 294.748 101.089C294.748 101.065 294.748 101.065 294.748 101.041C294.748 95.1812 289.911 90.4499 283.895 90.4499H283.871H283.846C277.831 90.4499 272.944 95.2293 272.944 101.113C272.944 104.044 274.172 106.709 276.136 108.655L269.335 119.847C265.407 117.997 260.987 116.965 256.322 116.965C248.661 116.965 241.688 119.751 236.385 124.338L233.193 121.408C234.052 119.871 234.543 118.118 234.543 116.244C234.543 110.36 229.657 105.581 223.642 105.581H223.617H223.593C217.602 105.581 212.74 110.312 212.74 116.172C212.74 116.196 212.74 116.196 212.74 116.22C212.74 116.244 212.74 116.244 212.74 116.268C212.74 122.152 217.626 126.932 223.642 126.932C225.778 126.932 227.767 126.331 229.461 125.299L232.628 128.229C228.577 133.248 226.171 139.589 226.171 146.458C226.171 148.787 226.441 151.069 226.981 153.254L215.539 157.001C213.6 154.047 210.211 152.102 206.356 152.102C200.341 152.102 195.455 156.881 195.455 162.765V162.789V162.813C195.455 168.673 200.292 173.405 206.283 173.405C206.307 173.405 206.307 173.405 206.332 173.405C206.356 173.405 206.356 173.405 206.381 173.405C212.396 173.405 217.282 168.625 217.282 162.741C217.282 162.501 217.282 162.261 217.258 162.045L228.724 158.298C233.389 168.673 243.996 175.927 256.322 175.927C257.697 175.927 259.047 175.83 260.373 175.662L262.141 183.18C258.655 184.957 256.248 188.535 256.248 192.642C256.248 198.527 261.134 203.306 267.15 203.306C267.911 203.306 268.623 203.234 269.335 203.09C274.319 202.105 278.051 197.782 278.051 192.642C278.051 186.854 273.313 182.123 267.42 181.979L265.652 174.461C275.964 171.171 283.846 162.573 285.908 151.958L293.815 152.726C294.625 157.842 299.143 161.756 304.593 161.756C310.437 161.756 315.2 157.265 315.495 151.621C315.495 151.429 315.52 151.261 315.52 151.069C315.52 151.093 315.52 151.069 315.52 151.021ZM275.498 161.252C275.228 159.403 274.344 157.409 271.962 156.833C267.174 155.632 263.271 152.966 263.271 152.966L260.226 162.381L259.661 164.158V164.134L259.17 165.623L257.574 161.18C261.527 155.8 256.788 155.848 256.518 155.872C256.248 155.872 251.51 155.8 255.463 161.18L253.867 165.623L253.376 164.134V164.158L252.811 162.381L249.766 152.966C249.766 152.966 245.862 155.656 241.074 156.833C238.644 157.433 237.784 159.499 237.539 161.396C234.175 157.313 232.162 152.126 232.162 146.482C232.162 133.32 243.063 122.681 256.494 122.681C269.949 122.681 280.826 133.344 280.826 146.482C280.752 152.054 278.788 157.193 275.498 161.252Z" fill="#F9AD42"/>
<path d="M265.382 140.285C265.529 139.877 265.652 139.445 265.726 139.036C267.052 131.207 263.123 130.943 263.123 130.943C263.123 130.943 262.46 129.718 260.742 128.781C259.588 128.109 257.992 127.604 255.855 127.772C255.168 127.796 254.53 127.94 253.916 128.133C253.13 128.397 252.418 128.757 251.78 129.213C250.994 129.694 250.233 130.294 249.57 130.991C248.539 132.023 247.606 133.392 247.188 135.074C246.844 136.322 246.918 137.643 247.213 139.06C247.286 139.469 247.409 139.877 247.556 140.309C246.771 140.237 245.838 140.694 246.722 143.696C247.36 145.905 247.949 146.53 248.416 146.554C248.833 149.172 250.896 152.534 254.309 153.687C255.708 154.167 257.23 154.167 258.63 153.687C261.994 152.51 264.13 149.172 264.547 146.554C264.989 146.53 265.603 145.905 266.241 143.696C267.101 140.67 266.168 140.213 265.382 140.285Z" fill="#F9AD42"/>
<path d="M560.302 435L336.614 546.905L338.092 549.73L561.78 437.825L560.302 435Z" fill="#E5E5E5"/>
<path d="M4.68735 601.65C4.69504 570.754 13.3531 540.461 29.7073 514.108C46.0616 487.755 69.477 466.366 97.3728 452.298C98.8133 451.563 100.271 450.845 101.728 450.174C102.586 449.759 103.445 449.376 104.303 448.993C106.408 448.051 108.545 447.141 110.699 446.294C118.36 443.206 126.246 440.692 134.291 438.774C135.425 438.487 136.59 438.231 137.74 437.976C140.638 437.337 143.558 436.784 146.5 436.315C162.556 433.664 178.913 433.288 195.077 435.198C198.429 435.581 201.754 436.07 205.052 436.666C206.622 436.954 208.193 437.257 209.748 437.577C209.958 437.624 210.168 437.672 210.379 437.704C215.959 438.862 221.472 440.312 226.895 442.047C229.81 442.973 232.709 443.963 235.542 445.049C237.015 445.608 238.472 446.183 239.914 446.773C240.626 447.061 241.338 447.364 242.035 447.667C270.215 459.646 294.583 478.922 312.553 503.451C330.524 527.979 341.427 556.846 344.107 586.99C346.788 617.134 341.145 647.432 327.778 674.67C314.41 701.908 293.817 725.071 268.18 741.703C242.544 758.335 212.821 767.815 182.163 769.139C151.505 770.463 121.055 763.582 94.0421 749.224C67.0292 734.866 44.4605 713.567 28.7291 687.586C12.9977 661.605 4.69012 631.91 4.68735 601.65Z" fill="#F1F1F1"/>
<path d="M131.277 603.289C152.269 603.289 169.285 584.977 169.285 562.389C169.285 539.8 152.269 521.488 131.277 521.488C110.286 521.488 93.2694 539.8 93.2694 562.389C93.2694 584.977 110.286 603.289 131.277 603.289Z" fill="#FFB8B8"/>
<path d="M210.059 667.929C191.574 690.562 165.561 704.465 137.633 706.637C109.705 708.809 82.1042 699.075 60.7878 679.538L69.9391 652.059C72.0071 647.179 75.2707 642.996 79.3798 639.96C83.4889 636.923 88.2886 635.148 93.2641 634.823L99.086 634.439L112.968 621.555C112.968 621.555 150.373 620.117 149.818 619.429L172.475 634.095L172.456 633.993L181.363 634.58C186.339 634.903 191.139 636.678 195.249 639.715C199.358 642.751 202.621 646.935 204.688 651.816L210.059 667.929Z" fill="#557AA1"/>
<path d="M171.377 548.045C171.643 544.991 171.765 541.925 171.743 538.858C171.898 532.792 170.865 526.759 168.712 521.151C166.063 514.942 161.34 510.032 155.482 507.398C149.675 504.878 143.186 504.884 137.384 507.415C132.145 503.853 126.324 501.03 120.194 500.68C114.064 500.33 107.583 502.777 103.806 508.164C102.962 509.586 102.004 510.926 100.942 512.167C97.9058 515.193 93.2911 514.757 89.255 514.138C91.0652 515.808 92.876 517.477 94.6872 519.147C92.4959 519.763 90.3044 520.379 88.1127 520.995C90.6701 522.664 93.2272 524.333 95.7842 526.002C88.3603 530.797 84.986 541.263 85.8774 550.768C86.7206 559.767 90.7581 567.996 95.5845 575.311C97.5098 570.939 97.095 565.707 97.0632 560.783C97.0456 559.185 97.1361 557.589 97.3342 556.006C113.645 560.213 130.689 562.914 147.972 556.231L151.441 547.096C151.928 547.15 152.415 547.201 152.901 547.256L154.911 556.24C159.467 558.244 164.032 559.995 168.599 558.155C168.821 559.542 168.955 560.958 169.058 562.319C169.45 560.691 169.79 559.051 170.097 557.405C170.7 557.056 171.278 556.659 171.826 556.216C171.936 553.483 171.786 550.745 171.377 548.045Z" fill="#2F2E41"/>
<path d="M282.056 617.979C278.871 616.017 282.105 618.005 282.056 617.979H213.295H205.191C200.61 617.979 197.079 616.998 197.079 612.168V606.796H203.766L207.625 606.965V579.264V551.395C207.625 547.03 209.155 546.665 213.295 546.665H248.999H269.28H289.561C293.701 546.665 294.429 547.03 294.429 551.395V564.412V575.725C291.933 575.714 294.406 575.725 293.966 575.725C291.124 575.725 290.311 575.957 288.474 576.241C287.91 575.26 287.322 574.278 286.734 573.297V554.313H214.348V606.848H240.486V607.39C240.486 609.043 241.759 610.386 243.327 610.386H257.682C259.25 610.386 260.523 609.043 260.523 607.39V606.848H265.766C267.652 607.984 269.538 609.353 271.498 611.032C272.012 611.497 272.649 611.962 273.286 612.478C273.972 612.995 274.658 613.537 275.123 614.002C277.597 616.301 280.145 617.334 282.056 617.979ZM315.86 606.873C315.566 605.814 315.052 604.213 314.758 602.328C314.513 595.122 311.696 587.425 310.618 584.636C310.398 583.887 309.859 583.422 309.222 583.137C297.317 578.721 286.097 581.872 286.097 581.872L284.505 579.237C283.256 577.042 281.933 574.95 280.684 572.755C279.263 570.353 277.94 568.028 276.519 565.729C275.515 564.076 273.629 563.56 272.086 564.412C270.542 565.368 269.954 567.15 270.738 568.984C274.168 577.378 277.622 585.643 280.855 594.011C281.149 594.967 281.443 595.922 281.443 596.955C281.419 598.996 280.978 600.701 279.214 599.771C277.181 598.712 272.821 595.767 271.767 595.561C270.077 595.07 268.24 594.76 266.427 595.483C265.619 595.793 264.639 596.723 264.271 597.498C263.536 599.048 263.806 600.106 265.3 600.804C268.632 602.405 271.718 604.601 274.584 607.08C275.662 608.01 277.303 609.12 278.357 610.179C279.949 611.703 281.615 612.504 283.501 613.124C283.501 613.124 290.923 615.603 296.582 621.26C298.443 623.119 301.236 623.326 303.318 621.905L315.958 613.175C317.012 612.375 317.452 610.877 316.914 609.585L315.86 606.873Z" fill="#F9AD42"/>
<path d="M1524.78 571.65C1524.74 598.664 1518.1 625.271 1505.43 649.22C1492.75 673.168 1474.41 693.754 1451.96 709.235C1451.54 709.522 1451.12 709.809 1450.7 710.081C1448.24 711.757 1445.73 713.37 1443.15 714.887C1441.52 715.877 1439.85 716.835 1438.18 717.777C1436.17 718.894 1434.15 719.964 1432.09 721.002C1431.62 721.242 1431.15 721.481 1430.67 721.705C1428.95 722.567 1427.22 723.397 1425.45 724.18C1425.36 724.227 1425.26 724.259 1425.16 724.307C1424.58 724.563 1423.98 724.834 1423.36 725.09C1419.56 726.75 1415.67 728.283 1411.71 729.656C1411.43 729.768 1411.14 729.864 1410.85 729.959C1401.76 733.106 1392.42 735.457 1382.91 736.985C1381.12 737.304 1379.3 737.56 1377.49 737.799C1377.2 737.847 1376.89 737.895 1376.6 737.927C1374.12 738.246 1371.63 738.502 1369.12 738.709C1368.83 738.741 1368.54 738.757 1368.24 738.773C1366.37 738.933 1364.47 739.044 1362.56 739.124C1359.97 739.236 1357.38 739.3 1354.76 739.3C1351.08 739.3 1347.43 739.188 1343.79 738.965C1340.64 738.757 1337.49 738.486 1334.38 738.102C1332.49 737.879 1330.6 737.623 1328.73 737.336C1326.68 737.033 1324.62 736.681 1322.6 736.298C1321.59 736.107 1320.59 735.899 1319.58 735.691C1319.42 735.66 1319.24 735.628 1319.08 735.596C1317.46 735.26 1315.86 734.909 1314.27 734.51C1307.98 733.013 1301.78 731.146 1295.72 728.922C1293.64 728.155 1291.59 727.357 1289.55 726.527C1288.92 726.271 1288.28 726 1287.67 725.728C1286.55 725.265 1285.45 724.77 1284.35 724.275C1283.52 723.908 1282.7 723.525 1281.87 723.142C1280.12 722.343 1278.41 721.497 1276.69 720.619C1275.31 719.932 1273.94 719.198 1272.59 718.463C1272.56 718.447 1272.54 718.431 1272.51 718.415C1246.27 704.118 1224.33 683.233 1208.91 657.876C1193.49 632.52 1185.15 603.595 1184.72 574.034C1184.3 544.473 1191.81 515.326 1206.49 489.55C1221.18 463.774 1242.51 442.285 1268.34 427.262C1294.16 412.238 1323.55 404.214 1353.53 404.004C1383.52 403.794 1413.02 411.405 1439.06 426.065C1465.1 440.725 1486.74 461.913 1501.79 487.48C1516.85 513.048 1524.78 542.086 1524.78 571.65Z" fill="#F1F1F1"/>
<path d="M968.474 421.338L967 424.18L1190.26 536.745L1191.73 533.903L968.474 421.338Z" fill="#E5E5E5"/>
<path d="M1367.03 568.998C1360.84 568.568 1354.62 569.342 1348.75 571.275C1342.87 573.207 1337.45 576.259 1332.81 580.25C1328.16 584.242 1324.39 589.093 1321.71 594.518C1319.02 599.944 1317.49 605.834 1317.19 611.844L1314.25 661.856C1316.11 662.794 1317.98 663.699 1319.88 664.552C1320.78 664.961 1321.67 665.371 1322.57 665.763C1323.77 666.292 1324.97 666.821 1326.18 667.316C1326.85 667.606 1327.53 667.896 1328.22 668.169C1330.44 669.057 1332.67 669.91 1334.93 670.729C1341.52 673.107 1348.26 675.101 1355.1 676.701C1356.82 677.128 1358.56 677.503 1360.32 677.861C1360.5 677.895 1360.69 677.929 1360.87 677.964C1361.96 678.185 1363.05 678.407 1364.14 678.612L1367.87 569.049L1367.03 568.998Z" fill="#2F2E41"/>
<path d="M1414.7 681.189C1417.43 680.967 1420.14 680.694 1422.83 680.353C1423.15 680.318 1423.49 680.267 1423.8 680.216C1425.77 679.96 1427.74 679.687 1429.7 679.346C1429.86 674.722 1429.8 671.394 1429.8 670.985L1438.55 582.614L1420.32 572.308L1416.76 570.295L1361.64 568.571L1361.18 568.947L1334.72 591.197L1326.18 667.316C1326.85 667.606 1327.53 667.896 1328.22 668.169C1330.44 669.057 1332.67 669.91 1334.93 670.729C1341.52 673.106 1348.26 675.101 1355.1 676.701C1356.82 677.128 1358.56 677.503 1360.32 677.861C1360.5 677.895 1360.69 677.929 1360.87 677.964C1361.96 678.185 1363.05 678.407 1364.14 678.612C1366.34 679.022 1368.58 679.397 1370.81 679.721C1372.84 680.028 1374.89 680.301 1376.95 680.54C1380.33 680.95 1383.75 681.24 1387.18 681.462C1391.12 681.7 1395.09 681.82 1399.09 681.82C1401.94 681.82 1404.76 681.752 1407.58 681.632C1409.65 681.547 1411.71 681.427 1413.75 681.257L1414.7 681.189Z" fill="#557AA1"/>
<path d="M1451.57 590.225L1420.35 571.728L1420.32 572.308L1414.7 681.189C1417.43 680.967 1420.14 680.694 1422.83 680.353C1423.15 680.318 1423.49 680.267 1423.8 680.216C1425.77 679.96 1427.74 679.687 1429.7 679.346C1440.02 677.713 1450.18 675.201 1460.06 671.838C1460.37 671.736 1460.69 671.633 1460.99 671.514L1463.21 610.462C1463.36 606.38 1462.36 602.335 1460.31 598.767C1458.26 595.199 1455.24 592.245 1451.57 590.225Z" fill="#2F2E41"/>
<path d="M1383.05 556.787C1404.44 556.787 1421.78 539.974 1421.78 519.234C1421.78 498.494 1404.44 481.681 1383.05 481.681C1361.66 481.681 1344.31 498.494 1344.31 519.234C1344.31 539.974 1361.66 556.787 1383.05 556.787Z" fill="#9F616A"/>
<path d="M1369.04 463.784C1408.05 452.878 1419.12 484.225 1419.12 484.225C1437.93 496.319 1426.15 511.483 1426.15 511.483C1430.9 512.504 1421.41 539.423 1418.25 538.742C1416.56 538.378 1412.22 543.401 1408.54 548.164C1407.28 548.163 1406.02 548.28 1404.78 548.515L1411.92 522.898C1411.92 522.898 1387.85 519.322 1380.47 508.079C1373.41 497.322 1350.16 493.925 1343.54 501.111C1343.15 499.045 1342.35 497.072 1341.18 495.303C1340.28 493.958 1339.1 492.81 1337.72 491.931C1343.56 467.831 1369.04 463.784 1369.04 463.784Z" fill="#2F2E41"/>
<path opacity="0.2" d="M1413.75 681.257C1411.71 681.427 1409.65 681.547 1407.58 681.632L1413 652.761V654.758L1413.75 681.257Z" fill="black"/>
<path d="M1263.06 539.268V533.564C1259.38 529.038 1256.88 523.023 1252.66 519.216C1247.86 514.894 1241.96 513.336 1236.18 514.42C1231.2 515.354 1225.6 516.845 1220.73 514.582C1220.29 514.379 1219.87 514.921 1220.04 515.463C1221.52 520.191 1227.4 534.648 1243.61 536.233C1255.64 537.411 1260.49 538.265 1263.06 539.268Z" fill="#F9AD42"/>
<path d="M1317.94 514.596C1313.06 516.858 1307.46 515.368 1302.48 514.433C1296.7 513.349 1290.8 514.907 1286 519.229C1281.78 523.023 1279.28 529.038 1275.6 533.577V539.281C1278.17 538.279 1283.02 537.411 1295.05 536.233C1311.25 534.648 1317.13 520.191 1318.63 515.476C1318.8 514.934 1318.37 514.392 1317.94 514.596Z" fill="#F9AD42"/>
<path d="M1264.94 528.158C1265.48 528.795 1266.12 529.323 1266.81 529.689V557.924L1264.94 556.8L1263.06 555.675L1254.5 550.567H1260.65C1261.72 550.567 1262.63 549.687 1262.95 548.467C1263.04 548.156 1263.08 547.83 1263.08 547.492V544.457C1263.08 544.118 1263.04 543.779 1262.95 543.481C1262.63 542.262 1261.72 541.381 1260.65 541.381H1250.15C1248.8 541.381 1247.72 542.763 1247.72 544.457V554.645C1247.72 555.865 1248.29 556.962 1249.15 557.45L1261.01 564.197L1253.7 569.725C1252.96 570.281 1252.51 571.283 1252.51 572.367V573.776C1252.51 574.968 1253.05 576.052 1253.91 576.567L1261.57 581.119L1256.57 584.656C1255.8 585.198 1255.33 586.227 1255.33 587.338V588.815C1255.33 589.994 1255.86 591.078 1256.7 591.592L1261.98 594.831L1257.19 599.031C1256.54 599.6 1256.14 600.548 1256.14 601.564V603.515C1256.14 604.762 1256.74 605.886 1257.65 606.36L1262.11 608.691L1260.26 611.007C1259.8 611.59 1259.55 612.362 1259.55 613.189C1259.55 614.408 1260.11 615.506 1260.98 615.993L1261.39 616.224C1261.92 616.522 1262.5 616.576 1263.05 616.373C1263.19 616.319 1263.33 616.251 1263.47 616.17L1264.93 615.248L1266.8 614.07V621.399C1266.8 623.052 1267.85 624.38 1269.16 624.38H1269.47C1270.78 624.38 1271.83 623.052 1271.83 621.399V614.097L1273.7 615.275L1275.16 616.183C1275.29 616.264 1275.43 616.332 1275.58 616.386C1276.12 616.59 1276.71 616.535 1277.24 616.237L1277.65 616.007C1278.52 615.506 1279.08 614.408 1279.08 613.202C1279.08 612.39 1278.82 611.604 1278.36 611.021L1276.55 608.691L1281.01 606.36C1281.92 605.886 1282.52 604.762 1282.52 603.515V601.551C1282.52 600.535 1282.14 599.6 1281.47 599.017L1276.68 594.817L1281.96 591.579C1282.8 591.064 1283.34 589.994 1283.34 588.802V587.325C1283.34 586.214 1282.86 585.184 1282.09 584.642L1277.09 581.12L1284.75 576.567C1285.61 576.066 1286.15 574.968 1286.15 573.776V572.367C1286.15 571.283 1285.7 570.281 1284.96 569.725L1277.65 564.197L1289.52 557.464C1290.4 556.962 1290.95 555.865 1290.95 554.659V544.471C1290.95 542.764 1289.86 541.395 1288.52 541.395L1278.03 541.355C1276.96 541.355 1276.05 542.235 1275.73 543.455C1275.64 543.766 1275.6 544.091 1275.6 544.444V547.478C1275.6 547.817 1275.64 548.156 1275.73 548.468C1276.05 549.687 1276.96 550.568 1278.03 550.568L1284.16 550.608L1275.59 555.689L1273.71 556.813L1271.84 557.938V529.689C1272.53 529.31 1273.17 528.795 1273.71 528.158C1274.61 527.101 1275.28 525.706 1275.59 524.148C1275.72 523.511 1275.78 522.861 1275.78 522.17C1275.78 521.492 1275.72 520.828 1275.59 520.192C1275.43 519.392 1275.18 518.634 1274.85 517.943C1273.71 515.585 1271.67 514 1269.32 514C1266.97 514 1264.93 515.572 1263.79 517.943C1263.46 518.634 1263.21 519.392 1263.05 520.192C1262.92 520.828 1262.86 521.479 1262.86 522.17C1262.86 522.847 1262.92 523.511 1263.05 524.148C1263.37 525.706 1264.04 527.088 1264.94 528.158ZM1266.81 590.59L1263.04 588.043L1266.81 585.495V590.59ZM1261.56 572.814L1266.81 569.454V576.174L1261.56 572.814ZM1263.04 601.916L1266.81 599.369V604.463L1263.04 601.916ZM1271.84 604.463V599.383L1275.61 601.93L1271.84 604.463ZM1271.84 590.59V585.509L1275.61 588.056L1271.84 590.59ZM1277.09 572.814L1271.84 576.174V569.454L1277.09 572.814Z" fill="#F9AD42"/>
<path d="M1190.24 207.709L967 320.308L968.475 323.15L1191.72 210.552L1190.24 207.709Z" fill="#E5E5E5"/>
<path d="M1524.78 167.65C1524.77 198.546 1516.11 228.839 1499.76 255.192C1483.4 281.545 1459.99 302.934 1432.09 317.002C1430.65 317.737 1429.19 318.455 1427.74 319.126C1426.88 319.541 1426.02 319.924 1425.16 320.307C1423.06 321.249 1420.92 322.159 1418.76 323.006C1411.1 326.094 1403.22 328.608 1395.17 330.526C1394.04 330.813 1392.87 331.069 1391.72 331.324C1388.82 331.963 1385.9 332.516 1382.96 332.985C1366.91 335.636 1350.55 336.012 1334.38 334.102C1331.03 333.719 1327.71 333.23 1324.41 332.634C1322.84 332.346 1321.27 332.043 1319.71 331.723C1319.5 331.676 1319.29 331.628 1319.08 331.596C1313.5 330.438 1307.99 328.988 1302.56 327.253C1299.65 326.327 1296.75 325.337 1293.92 324.251C1292.44 323.692 1290.99 323.117 1289.55 322.527C1288.83 322.239 1288.12 321.936 1287.42 321.633C1259.24 309.654 1234.87 290.378 1216.9 265.849C1198.93 241.321 1188.03 212.454 1185.35 182.31C1182.67 152.166 1188.31 121.868 1201.68 94.6303C1215.05 67.3924 1235.64 44.2293 1261.28 27.5974C1286.92 10.9655 1316.64 1.48477 1347.3 0.160634C1377.96 -1.1635 1408.41 5.71832 1435.42 20.0763C1462.44 34.4342 1485.01 55.7331 1500.74 81.7143C1516.47 107.695 1524.78 137.39 1524.78 167.65Z" fill="#F1F1F1"/>
<path d="M1388.87 57.48C1375.87 57.4962 1363.41 62.9165 1354.22 72.5518C1345.03 82.1871 1339.86 95.2508 1339.84 108.877V147.227C1339.85 149.057 1340.54 150.811 1341.78 152.103C1343.02 153.396 1344.69 154.121 1346.44 154.12H1431.31C1433.05 154.121 1434.73 153.396 1435.97 152.103C1437.2 150.811 1437.9 149.057 1437.9 147.227V108.877C1437.89 95.2513 1432.71 82.1885 1423.52 72.5535C1414.33 62.9185 1401.87 57.4978 1388.87 57.48Z" fill="#2F2E41"/>
<path d="M1364.03 217.075L1359.38 195.501C1358.73 192.435 1357.21 189.639 1355.01 187.468C1353.05 185.716 1350.76 184.407 1348.28 183.627C1347.99 183.557 1347.7 183.487 1347.4 183.434C1347.27 183.397 1347.14 183.367 1347 183.346C1344.92 182.973 1342.78 183.048 1340.72 183.566C1338.67 184.085 1336.74 185.037 1335.06 186.361C1333.37 187.686 1331.97 189.354 1330.95 191.262C1329.92 193.17 1329.29 195.276 1329.09 197.448L1325.14 222.897L1319.1 261.87C1319.83 262.203 1320.58 262.536 1321.33 262.852C1322.85 263.501 1324.38 264.133 1325.93 264.746C1328.91 265.939 1331.95 267.027 1335.02 268.044C1340.72 269.95 1346.52 271.542 1352.38 272.814C1352.61 272.849 1352.83 272.902 1353.05 272.955C1354.68 273.306 1356.33 273.639 1357.99 273.954L1366.24 227.352L1364.03 217.075Z" fill="#2F2E41"/>
<path d="M1377.56 152.188C1397.35 152.188 1413.39 135.746 1413.39 115.464C1413.39 95.1825 1397.35 78.7409 1377.56 78.7409C1357.77 78.7409 1341.73 95.1825 1341.73 115.464C1341.73 135.746 1357.77 152.188 1377.56 152.188Z" fill="#FFB7B7"/>
<path d="M1416.62 239.869L1409 177.165L1407.39 163.879H1407.38L1406.66 163.861C1404.23 163.772 1401.87 163.754 1399.55 163.843C1385.28 163.906 1371.29 167.945 1359.02 175.542C1355.81 177.586 1352.75 179.875 1349.86 182.39L1349.73 182.533L1349.39 182.997L1337.27 199.261L1337.25 199.582L1336.07 268.832C1341.8 270.77 1347.61 272.389 1353.5 273.683C1353.73 273.718 1353.95 273.772 1354.17 273.825C1355.81 274.182 1357.47 274.521 1359.13 274.842C1362.61 275.502 1366.12 276.049 1369.66 276.482C1386.72 278.616 1403.98 278.195 1420.93 275.234L1416.62 239.869Z" fill="#557AA1"/>
<path d="M1428.57 178.333C1422.93 171.476 1415.28 166.704 1406.78 164.74H1406.76C1404.49 164.214 1402.18 163.9 1399.86 163.802L1399.26 163.784L1398.9 164.705L1370.07 236.386L1365.42 217.236L1358.21 176.315L1358.16 176.015L1357.08 176.669C1353.74 178.654 1350.58 180.946 1347.64 183.519C1335.95 193.703 1328.15 207.842 1325.63 223.413C1324.89 228.027 1324.62 232.706 1324.82 237.377L1326 265.572C1329.01 266.776 1332.08 267.873 1335.17 268.9C1340.91 270.823 1346.76 272.43 1352.67 273.714C1352.89 273.749 1353.12 273.802 1353.34 273.855C1354.99 274.209 1356.65 274.546 1358.32 274.864C1361.82 275.519 1365.34 276.062 1368.89 276.493C1386.02 278.61 1403.35 278.193 1420.37 275.254C1423.49 274.74 1426.58 274.127 1429.65 273.413C1430.87 273.13 1432.1 272.847 1433.3 272.528L1430.71 264.652L1437.58 209.979C1438.28 204.348 1437.84 198.629 1436.29 193.182C1434.74 187.734 1432.11 182.678 1428.57 178.333Z" fill="#2F2E41"/>
<path d="M1437.64 178.831C1436.42 174.87 1433.81 171.558 1430.35 169.583C1426.89 167.609 1422.84 167.125 1419.05 168.232C1418.43 168.398 1417.83 168.609 1417.25 168.862C1414.43 170.078 1412.02 172.159 1410.32 174.836C1408.63 177.513 1407.72 180.665 1407.73 183.888L1407.8 217.521L1416.8 240.141L1430.28 273.954C1431.49 273.667 1432.71 273.379 1433.9 273.055C1442.34 270.893 1450.62 268.06 1458.66 264.579C1460.92 263.625 1463.16 262.599 1465.37 261.538C1466.27 261.106 1467.17 260.674 1468.07 260.206L1437.64 178.831Z" fill="#2F2E41"/>
<path d="M1374.62 71.0097H1367.29C1357.01 71.0133 1347.15 75.213 1339.88 82.6854C1332.61 90.1577 1328.53 100.291 1328.53 110.856V111.599H1380.42L1380.96 103.941L1383.61 111.599H1391.6L1392.66 96.4242L1397.93 111.599H1413.39V110.856C1413.38 100.294 1409.29 90.1672 1402.02 82.6972C1394.76 75.2272 1384.9 71.024 1374.62 71.0097Z" fill="#2F2E41"/>
<path d="M1295.01 187.906V191.792H1247.84V187.906C1247.84 185.765 1249.61 184.02 1251.77 184.02H1259.69C1259.89 179.171 1263.08 175.122 1267.5 173.571V128.01C1265.42 126.716 1264.04 124.447 1264.04 121.844H1267.5H1275.36H1278.82C1278.82 124.447 1277.43 126.716 1275.36 128.01V173.567C1279.78 175.118 1282.96 179.167 1283.17 184.016H1291.08C1293.25 184.02 1295.01 185.765 1295.01 187.906ZM1322.53 152.93C1319.65 160.95 1311.98 166.736 1302.88 166.736C1293.78 166.736 1286.1 160.946 1283.22 152.93H1287.76L1301.04 118.141C1301.61 116.625 1304.14 116.625 1304.72 118.141L1318 152.93H1322.53ZM1313.79 152.93L1302.88 124.334L1291.96 152.934H1313.79V152.93ZM1239.98 114.115C1241.76 114.115 1243.21 112.937 1243.71 111.34C1245.01 110.851 1246.35 110.19 1247.71 109.506C1250.72 108.006 1254.13 106.301 1257.67 106.301C1261.06 106.301 1263.19 107.851 1264.4 109.172C1264.36 109.506 1264.3 109.841 1264.3 110.186C1264.3 114.076 1267.49 117.231 1271.43 117.231C1275.36 117.231 1278.55 114.076 1278.55 110.186C1278.55 109.841 1278.5 109.51 1278.45 109.176C1279.66 107.859 1281.79 106.301 1285.19 106.301C1288.72 106.301 1292.13 108.003 1295.14 109.502C1296.51 110.186 1297.84 110.847 1299.14 111.337C1299.65 112.934 1301.1 114.111 1302.88 114.111C1305.07 114.111 1306.85 112.355 1306.85 110.186C1306.85 108.018 1305.07 106.262 1302.88 106.262C1301.74 106.262 1300.73 106.744 1300.01 107.497C1299.04 107.093 1297.99 106.576 1296.91 106.036C1293.51 104.338 1289.66 102.415 1285.19 102.415C1281.27 102.415 1278.54 103.887 1276.69 105.473C1275.86 104.567 1274.8 103.891 1273.59 103.507C1275.06 102.73 1276.09 101.249 1276.09 99.4966C1276.09 96.9514 1271.43 91.01 1271.43 91.01C1271.43 91.01 1266.77 96.9514 1266.77 99.4966C1266.77 101.253 1267.8 102.73 1269.26 103.507C1268.05 103.887 1266.99 104.567 1266.16 105.473C1264.31 103.887 1261.58 102.415 1257.67 102.415C1253.19 102.415 1249.34 104.338 1245.94 106.036C1244.86 106.58 1243.82 107.097 1242.84 107.497C1242.12 106.747 1241.11 106.262 1239.98 106.262C1237.78 106.262 1236.01 108.018 1236.01 110.186C1236.01 112.355 1237.78 114.115 1239.98 114.115ZM1239.98 166.74C1230.88 166.74 1223.2 160.95 1220.32 152.934H1224.86L1238.14 118.144C1238.71 116.629 1241.24 116.629 1241.82 118.144L1255.1 152.934H1259.63C1256.75 160.95 1249.08 166.74 1239.98 166.74ZM1250.9 152.93L1239.98 124.334L1229.06 152.934H1250.9V152.93Z" fill="#F9AD42"/>
</g>
<defs>
<filter id="filter0_d_8_2" x="0" y="0" width="1528.78" height="777.3" filterUnits="userSpaceOnUse" color-interpolation-filters="sRGB">
<feFlood flood-opacity="0" result="BackgroundImageFix"/>
<feColorMatrix in="SourceAlpha" type="matrix" values="0 0 0 0 0 0 0 0 0 0 0 0 0 0 0 0 0 0 127 0" result="hardAlpha"/>
<feOffset dy="4"/>
<feGaussianBlur stdDeviation="2"/>
<feComposite in2="hardAlpha" operator="out"/>
<feColorMatrix type="matrix" values="0 0 0 0 0 0 0 0 0 0 0 0 0 0 0 0 0 0 0.25 0"/>
<feBlend mode="normal" in2="BackgroundImageFix" result="effect1_dropShadow_8_2"/>
<feBlend mode="normal" in="SourceGraphic" in2="effect1_dropShadow_8_2" result="shape"/>
</filter>
</defs>
</svg>
