<svg width="745" height="470" viewBox="0 0 745 470" fill="none" xmlns="http://www.w3.org/2000/svg">
<g clip-path="url(#clip0_26_79)" filter="url(#filter0_d_26_79)">
<path d="M258.961 439.163C258.386 439.19 257.817 439.039 257.33 438.731C256.844 438.423 256.464 437.973 256.242 437.442C256.02 436.911 255.967 436.324 256.089 435.762C256.211 435.199 256.504 434.688 256.926 434.297L257.119 433.533C257.093 433.471 257.068 433.41 257.042 433.349C256.463 431.981 255.492 430.814 254.252 429.996C253.012 429.177 251.558 428.744 250.072 428.749C248.586 428.755 247.135 429.199 245.901 430.027C244.667 430.854 243.705 432.028 243.136 433.401C240.861 438.879 237.965 444.366 237.252 450.159C236.938 452.719 237.071 455.314 237.644 457.829C232.302 446.176 229.527 433.51 229.51 420.69C229.508 417.474 229.687 414.259 230.045 411.062C230.341 408.441 230.751 405.839 231.276 403.256C234.139 389.238 240.286 376.099 249.214 364.918C253.534 362.561 257.029 358.935 259.225 354.531C260.021 352.948 260.584 351.257 260.895 349.513C260.408 349.577 259.058 342.154 259.425 341.699C258.746 340.668 257.53 340.155 256.788 339.15C253.099 334.148 248.016 335.021 245.362 341.818C239.694 344.679 239.639 349.424 243.117 353.988C245.33 356.891 245.634 360.819 247.576 363.927C247.376 364.183 247.168 364.431 246.968 364.687C243.317 369.382 240.134 374.424 237.466 379.74C238.115 373.785 237.341 367.76 235.207 362.162C233.044 356.944 228.99 352.55 225.421 348.04C221.133 342.623 212.34 344.987 211.585 351.855C211.578 351.921 211.57 351.987 211.564 352.054C212.094 352.353 212.613 352.671 213.121 353.006C213.759 353.433 214.253 354.042 214.539 354.754C214.825 355.466 214.889 356.247 214.723 356.996C214.557 357.746 214.169 358.427 213.609 358.952C213.049 359.476 212.344 359.819 211.585 359.936L211.508 359.948C211.696 361.859 212.03 363.753 212.506 365.613C207.927 383.324 217.814 389.774 231.931 390.064C232.242 390.223 232.546 390.383 232.858 390.535C230.177 398.132 228.496 406.044 227.856 414.074C227.493 418.812 227.515 423.571 227.92 428.305L227.896 428.137C226.873 422.873 224.065 418.123 219.945 414.69C213.827 409.664 205.183 407.813 198.583 403.773C197.881 403.323 197.066 403.082 196.232 403.08C195.398 403.078 194.582 403.315 193.878 403.762C193.174 404.209 192.613 404.848 192.261 405.603C191.908 406.358 191.779 407.199 191.888 408.025C191.897 408.084 191.906 408.143 191.915 408.202C192.899 408.602 193.857 409.064 194.784 409.584C195.314 409.883 195.833 410.201 196.341 410.536C196.979 410.963 197.473 411.572 197.759 412.284C198.045 412.996 198.109 413.777 197.943 414.526C197.777 415.275 197.389 415.957 196.829 416.482C196.269 417.006 195.564 417.349 194.806 417.466L194.728 417.478C194.672 417.486 194.624 417.494 194.568 417.502C196.249 421.516 198.609 425.211 201.544 428.425C204.407 443.885 216.706 445.352 229.861 440.85H229.869C231.313 447.122 233.404 453.228 236.11 459.068H258.402C258.482 458.82 258.554 458.564 258.626 458.316C256.563 458.446 254.491 458.323 252.458 457.949C254.112 455.919 255.766 453.874 257.42 451.844C257.457 451.806 257.491 451.766 257.524 451.725C258.363 450.686 259.21 449.655 260.048 448.616L260.049 448.615C260.094 445.431 259.728 442.255 258.962 439.164L258.961 439.163Z" fill="#F2F2F2"/>
<path d="M529.662 233.529H21.092C16.5605 233.523 12.2162 231.721 9.01192 228.517C5.80768 225.312 4.00524 220.968 4 216.437V17.092C4.00524 12.5605 5.80768 8.21615 9.01192 5.01192C12.2162 1.80768 16.5605 0.00523504 21.092 0H529.662C534.194 0.00523504 538.538 1.80768 541.742 5.01192C544.946 8.21615 546.749 12.5605 546.754 17.092V216.437C546.749 220.968 544.946 225.312 541.742 228.517C538.538 231.721 534.194 233.523 529.662 233.529V233.529Z" fill="#F2F2F2"/>
<path d="M411.052 222.627H101.82C78.776 222.601 56.6837 213.436 40.3894 197.142C24.0951 180.847 14.9296 158.755 14.9036 135.711V97.8263C14.9295 74.7826 24.0951 52.6902 40.3893 36.3959C56.6836 20.1015 78.7759 10.9358 101.82 10.9097H448.937C471.981 10.9358 494.073 20.1015 510.367 36.3959C526.662 52.6902 535.827 74.7826 535.853 97.8263C535.816 130.914 522.655 162.636 499.258 186.033C475.862 209.429 444.14 222.59 411.052 222.627V222.627Z" fill="white"/>
<path d="M331.283 67.9755H126.876C125.707 67.9755 124.586 67.5111 123.759 66.6844C122.933 65.8577 122.468 64.7365 122.468 63.5674C122.468 62.3984 122.933 61.2772 123.759 60.4505C124.586 59.6238 125.707 59.1594 126.876 59.1594H331.283C332.452 59.1594 333.573 59.6238 334.4 60.4505C335.226 61.2772 335.691 62.3984 335.691 63.5674C335.691 64.7365 335.226 65.8577 334.4 66.6844C333.573 67.5111 332.452 67.9755 331.283 67.9755V67.9755Z" fill="#E6E6E6"/>
<path d="M434.757 115.007H126.876C125.707 115.007 124.586 114.542 123.759 113.715C122.933 112.889 122.468 111.768 122.468 110.598C122.468 109.429 122.933 108.308 123.759 107.482C124.586 106.655 125.707 106.19 126.876 106.19H434.757C435.926 106.19 437.047 106.655 437.874 107.482C438.7 108.308 439.165 109.429 439.165 110.598C439.165 111.768 438.7 112.889 437.874 113.715C437.047 114.542 435.926 115.007 434.757 115.007V115.007Z" fill="#E6E6E6"/>
<path d="M434.757 162.037H126.876C125.707 162.037 124.586 161.573 123.759 160.746C122.933 159.919 122.468 158.798 122.468 157.629C122.468 156.46 122.933 155.339 123.759 154.512C124.586 153.686 125.707 153.221 126.876 153.221H434.757C435.926 153.221 437.047 153.686 437.874 154.512C438.7 155.339 439.165 156.46 439.165 157.629C439.165 158.798 438.7 159.919 437.874 160.746C437.047 161.573 435.926 162.037 434.757 162.037V162.037Z" fill="#E6E6E6"/>
<path d="M434.757 162.037H126.876C125.707 162.037 124.586 161.573 123.759 160.746C122.933 159.919 122.468 158.798 122.468 157.629C122.468 156.46 122.933 155.339 123.759 154.512C124.586 153.686 125.707 153.221 126.876 153.221H434.757C435.926 153.221 437.047 153.686 437.874 154.512C438.7 155.339 439.165 156.46 439.165 157.629C439.165 158.798 438.7 159.919 437.874 160.746C437.047 161.573 435.926 162.037 434.757 162.037V162.037Z" fill="#E6E6E6"/>
<path d="M404.956 81.1406C407.775 65.7788 414.364 52.329 425.946 41.4119C426.372 40.6083 427.099 40.0064 427.968 39.7382C428.837 39.47 429.777 39.5574 430.582 39.9814L460.586 55.8334C461.389 56.2591 461.991 56.9862 462.259 57.8552C462.528 58.7242 462.44 59.6641 462.016 60.4687L441.026 100.197C440.601 101.001 439.873 101.603 439.004 101.871C438.135 102.139 437.196 102.052 436.391 101.628L406.387 85.776C405.583 85.3502 404.981 84.6231 404.713 83.7541C404.445 82.8851 404.533 81.9452 404.956 81.1406V81.1406Z" fill="#E6E6E6"/>
<path d="M413.598 70.3568C413.969 62.338 419.816 53.6624 427.092 44.8155C427.491 44.0629 428.172 43.4992 428.985 43.248C429.799 42.9968 430.679 43.0788 431.433 43.4758L457.219 57.0993C457.972 57.498 458.535 58.179 458.787 58.9928C459.038 59.8067 458.956 60.6869 458.559 61.4405L439.881 96.7936C439.482 97.5463 438.801 98.11 437.987 98.3611C437.173 98.6123 436.293 98.5303 435.539 98.1333L419.566 89.6938C416.213 87.9178 413.702 84.8844 412.583 81.2593C411.464 77.6341 411.829 73.7133 413.598 70.3568V70.3568Z" fill="white"/>
<path d="M443.877 75.473L423.741 64.906C423.422 64.737 423.183 64.4485 423.077 64.1037C422.97 63.759 423.004 63.386 423.172 63.0664C423.34 62.7468 423.627 62.5066 423.971 62.3985C424.316 62.2905 424.689 62.3232 425.009 62.4897L445.145 73.0567C445.464 73.2257 445.703 73.5141 445.81 73.8589C445.916 74.2037 445.882 74.5768 445.714 74.8963C445.547 75.2159 445.259 75.4561 444.915 75.5641C444.57 75.6722 444.197 75.6394 443.877 75.473V75.473Z" fill="#557AA1"/>
<path d="M431.648 60.6051L427.218 58.2803C427.059 58.1975 426.917 58.084 426.802 57.9464C426.687 57.8088 426.6 57.6497 426.546 57.4783C426.492 57.3069 426.473 57.1266 426.489 56.9476C426.505 56.7687 426.556 56.5948 426.639 56.4357C426.723 56.2767 426.837 56.1356 426.975 56.0208C427.113 55.9059 427.273 55.8194 427.444 55.7663C427.616 55.7132 427.796 55.6945 427.975 55.7113C428.154 55.7281 428.328 55.78 428.486 55.8641L432.916 58.1888C433.235 58.3578 433.474 58.6463 433.581 58.991C433.688 59.3358 433.653 59.7089 433.486 60.0285C433.318 60.3481 433.03 60.5882 432.686 60.6962C432.342 60.8043 431.968 60.7716 431.648 60.6051V60.6051Z" fill="#557AA1"/>
<path d="M438.302 86.0954L418.167 75.5284C417.847 75.3596 417.608 75.0711 417.501 74.7262C417.394 74.3812 417.428 74.008 417.596 73.6882C417.764 73.3684 418.052 73.1282 418.396 73.0202C418.741 72.9122 419.114 72.9453 419.435 73.1121L439.57 83.6791C439.889 83.8481 440.128 84.1365 440.235 84.4813C440.342 84.8261 440.307 85.1991 440.14 85.5187C439.972 85.8383 439.684 86.0784 439.34 86.1865C438.996 86.2946 438.623 86.2618 438.302 86.0954V86.0954Z" fill="#557AA1"/>
<path d="M441.09 80.7841L420.954 70.2171C420.795 70.1343 420.653 70.0208 420.538 69.8832C420.422 69.7455 420.335 69.5864 420.281 69.415C420.228 69.2437 420.208 69.0633 420.224 68.8844C420.24 68.7055 420.292 68.5315 420.375 68.3725C420.459 68.2134 420.573 68.0724 420.711 67.9576C420.849 67.8427 421.008 67.7562 421.18 67.7031C421.351 67.65 421.532 67.6313 421.711 67.6481C421.889 67.6648 422.063 67.7168 422.222 67.8009L442.358 78.3679C442.677 78.5368 442.916 78.8253 443.022 79.1701C443.129 79.5149 443.095 79.8879 442.927 80.2075C442.759 80.5271 442.472 80.7672 442.127 80.8753C441.783 80.9834 441.41 80.9506 441.09 80.7841Z" fill="#557AA1"/>
<path d="M621.922 350.744H611.506C611.014 350.744 610.526 350.841 610.071 351.029C609.616 351.218 609.203 351.494 608.854 351.842C608.506 352.191 608.23 352.604 608.042 353.059C607.853 353.514 607.756 354.002 607.756 354.494C607.756 355.489 607.361 356.443 606.658 357.146C605.954 357.85 605 358.245 604.006 358.245H569.283C568.79 358.245 568.302 358.148 567.847 357.959C567.392 357.771 566.979 357.494 566.631 357.146C566.282 356.798 566.006 356.385 565.818 355.93C565.629 355.475 565.532 354.987 565.532 354.494L564.846 350.692L564.89 350.744L564.846 350.692L558.552 342.668C558.345 342.401 558.08 342.185 557.777 342.038C557.473 341.891 557.14 341.816 556.802 341.819H544.999C544.409 341.819 543.844 342.054 543.428 342.47C543.011 342.887 542.777 343.452 542.776 344.041L542.532 350.692H538.07C537.132 350.692 536.204 350.877 535.338 351.236C534.473 351.594 533.686 352.12 533.023 352.783C532.36 353.446 531.835 354.232 531.476 355.098C531.117 355.964 530.933 356.892 530.933 357.83V404.313C530.933 405.145 531.096 405.969 531.415 406.737C531.733 407.506 532.2 408.204 532.788 408.792C533.376 409.38 534.074 409.847 534.842 410.165C535.611 410.483 536.434 410.647 537.266 410.647H621.922C623.601 410.645 625.21 409.977 626.397 408.789C627.584 407.602 628.252 405.992 628.254 404.313V357.076C628.254 356.244 628.09 355.421 627.772 354.653C627.453 353.884 626.987 353.186 626.399 352.598C625.811 352.011 625.113 351.544 624.345 351.226C623.577 350.908 622.753 350.744 621.922 350.744V350.744Z" fill="#F2F2F2"/>
<path d="M564.849 350.521H542.776V343.87C542.777 343.28 543.011 342.715 543.428 342.299C543.844 341.882 544.409 341.648 544.999 341.647H556.802C557.14 341.644 557.473 341.719 557.777 341.866C558.08 342.014 558.345 342.229 558.551 342.497L564.849 350.521Z" fill="#E6E6E6"/>
<path d="M576.151 405.532H539.295C538.128 405.531 537.009 405.067 536.184 404.242C535.359 403.417 534.895 402.298 534.894 401.131V391.052C534.895 389.885 535.359 388.767 536.184 387.942C537.009 387.117 538.128 386.653 539.295 386.651H583.531C584.698 386.653 585.816 387.117 586.641 387.942C587.466 388.767 587.93 389.885 587.931 391.052V393.752C587.928 396.875 586.686 399.869 584.477 402.078C582.269 404.286 579.274 405.528 576.151 405.532Z" fill="white"/>
<path d="M549.904 394.255H540.807C540.215 394.255 539.648 394.019 539.229 393.601C538.811 393.183 538.576 392.615 538.576 392.023C538.576 391.431 538.811 390.864 539.229 390.445C539.648 390.027 540.215 389.792 540.807 389.792H549.904C550.496 389.792 551.063 390.027 551.482 390.445C551.9 390.864 552.135 391.431 552.135 392.023C552.135 392.615 551.9 393.183 551.482 393.601C551.063 394.019 550.496 394.255 549.904 394.255Z" fill="#F2F2F2"/>
<path d="M580.8 401.292H540.807C540.514 401.292 540.223 401.235 539.952 401.123C539.681 401.011 539.434 400.847 539.226 400.64C539.019 400.433 538.854 400.186 538.741 399.915C538.629 399.644 538.571 399.354 538.571 399.06C538.571 398.767 538.629 398.476 538.741 398.205C538.854 397.934 539.019 397.688 539.226 397.481C539.434 397.274 539.681 397.109 539.952 396.998C540.223 396.886 540.514 396.828 540.807 396.829H580.8C581.391 396.829 581.959 397.064 582.377 397.483C582.796 397.901 583.031 398.469 583.031 399.06C583.031 399.652 582.796 400.22 582.377 400.638C581.959 401.057 581.391 401.292 580.8 401.292H580.8Z" fill="#F2F2F2"/>
<path d="M658.922 401.744H648.506C648.014 401.744 647.526 401.841 647.071 402.029C646.616 402.218 646.203 402.494 645.854 402.842C645.506 403.191 645.23 403.604 645.042 404.059C644.853 404.514 644.756 405.002 644.756 405.494C644.756 406.489 644.361 407.443 643.658 408.146C642.954 408.85 642 409.245 641.006 409.245H606.283C605.79 409.245 605.302 409.148 604.847 408.959C604.392 408.771 603.979 408.494 603.631 408.146C603.282 407.798 603.006 407.385 602.818 406.93C602.629 406.475 602.532 405.987 602.532 405.494L601.846 401.692L601.89 401.744L601.846 401.692L595.552 393.668C595.345 393.401 595.08 393.185 594.777 393.038C594.473 392.891 594.14 392.816 593.802 392.819H581.999C581.409 392.819 580.844 393.054 580.428 393.47C580.011 393.887 579.777 394.452 579.776 395.041L579.532 401.692H575.07C574.132 401.692 573.204 401.877 572.338 402.236C571.473 402.594 570.686 403.12 570.023 403.783C569.36 404.446 568.835 405.232 568.476 406.098C568.117 406.964 567.933 407.892 567.933 408.83V455.313C567.933 456.145 568.096 456.969 568.415 457.737C568.733 458.506 569.2 459.204 569.788 459.792C570.376 460.38 571.074 460.847 571.842 461.165C572.611 461.483 573.434 461.647 574.266 461.647H658.922C660.601 461.645 662.21 460.977 663.397 459.789C664.584 458.602 665.252 456.992 665.254 455.313V408.076C665.254 407.244 665.09 406.421 664.772 405.653C664.453 404.884 663.987 404.186 663.399 403.598C662.811 403.011 662.113 402.544 661.345 402.226C660.577 401.908 659.753 401.744 658.922 401.744V401.744Z" fill="#F2F2F2"/>
<path d="M601.849 401.521H579.776V394.87C579.777 394.28 580.011 393.715 580.428 393.299C580.844 392.882 581.409 392.648 581.999 392.647H593.802C594.14 392.644 594.473 392.719 594.777 392.866C595.08 393.014 595.345 393.229 595.551 393.497L601.849 401.521Z" fill="#E6E6E6"/>
<path d="M613.151 456.532H576.295C575.128 456.531 574.009 456.067 573.184 455.242C572.359 454.417 571.895 453.298 571.894 452.131V442.052C571.895 440.885 572.359 439.767 573.184 438.942C574.009 438.117 575.128 437.653 576.295 437.651H620.531C621.698 437.653 622.816 438.117 623.641 438.942C624.466 439.767 624.93 440.885 624.931 442.052V444.752C624.928 447.875 623.686 450.869 621.477 453.078C619.269 455.286 616.274 456.528 613.151 456.532V456.532Z" fill="white"/>
<path d="M586.904 445.255H577.807C577.215 445.255 576.648 445.019 576.229 444.601C575.811 444.183 575.576 443.615 575.576 443.023C575.576 442.431 575.811 441.864 576.229 441.445C576.648 441.027 577.215 440.792 577.807 440.792H586.904C587.496 440.792 588.063 441.027 588.482 441.445C588.9 441.864 589.135 442.431 589.135 443.023C589.135 443.615 588.9 444.183 588.482 444.601C588.063 445.019 587.496 445.255 586.904 445.255V445.255Z" fill="#F2F2F2"/>
<path d="M617.8 452.292H577.807C577.514 452.292 577.223 452.235 576.952 452.123C576.681 452.011 576.434 451.847 576.226 451.64C576.019 451.433 575.854 451.186 575.741 450.915C575.629 450.644 575.571 450.354 575.571 450.06C575.571 449.767 575.629 449.476 575.741 449.205C575.854 448.934 576.019 448.688 576.226 448.481C576.434 448.274 576.681 448.109 576.952 447.998C577.223 447.886 577.514 447.828 577.807 447.829H617.8C618.391 447.829 618.959 448.064 619.377 448.483C619.796 448.901 620.031 449.469 620.031 450.06C620.031 450.652 619.796 451.22 619.377 451.638C618.959 452.057 618.391 452.292 617.8 452.292H617.8Z" fill="#F2F2F2"/>
<path d="M493.468 444.144L484.868 444.143L480.777 410.972H493.47L493.468 444.144Z" fill="#FFB6B6"/>
<path d="M467.511 456.833C467.515 457.796 467.899 458.719 468.58 459.401C469.26 460.083 470.182 460.469 471.146 460.475H487.335L487.837 459.435L490.127 454.71L491.013 459.435L491.21 460.475H497.316L497.229 459.428L495.601 439.902L493.471 439.771L484.267 439.226L482.006 439.088V444.918C480.291 446.743 466.828 453.641 467.511 456.833Z" fill="#2F2E41"/>
<path d="M635.857 377.722L631.7 385.251L600.682 372.802L606.817 361.69L635.857 377.722Z" fill="#FFB6B6"/>
<path d="M634.421 406.579C635.267 407.041 636.26 407.151 637.186 406.885C638.112 406.618 638.895 405.998 639.366 405.157L647.19 390.984L646.522 390.042L643.492 385.754L648.058 387.261L649.063 387.592L652.014 382.246L651.055 381.816L633.173 373.805L632.03 375.607L627.105 383.401L625.891 385.313L630.995 388.131C631.764 390.515 631.297 405.635 634.421 406.579Z" fill="#2F2E41"/>
<path d="M507.858 225.515L540.353 239.312C540.353 239.312 550.749 261.507 543.559 264.688V323.365L617.782 366.32L595.41 403.689C595.41 403.689 566.694 396.272 566.994 389.5C567.294 382.728 570.604 380.05 560.745 379.18C550.885 378.311 545.3 379.037 545.568 372.994C545.836 366.951 510.746 335.53 510.746 335.53L507.858 225.515Z" fill="#2F2E41"/>
<path d="M515.643 236.78L507.404 227.524C507.404 227.524 488.898 257.91 488.968 264.151C489.037 270.393 473.26 302.579 473.26 302.579L453.696 417.439C453.696 417.439 491.431 426.409 494.336 426.657C497.242 426.906 502.141 428.437 499.06 422.622C495.979 416.808 499.06 416.808 499.06 416.808L500.954 328.374L515.643 267.55V236.78Z" fill="#2F2E41"/>
<path d="M511.322 147.803L527.099 144.016L536.223 155.207C540.387 159.125 543.492 164.032 545.248 169.473C547.004 174.914 547.354 180.711 546.266 186.324L537.828 229.846C537.828 229.846 552.974 243.73 551.081 251.303C548.01 263.586 514.144 252.739 508.315 253.599C502.486 254.459 494.913 245.027 493.651 239.645C492.389 234.263 497.537 221.347 499.331 221.641C501.125 221.936 494.382 194.922 494.382 194.922C494.382 194.922 494.913 176.833 501.224 171.785C505.095 168.633 508.245 164.688 510.462 160.216L511.322 147.803Z" fill="#557AA1"/>
<path d="M442.822 79.5664C442.835 80.6274 443.077 81.6731 443.533 82.6312C443.989 83.5892 444.648 84.4368 445.464 85.1152C446.28 85.7936 447.233 86.2868 448.258 86.5605C449.283 86.8342 450.356 86.8819 451.401 86.7004L471.261 117.343L481.088 113.933L457.233 77.7114C456.797 75.9744 455.738 74.4579 454.258 73.4491C452.779 72.4403 450.98 72.0095 449.204 72.2381C447.428 72.4668 445.797 73.3391 444.621 74.6897C443.445 76.0404 442.805 77.7756 442.822 79.5664H442.822Z" fill="#FFB6B6"/>
<path d="M522.463 186.389C522.463 186.389 529.942 170.375 524.254 163.258C518.566 156.14 514.408 148.905 511.224 146.945C508.041 144.985 495.353 122.291 492.155 121.613C488.957 120.936 491.442 117.257 486.977 115.282C482.512 113.307 481.23 113.293 481.244 112.011C481.259 110.729 470.356 95.334 470.356 95.334L459.149 102.291L486.526 158.296L522.463 186.389Z" fill="#557AA1"/>
<path d="M451.807 336.246C437.469 317.176 429.183 295.851 428.911 271.538C428.449 270.228 428.526 268.788 429.124 267.534C429.723 266.28 430.794 265.315 432.103 264.85L480.972 247.559C482.283 247.097 483.723 247.173 484.976 247.772C486.23 248.37 487.195 249.442 487.66 250.751L510.556 315.459C511.018 316.77 510.941 318.21 510.343 319.463C509.744 320.717 508.673 321.682 507.364 322.147L458.494 339.438C457.184 339.9 455.744 339.824 454.491 339.225C453.237 338.627 452.272 337.556 451.807 336.246V336.246Z" fill="#E6E6E6"/>
<path d="M448.64 315.375C440.017 306.657 436.326 291.106 433.92 273.775C433.488 272.548 433.56 271.199 434.12 270.025C434.68 268.851 435.684 267.947 436.91 267.511L478.909 252.651C480.136 252.218 481.485 252.29 482.659 252.851C483.833 253.411 484.737 254.414 485.173 255.64L505.547 313.222C505.979 314.449 505.907 315.798 505.347 316.972C504.786 318.146 503.783 319.05 502.557 319.486L476.539 328.691C471.073 330.618 465.066 330.299 459.836 327.802C454.606 325.306 450.579 320.837 448.64 315.375V315.375Z" fill="white"/>
<path d="M485.734 286.66L453.018 298.338C452.498 298.524 451.925 298.495 451.425 298.259C450.926 298.022 450.541 297.596 450.355 297.076C450.169 296.555 450.197 295.982 450.434 295.483C450.671 294.983 451.096 294.598 451.617 294.412L484.333 282.734C484.591 282.642 484.864 282.602 485.138 282.615C485.411 282.629 485.679 282.696 485.926 282.814C486.174 282.931 486.396 283.096 486.579 283.299C486.763 283.501 486.905 283.739 486.997 283.996C487.089 284.254 487.129 284.528 487.116 284.801C487.102 285.074 487.034 285.342 486.917 285.59C486.8 285.837 486.635 286.059 486.432 286.242C486.229 286.426 485.992 286.568 485.734 286.66V286.66Z" fill="#557AA1"/>
<path d="M456.373 285.004L449.176 287.573C448.656 287.757 448.083 287.728 447.585 287.491C447.086 287.254 446.702 286.829 446.516 286.309C446.331 285.789 446.359 285.217 446.595 284.718C446.831 284.219 447.255 283.834 447.774 283.647L454.972 281.078C455.492 280.893 456.065 280.923 456.563 281.16C457.062 281.397 457.446 281.822 457.631 282.342C457.817 282.861 457.789 283.434 457.553 283.933C457.317 284.432 456.893 284.817 456.373 285.004V285.004Z" fill="#557AA1"/>
<path d="M491.895 303.919L459.179 315.597C458.921 315.689 458.648 315.73 458.375 315.716C458.101 315.703 457.833 315.635 457.586 315.518C457.339 315.401 457.117 315.236 456.933 315.033C456.749 314.83 456.608 314.593 456.516 314.335C456.424 314.077 456.383 313.804 456.397 313.531C456.411 313.257 456.478 312.989 456.595 312.742C456.712 312.495 456.877 312.273 457.08 312.089C457.283 311.905 457.52 311.764 457.778 311.672L490.494 299.994C490.752 299.902 491.025 299.861 491.299 299.875C491.572 299.888 491.84 299.956 492.087 300.073C492.335 300.19 492.556 300.355 492.74 300.558C492.924 300.761 493.066 300.998 493.158 301.256C493.25 301.514 493.29 301.787 493.276 302.06C493.263 302.334 493.195 302.602 493.078 302.849C492.961 303.096 492.796 303.318 492.593 303.502C492.39 303.686 492.153 303.827 491.895 303.919Z" fill="#557AA1"/>
<path d="M488.815 295.29L456.099 306.968C455.841 307.06 455.568 307.1 455.294 307.086C455.021 307.073 454.753 307.005 454.506 306.888C454.258 306.771 454.036 306.606 453.853 306.403C453.669 306.2 453.527 305.963 453.435 305.705C453.343 305.448 453.303 305.174 453.317 304.901C453.33 304.627 453.398 304.359 453.515 304.112C453.632 303.865 453.797 303.643 454 303.459C454.203 303.276 454.44 303.134 454.698 303.042L487.414 291.364C487.934 291.178 488.507 291.207 489.007 291.443C489.506 291.68 489.891 292.105 490.077 292.626C490.263 293.147 490.235 293.72 489.998 294.219C489.761 294.719 489.336 295.104 488.815 295.29V295.29Z" fill="#557AA1"/>
<path d="M513.235 142.096C522.59 142.096 530.174 134.512 530.174 125.157C530.174 115.802 522.59 108.218 513.235 108.218C503.88 108.218 496.296 115.802 496.296 125.157C496.296 134.512 503.88 142.096 513.235 142.096Z" fill="#FFB6B6"/>
<path d="M495.423 122.947C496.323 123.546 497.395 123.832 498.474 123.761C498.722 122.465 498.762 121.137 498.591 119.827C499.234 121.002 499.717 122.257 500.028 123.56C503.041 122.902 502.907 122.006 506.011 122.475C506.863 122.654 507.67 123.008 508.38 123.513C509.09 124.017 509.689 124.663 510.139 125.409C510.589 126.155 510.881 126.986 510.996 127.85C511.111 128.714 511.047 129.592 510.808 130.43C511.465 128.99 514.197 129.645 514.658 131.292C515.138 133.026 514.081 134.778 513.068 136.266C509.454 141.585 518.803 151.39 515.188 156.709L514.684 157.31C517.845 155.666 520.835 153.712 523.612 151.479C523.137 149.378 523.054 147.207 523.369 145.076C523.761 146.832 524.722 148.409 526.103 149.562C536.331 141.542 548.634 129.996 546.372 127.194L539.487 115.058C532.251 102.31 514.801 97.1887 503.989 107.088C503.706 107.352 503.066 107.177 502.781 107.455C499.675 108.259 495.699 109.718 493.67 112.201C491.648 114.688 492.768 121.154 495.423 122.947Z" fill="#2F2E41"/>
<path d="M508.675 254.126C494.894 246.777 484.078 236.417 477.191 222.068C476.555 221.418 476.202 220.543 476.21 219.633C476.219 218.724 476.587 217.855 477.235 217.217L501.446 193.44C502.096 192.803 502.971 192.45 503.881 192.458C504.79 192.467 505.659 192.835 506.297 193.483L537.781 225.541C538.417 226.191 538.77 227.066 538.762 227.976C538.754 228.885 538.385 229.754 537.737 230.392L513.526 254.169C512.877 254.806 512.001 255.159 511.092 255.151C510.182 255.142 509.313 254.774 508.675 254.126V254.126Z" fill="#E6E6E6"/>
<path d="M501.023 242.619C493.495 239.832 487.004 231.627 480.782 222.009C480.186 221.401 479.856 220.581 479.863 219.729C479.871 218.878 480.216 218.064 480.823 217.466L501.631 197.032C502.239 196.435 503.059 196.105 503.911 196.113C504.762 196.12 505.576 196.466 506.174 197.073L534.19 225.6C534.786 226.208 535.117 227.028 535.109 227.88C535.101 228.731 534.756 229.545 534.149 230.143L521.259 242.802C518.55 245.457 514.897 246.929 511.103 246.895C507.31 246.86 503.684 245.323 501.023 242.619Z" fill="white"/>
<path d="M515.088 215.321L498.908 231.3C498.781 231.426 498.63 231.525 498.464 231.593C498.298 231.66 498.12 231.695 497.941 231.694C497.761 231.693 497.584 231.656 497.419 231.587C497.254 231.517 497.104 231.416 496.978 231.288C496.852 231.16 496.753 231.009 496.685 230.843C496.617 230.677 496.583 230.5 496.585 230.32C496.586 230.141 496.622 229.964 496.692 229.799C496.761 229.634 496.863 229.484 496.991 229.358L513.17 213.379C513.298 213.253 513.449 213.154 513.615 213.086C513.781 213.019 513.959 212.984 514.138 212.985C514.317 212.986 514.494 213.023 514.66 213.092C514.825 213.162 514.975 213.264 515.1 213.391C515.226 213.519 515.326 213.67 515.394 213.836C515.461 214.002 515.495 214.179 515.494 214.359C515.493 214.538 515.456 214.715 515.387 214.88C515.317 215.045 515.216 215.195 515.088 215.321V215.321Z" fill="#557AA1"/>
<path d="M497.21 222.46L493.651 225.976C493.393 226.23 493.045 226.372 492.683 226.369C492.321 226.367 491.975 226.221 491.721 225.964C491.467 225.706 491.325 225.358 491.327 224.996C491.33 224.635 491.476 224.288 491.733 224.034L495.293 220.519C495.42 220.392 495.571 220.292 495.737 220.225C495.903 220.157 496.081 220.122 496.261 220.123C496.44 220.124 496.618 220.16 496.783 220.23C496.948 220.299 497.098 220.401 497.224 220.529C497.351 220.656 497.45 220.808 497.518 220.974C497.585 221.14 497.619 221.318 497.618 221.498C497.617 221.677 497.58 221.854 497.51 222.02C497.44 222.185 497.338 222.335 497.21 222.46Z" fill="#557AA1"/>
<path d="M523.518 223.857L507.338 239.835C507.21 239.961 507.059 240.061 506.893 240.129C506.727 240.196 506.55 240.23 506.37 240.229C506.191 240.228 506.014 240.192 505.849 240.122C505.684 240.053 505.534 239.951 505.408 239.824C505.282 239.696 505.182 239.545 505.115 239.379C505.047 239.213 505.013 239.035 505.014 238.856C505.015 238.677 505.052 238.5 505.121 238.334C505.191 238.169 505.293 238.02 505.42 237.894L521.6 221.915C521.728 221.789 521.879 221.689 522.045 221.622C522.211 221.554 522.388 221.52 522.568 221.521C522.747 221.522 522.924 221.559 523.089 221.628C523.254 221.698 523.404 221.799 523.53 221.927C523.656 222.054 523.756 222.205 523.823 222.371C523.891 222.537 523.925 222.715 523.924 222.894C523.923 223.073 523.886 223.251 523.816 223.416C523.747 223.581 523.645 223.731 523.518 223.857V223.857Z" fill="#6C63FF"/>
<path d="M519.303 219.589L503.123 235.567C502.995 235.694 502.844 235.794 502.678 235.862C502.512 235.93 502.334 235.964 502.155 235.963C501.975 235.962 501.798 235.926 501.632 235.856C501.467 235.787 501.317 235.685 501.191 235.558C501.065 235.43 500.965 235.279 500.898 235.112C500.83 234.946 500.796 234.768 500.797 234.589C500.799 234.409 500.835 234.232 500.905 234.067C500.975 233.901 501.077 233.752 501.205 233.626L517.385 217.647C517.643 217.393 517.991 217.252 518.352 217.254C518.714 217.256 519.06 217.402 519.314 217.66C519.569 217.917 519.71 218.265 519.708 218.627C519.706 218.988 519.56 219.334 519.303 219.589V219.589Z" fill="#557AA1"/>
<path d="M484.617 287.328C484.416 286.286 484.444 285.213 484.699 284.183C484.953 283.153 485.429 282.191 486.092 281.362C486.755 280.534 487.59 279.86 488.54 279.386C489.489 278.912 490.53 278.65 491.591 278.619L504.903 244.616L515.213 245.986L499.107 286.256C499.028 288.045 498.295 289.743 497.047 291.028C495.8 292.313 494.124 293.096 492.338 293.228C490.552 293.36 488.78 292.832 487.356 291.745C485.933 290.658 484.959 289.086 484.617 287.328V287.328Z" fill="#FFB6B6"/>
<path d="M541.219 166.705C541.219 166.705 551.757 180.894 547.612 189.007C543.466 197.121 540.844 205.043 538.118 207.601C535.393 210.16 527.513 234.937 524.516 236.243C521.519 237.548 524.691 240.654 520.712 243.484C516.734 246.314 515.481 246.585 515.752 247.838C516.024 249.091 508.429 266.359 508.429 266.359L496.055 261.792L522.406 170.133L541.219 166.705Z" fill="#557AA1"/>
<path d="M738.887 461.657L76.1374 460.964C75.8222 460.963 75.5203 460.837 75.2977 460.614C75.0752 460.391 74.9502 460.089 74.9502 459.773C74.9502 459.458 75.0752 459.156 75.2977 458.933C75.5203 458.71 75.8222 458.584 76.1374 458.583L738.887 459.275C739.044 459.275 739.199 459.305 739.344 459.365C739.489 459.425 739.621 459.512 739.732 459.623C739.842 459.734 739.931 459.865 739.991 460.01C740.051 460.154 740.082 460.309 740.082 460.466C740.082 460.623 740.051 460.778 739.991 460.923C739.931 461.067 739.842 461.199 739.732 461.309C739.621 461.42 739.489 461.508 739.344 461.567C739.199 461.627 739.044 461.657 738.887 461.657V461.657Z" fill="#CACACA"/>
<path d="M252.983 199.381C245.135 185.878 241.394 171.376 243.095 155.55C242.895 154.663 243.056 153.733 243.542 152.964C244.028 152.195 244.799 151.651 245.686 151.449L278.788 143.981C279.675 143.782 280.605 143.943 281.374 144.429C282.143 144.915 282.688 145.686 282.889 146.573L292.778 190.404C292.977 191.291 292.816 192.221 292.33 192.99C291.844 193.759 291.073 194.303 290.186 194.505L257.084 201.973C256.197 202.172 255.267 202.011 254.498 201.525C253.729 201.039 253.184 200.268 252.983 199.381V199.381Z" fill="#E6E6E6"/>
<path d="M252.535 185.57C247.603 179.237 246.404 168.843 246.178 157.391C245.992 156.56 246.142 155.689 246.597 154.969C247.052 154.249 247.774 153.739 248.605 153.55L277.053 147.132C277.885 146.946 278.756 147.097 279.476 147.551C280.196 148.006 280.706 148.728 280.894 149.559L289.694 188.563C289.88 189.394 289.73 190.265 289.275 190.985C288.82 191.705 288.098 192.215 287.267 192.403L269.644 196.379C265.942 197.21 262.062 196.539 258.854 194.512C255.647 192.486 253.375 189.27 252.535 185.57V185.57Z" fill="white"/>
<path d="M263.601 164.04C264.181 163.371 264.961 162.908 265.826 162.72C266.69 162.531 267.593 162.627 268.398 162.994C269.203 163.422 269.847 164.099 270.235 164.925C270.622 165.75 270.73 166.679 270.544 167.571C270.232 169.634 269.155 171.512 269.057 173.625C268.969 174.55 269.13 175.482 269.525 176.323C269.919 177.165 270.531 177.886 271.298 178.411C272.473 179.124 273.682 177.358 272.502 176.641C270.56 175.461 271.212 172.868 271.776 171.099C272.479 168.89 273.212 166.639 272.342 164.363C271.957 163.41 271.339 162.57 270.545 161.917C269.75 161.265 268.805 160.822 267.796 160.63C266.786 160.437 265.745 160.501 264.766 160.815C263.787 161.129 262.903 161.683 262.194 162.427C261.267 163.426 262.663 165.052 263.601 164.04V164.04Z" fill="#557AA1"/>
<path d="M273.029 184.579C274.211 184.579 275.17 183.621 275.17 182.439C275.17 181.257 274.211 180.298 273.029 180.298C271.847 180.298 270.889 181.257 270.889 182.439C270.889 183.621 271.847 184.579 273.029 184.579Z" fill="#557AA1"/>
<path d="M63.7759 106.159C55.9279 92.6559 52.1872 78.1537 53.8873 62.3282C53.6882 61.4408 53.8492 60.5107 54.335 59.7419C54.8207 58.9731 55.5916 58.4283 56.4785 58.2272L89.5807 50.7591C90.4681 50.56 91.3982 50.721 92.167 51.2067C92.9358 51.6925 93.4806 52.4634 93.6817 53.3504L103.57 97.1814C103.769 98.0687 103.608 98.9989 103.123 99.7677C102.637 100.537 101.866 101.081 100.979 101.282L67.8769 108.75C66.9895 108.95 66.0594 108.789 65.2906 108.303C64.5218 107.817 63.977 107.046 63.7759 106.159V106.159Z" fill="#E6E6E6"/>
<path d="M63.3282 92.3476C58.3957 86.0144 57.1966 75.6211 56.9709 64.169C56.7844 63.338 56.9351 62.4669 57.3901 61.7469C57.845 61.0268 58.567 60.5166 59.3976 60.3283L87.8462 53.9101C88.6772 53.7236 89.5484 53.8743 90.2684 54.3292C90.9885 54.7842 91.4987 55.5062 91.6871 56.3368L100.487 95.3405C100.673 96.1716 100.522 97.0427 100.067 97.7627C99.6123 98.4827 98.8903 98.9929 98.0596 99.1813L80.4364 103.157C76.7346 103.988 72.8544 103.316 69.6471 101.29C66.4398 99.2635 64.1673 96.0475 63.3282 92.3476V92.3476Z" fill="white"/>
<path d="M78.1973 95.3203C79.8541 95.3203 81.1973 93.9772 81.1973 92.3203C81.1973 90.6635 79.8541 89.3203 78.1973 89.3203C76.5404 89.3203 75.1973 90.6635 75.1973 92.3203C75.1973 93.9772 76.5404 95.3203 78.1973 95.3203Z" fill="#557AA1"/>
<path d="M81.7825 63.8278C80.6278 62.474 78.5151 62.6892 76.7671 63.0222C74.951 63.2862 73.1781 63.7909 71.4953 64.5231C70.6549 64.894 69.8963 65.4275 69.2632 66.093C68.6301 66.7585 68.135 67.5428 67.8065 68.4006C67.1083 70.5418 67.8686 72.8686 68.7806 74.9276C70.5365 78.8883 72.8672 82.5682 75.6975 85.8484L77.1276 86.5107C79.3523 83.6764 80.9876 80.4256 81.937 76.9498C82.8863 73.4739 83.1307 69.8432 82.6556 66.2715C82.6013 65.3908 82.2986 64.5435 81.7825 63.8278Z" fill="#557AA1"/>
</g>
<defs>
<filter id="filter0_d_26_79" x="0" y="0" width="744.078" height="469.657" filterUnits="userSpaceOnUse" color-interpolation-filters="sRGB">
<feFlood flood-opacity="0" result="BackgroundImageFix"/>
<feColorMatrix in="SourceAlpha" type="matrix" values="0 0 0 0 0 0 0 0 0 0 0 0 0 0 0 0 0 0 127 0" result="hardAlpha"/>
<feOffset dy="4"/>
<feGaussianBlur stdDeviation="2"/>
<feComposite in2="hardAlpha" operator="out"/>
<feColorMatrix type="matrix" values="0 0 0 0 0 0 0 0 0 0 0 0 0 0 0 0 0 0 0.25 0"/>
<feBlend mode="normal" in2="BackgroundImageFix" result="effect1_dropShadow_26_79"/>
<feBlend mode="normal" in="SourceGraphic" in2="effect1_dropShadow_26_79" result="shape"/>
</filter>
<clipPath id="clip0_26_79">
<rect width="736.078" height="461.657" fill="white" transform="translate(4)"/>
</clipPath>
</defs>
</svg>
