<svg width="1521" height="770" viewBox="0 0 1521 770" fill="none" xmlns="http://www.w3.org/2000/svg">
<path d="M904.959 536.361H561.986C560.93 536.359 559.916 535.939 559.169 535.191C558.422 534.444 558.001 533.431 558 532.374V213.866C558.001 212.809 558.422 211.796 559.169 211.048C559.916 210.301 560.93 209.881 561.986 209.879H904.959C906.016 209.881 907.029 210.301 907.776 211.048C908.523 211.796 908.944 212.809 908.945 213.866V532.373C908.944 533.43 908.524 534.444 907.776 535.191C907.029 535.938 906.016 536.359 904.959 536.36V536.361Z" fill="#F1F1F1"/>
<path d="M959.023 583.99H616.051C614.994 583.989 613.981 583.569 613.234 582.821C612.486 582.074 612.066 581.061 612.064 580.004V261.496C612.066 260.439 612.486 259.426 613.234 258.678C613.981 257.931 614.994 257.511 616.051 257.509H959.023C960.08 257.511 961.093 257.931 961.84 258.678C962.588 259.426 963.008 260.439 963.01 261.496V580.003C963.008 581.06 962.588 582.074 961.841 582.821C961.093 583.568 960.08 583.989 959.023 583.99V583.99Z" fill="white"/>
<path d="M959.023 583.99H616.051C614.994 583.989 613.981 583.569 613.234 582.821C612.486 582.074 612.066 581.061 612.064 580.004V261.496C612.066 260.439 612.486 259.426 613.234 258.678C613.981 257.931 614.994 257.511 616.051 257.509H959.023C960.08 257.511 961.093 257.931 961.84 258.678C962.588 259.426 963.008 260.439 963.01 261.496V580.003C963.008 581.06 962.588 582.074 961.841 582.821C961.093 583.568 960.08 583.989 959.023 583.99V583.99ZM616.051 259.101C615.417 259.102 614.81 259.354 614.363 259.802C613.915 260.25 613.662 260.857 613.661 261.49V580.003C613.662 580.637 613.915 581.244 614.363 581.692C614.81 582.14 615.417 582.392 616.051 582.393H959.023C959.657 582.392 960.264 582.14 960.712 581.692C961.16 581.244 961.412 580.637 961.413 580.003V261.496C961.412 260.862 961.159 260.255 960.711 259.807C960.264 259.359 959.657 259.107 959.023 259.106L616.051 259.101Z" fill="#E6E6E6"/>
<path d="M705.701 385C704.984 385.001 704.297 385.287 703.791 385.794C703.284 386.302 703 386.989 703 387.706C703 388.423 703.284 389.111 703.791 389.618C704.297 390.126 704.984 390.411 705.701 390.413H854.203C854.92 390.411 855.607 390.126 856.114 389.618C856.62 389.111 856.904 388.423 856.904 387.706C856.904 386.989 856.62 386.302 856.114 385.794C855.607 385.287 854.92 385.001 854.203 385H705.701Z" fill="white"/>
<path d="M729.701 401C728.984 401.001 728.297 401.287 727.791 401.795C727.284 402.302 727 402.989 727 403.706C727 404.423 727.284 405.111 727.791 405.618C728.297 406.126 728.984 406.411 729.701 406.413H805.514C806.231 406.411 806.918 406.126 807.425 405.618C807.931 405.111 808.216 404.423 808.216 403.706C808.216 402.989 807.931 402.302 807.425 401.795C806.918 401.287 806.231 401.001 805.514 401H729.701Z" fill="white"/>
<path d="M648.701 437C647.984 437.001 647.297 437.287 646.791 437.794C646.284 438.302 646 438.989 646 439.706C646 440.423 646.284 441.111 646.791 441.618C647.297 442.126 647.984 442.411 648.701 442.413H927.143C927.86 442.411 928.547 442.126 929.054 441.618C929.56 441.111 929.845 440.423 929.845 439.706C929.845 438.989 929.56 438.302 929.054 437.794C928.547 437.287 927.86 437.001 927.143 437H648.701Z" fill="#E6E6E6"/>
<path d="M648.701 453C647.984 453.001 647.297 453.287 646.791 453.794C646.284 454.302 646 454.989 646 455.706C646 456.423 646.284 457.111 646.791 457.618C647.297 458.126 647.984 458.411 648.701 458.413H854.455C855.171 458.411 855.859 458.126 856.365 457.618C856.871 457.111 857.156 456.423 857.156 455.706C857.156 454.989 856.871 454.302 856.365 453.794C855.859 453.287 855.171 453.001 854.455 453H648.701Z" fill="#E6E6E6"/>
<path d="M648.701 469C647.984 469.001 647.297 469.287 646.791 469.795C646.284 470.302 646 470.989 646 471.706C646 472.423 646.284 473.111 646.791 473.618C647.297 474.126 647.984 474.411 648.701 474.413H927.143C927.86 474.411 928.547 474.126 929.054 473.618C929.56 473.111 929.845 472.423 929.845 471.706C929.845 470.989 929.56 470.302 929.054 469.795C928.547 469.287 927.86 469.001 927.143 469H648.701Z" fill="#E6E6E6"/>
<path d="M648.701 485C647.984 485.001 647.297 485.287 646.791 485.794C646.284 486.302 646 486.989 646 487.706C646 488.423 646.284 489.111 646.791 489.618C647.297 490.126 647.984 490.411 648.701 490.413H854.455C855.171 490.411 855.859 490.126 856.365 489.618C856.871 489.111 857.156 488.423 857.156 487.706C857.156 486.989 856.871 486.302 856.365 485.794C855.859 485.287 855.171 485.001 854.455 485H648.701Z" fill="#E6E6E6"/>
<path d="M901.586 522.047H819.986C818.929 522.045 817.916 521.625 817.169 520.878C816.422 520.13 816.001 519.117 816 518.06V504.986C816.001 503.929 816.422 502.916 817.169 502.169C817.916 501.422 818.929 501.001 819.986 501H901.586C902.643 501.001 903.656 501.422 904.403 502.169C905.151 502.916 905.571 503.929 905.572 504.986V518.06C905.571 519.117 905.151 520.13 904.403 520.878C903.656 521.625 902.643 522.045 901.586 522.047V522.047Z" fill="#557AA1"/>
<path d="M699.286 412.024C698.421 412.084 695.003 411.419 693.778 410.923C690.648 409.657 689.931 409.493 686.814 408.181C680.121 405.369 673.564 402.168 667.373 398.322C662.467 395.272 656.913 392.135 653.206 387.576C649.27 382.733 646.373 376.546 644.977 370.458C643.432 363.717 643.784 356.452 646.572 350.176C650.292 341.791 657.566 337.01 665.994 335.913C664.972 336.84 664.004 337.879 663.104 339.025C658.894 344.403 656.806 351.35 656.689 358.253C656.587 364.497 657.92 371.208 660.577 376.874C663.085 382.214 667.73 386.632 671.765 390.809C676.855 396.077 682.453 400.812 688.283 405.199C691.309 407.482 695.419 411.306 699.286 412.024Z" fill="#F9AD42"/>
<path d="M698.184 409.821C694.879 408.719 693.122 407.008 690.275 404.809C684.552 400.398 679.054 395.641 674.051 390.353C670.085 386.162 665.521 381.723 663.044 376.373C660.419 370.697 659.085 363.983 659.161 357.74C659.246 350.836 661.26 343.903 665.358 338.544C666.235 337.399 667.176 336.367 668.172 335.445C670.002 335.211 671.888 335.156 673.801 335.286C675.722 335.415 676.317 335.964 678.229 336.296C675.172 339.993 672.555 344.514 671.336 349.262C669.796 355.266 669.516 362.091 670.741 368.242C671.896 374.039 675.295 379.484 678.174 384.547C681.802 390.928 686.04 396.923 690.572 402.64C692.801 405.449 694.879 407.617 698.184 409.821Z" fill="#7CBD27"/>
<path d="M742.251 337.111C740.964 335.167 740.136 335.026 738.946 333.806C734.998 329.758 728.874 327.909 723.523 327.196C714.784 326.033 706.432 328.355 699.013 333.601C695.065 336.392 691.785 340.179 689.407 344.434C686.396 349.82 684.442 356.302 684.145 362.511C683.867 368.361 685.91 374.432 687.524 379.998C689.566 387.025 692.302 393.826 695.404 400.439C696.847 403.521 698.456 406.517 699.94 409.575C700.517 410.769 700.968 411.824 701.643 412.374L701.646 412.379C700.857 412.013 700.162 411.096 699.313 410.082C697.135 407.479 694.854 404.969 692.71 402.332C688.108 396.681 683.809 390.755 680.137 384.444C677.223 379.438 673.779 374.052 672.632 368.302C671.415 362.203 671.743 355.426 673.353 349.456C674.625 344.733 676.887 340.248 680.04 336.562C680.393 336.621 680.743 336.674 681.092 336.737C683.077 337.106 685.262 338.289 687.308 337.83C689.715 337.287 690.473 334.908 692.676 332.705C692.676 332.705 694.979 330.55 695.981 329.4C696.467 328.838 696.558 328.826 697.083 328.298C700.965 324.385 706.098 321.449 711.448 320.131C719.361 318.177 728.104 320.193 734.288 325.533C737.606 328.395 741.528 332.727 742.251 337.111Z" fill="#298FFB"/>
<path d="M716.747 329.391C710.854 329.6 705.958 331.719 704.634 332.287C702.868 333.049 701.194 334.01 699.627 335.127C695.712 337.917 692.461 341.706 690.108 345.967C687.127 351.359 686.167 356.876 685.883 363.098C685.618 368.96 687.658 375.049 689.272 380.63C691.312 387.676 694.042 394.498 697.133 401.131C698.715 404.555 698.341 404.453 700.388 408.719C700.962 409.917 701.373 411.735 702.044 412.288C703.693 410.923 704.284 410.214 704.794 408.719C708.357 398.315 715.372 392.025 722.858 384.456C730.764 376.462 738.117 367.98 741.395 356.854C741.655 355.966 741.892 355.069 742.098 354.164C742.53 352.258 742.834 350.27 742.991 348.251C743.238 345.162 743.142 341.998 742.633 338.927C740.679 337.318 733.045 328.814 716.747 329.391Z" fill="#26415E"/>
<path d="M766.266 336.182H776.325C778.486 336.182 780.329 336.507 781.852 337.158C783.376 337.81 784.541 338.773 785.348 340.049C786.169 341.312 786.579 342.875 786.579 344.737C786.579 346.156 786.318 347.406 785.797 348.487C785.277 349.567 784.541 350.479 783.59 351.221C782.64 351.95 781.507 352.517 780.192 352.92L778.708 353.643H769.665L769.626 349.756H776.403C777.575 349.756 778.551 349.548 779.333 349.131C780.114 348.714 780.7 348.148 781.09 347.432C781.494 346.703 781.696 345.882 781.696 344.971C781.696 343.981 781.501 343.122 781.11 342.393C780.732 341.651 780.146 341.084 779.352 340.694C778.558 340.29 777.549 340.088 776.325 340.088H771.169V364.619H766.266V336.182ZM782.497 364.619L775.817 351.846L780.954 351.826L787.731 364.366V364.619H782.497ZM796.032 343.487V364.619H791.305V343.487H796.032ZM790.993 337.94C790.993 337.224 791.227 336.631 791.696 336.162C792.178 335.681 792.842 335.44 793.688 335.44C794.521 335.44 795.179 335.681 795.661 336.162C796.142 336.631 796.383 337.224 796.383 337.94C796.383 338.643 796.142 339.229 795.661 339.698C795.179 340.166 794.521 340.401 793.688 340.401C792.842 340.401 792.178 340.166 791.696 339.698C791.227 339.229 790.993 338.643 790.993 337.94ZM814.723 343.487H819.001V364.033C819.001 365.935 818.597 367.549 817.79 368.877C816.982 370.205 815.856 371.214 814.411 371.905C812.965 372.608 811.292 372.959 809.391 372.959C808.584 372.959 807.685 372.842 806.696 372.608C805.719 372.373 804.769 371.996 803.844 371.475C802.933 370.967 802.171 370.297 801.559 369.463L803.766 366.69C804.521 367.588 805.355 368.246 806.266 368.662C807.178 369.079 808.135 369.287 809.137 369.287C810.218 369.287 811.136 369.086 811.891 368.682C812.659 368.291 813.252 367.712 813.669 366.944C814.085 366.175 814.294 365.238 814.294 364.131V348.272L814.723 343.487ZM800.368 354.287V353.877C800.368 352.276 800.563 350.817 800.954 349.502C801.344 348.174 801.904 347.035 802.633 346.084C803.363 345.121 804.248 344.385 805.29 343.877C806.331 343.356 807.51 343.096 808.825 343.096C810.192 343.096 811.357 343.343 812.321 343.838C813.297 344.333 814.111 345.043 814.762 345.967C815.413 346.879 815.921 347.972 816.286 349.248C816.663 350.511 816.943 351.918 817.126 353.467V354.776C816.956 356.286 816.67 357.666 816.266 358.916C815.863 360.166 815.329 361.247 814.665 362.158C814.001 363.07 813.18 363.773 812.204 364.268C811.24 364.763 810.101 365.01 808.786 365.01C807.497 365.01 806.331 364.743 805.29 364.209C804.261 363.675 803.376 362.927 802.633 361.963C801.904 361 801.344 359.867 800.954 358.565C800.563 357.25 800.368 355.824 800.368 354.287ZM805.075 353.877V354.287C805.075 355.251 805.166 356.149 805.348 356.983C805.544 357.816 805.836 358.552 806.227 359.19C806.631 359.815 807.139 360.31 807.751 360.674C808.376 361.026 809.111 361.201 809.958 361.201C811.064 361.201 811.969 360.967 812.672 360.498C813.389 360.03 813.935 359.398 814.313 358.604C814.704 357.797 814.977 356.898 815.133 355.908V352.373C815.055 351.605 814.892 350.889 814.645 350.225C814.411 349.561 814.092 348.981 813.688 348.487C813.284 347.979 812.777 347.588 812.165 347.315C811.553 347.028 810.83 346.885 809.997 346.885C809.15 346.885 808.415 347.067 807.79 347.432C807.165 347.797 806.65 348.298 806.247 348.936C805.856 349.574 805.563 350.316 805.368 351.162C805.172 352.009 805.075 352.914 805.075 353.877ZM828.532 334.619V364.619H823.844V334.619H828.532ZM827.711 353.272L826.188 353.252C826.201 351.794 826.403 350.446 826.794 349.209C827.197 347.972 827.757 346.898 828.473 345.987C829.202 345.062 830.075 344.353 831.09 343.858C832.106 343.35 833.232 343.096 834.469 343.096C835.511 343.096 836.448 343.239 837.282 343.526C838.128 343.812 838.857 344.274 839.469 344.912C840.081 345.537 840.544 346.358 840.856 347.373C841.182 348.376 841.344 349.6 841.344 351.045V364.619H836.618V351.006C836.618 349.991 836.468 349.183 836.169 348.584C835.882 347.985 835.459 347.556 834.899 347.295C834.339 347.022 833.655 346.885 832.848 346.885C832.002 346.885 831.253 347.054 830.602 347.393C829.964 347.731 829.43 348.194 829.001 348.78C828.571 349.366 828.245 350.043 828.024 350.811C827.816 351.579 827.711 352.399 827.711 353.272ZM855.797 343.487V346.924H843.883V343.487H855.797ZM847.321 338.311H852.028V358.78C852.028 359.431 852.119 359.932 852.301 360.283C852.497 360.622 852.764 360.85 853.102 360.967C853.441 361.084 853.838 361.143 854.294 361.143C854.619 361.143 854.932 361.123 855.231 361.084C855.53 361.045 855.771 361.006 855.954 360.967L855.973 364.561C855.583 364.678 855.127 364.782 854.606 364.873C854.098 364.964 853.512 365.01 852.848 365.01C851.767 365.01 850.81 364.821 849.977 364.444C849.144 364.053 848.493 363.422 848.024 362.549C847.555 361.677 847.321 360.518 847.321 359.073V338.311ZM871.286 358.897C871.286 358.428 871.169 358.005 870.934 357.627C870.7 357.237 870.251 356.885 869.586 356.573C868.935 356.26 867.972 355.974 866.696 355.713C865.576 355.466 864.547 355.173 863.61 354.834C862.685 354.483 861.891 354.06 861.227 353.565C860.563 353.07 860.049 352.484 859.684 351.807C859.32 351.13 859.137 350.349 859.137 349.463C859.137 348.604 859.326 347.79 859.704 347.022C860.081 346.254 860.622 345.576 861.325 344.991C862.028 344.405 862.881 343.942 863.883 343.604C864.899 343.265 866.032 343.096 867.282 343.096C869.053 343.096 870.57 343.395 871.833 343.994C873.109 344.58 874.085 345.381 874.762 346.397C875.439 347.399 875.778 348.532 875.778 349.795H871.071C871.071 349.235 870.928 348.714 870.641 348.233C870.368 347.738 869.951 347.341 869.391 347.041C868.831 346.729 868.128 346.573 867.282 346.573C866.475 346.573 865.804 346.703 865.27 346.963C864.749 347.211 864.359 347.536 864.098 347.94C863.851 348.343 863.727 348.786 863.727 349.268C863.727 349.619 863.792 349.938 863.922 350.225C864.066 350.498 864.3 350.752 864.626 350.987C864.951 351.208 865.394 351.416 865.954 351.612C866.527 351.807 867.243 351.996 868.102 352.178C869.717 352.517 871.103 352.953 872.262 353.487C873.434 354.007 874.333 354.685 874.958 355.518C875.583 356.338 875.895 357.38 875.895 358.643C875.895 359.58 875.693 360.44 875.29 361.221C874.899 361.989 874.326 362.66 873.571 363.233C872.816 363.793 871.911 364.229 870.856 364.541C869.814 364.854 868.642 365.01 867.34 365.01C865.426 365.01 863.805 364.672 862.477 363.994C861.149 363.304 860.14 362.425 859.45 361.358C858.773 360.277 858.434 359.157 858.434 357.998H862.985C863.037 358.871 863.278 359.567 863.708 360.088C864.15 360.596 864.697 360.967 865.348 361.201C866.012 361.423 866.696 361.533 867.399 361.533C868.245 361.533 868.955 361.423 869.528 361.201C870.101 360.967 870.537 360.655 870.836 360.264C871.136 359.86 871.286 359.405 871.286 358.897ZM772.165 404.619H767.458V381.455C767.458 379.88 767.751 378.558 768.336 377.491C768.935 376.41 769.788 375.596 770.895 375.049C772.002 374.489 773.31 374.209 774.821 374.209C775.29 374.209 775.752 374.242 776.208 374.307C776.663 374.359 777.106 374.444 777.536 374.561L777.419 378.194C777.158 378.129 776.872 378.083 776.559 378.057C776.26 378.031 775.934 378.018 775.583 378.018C774.866 378.018 774.248 378.155 773.727 378.428C773.219 378.688 772.829 379.073 772.555 379.58C772.295 380.088 772.165 380.713 772.165 381.455V404.619ZM776.52 383.487V386.924H764.215V383.487H776.52ZM779.04 394.287V393.838C779.04 392.315 779.261 390.902 779.704 389.6C780.146 388.285 780.784 387.145 781.618 386.182C782.464 385.205 783.493 384.45 784.704 383.916C785.928 383.369 787.308 383.096 788.844 383.096C790.394 383.096 791.774 383.369 792.985 383.916C794.209 384.45 795.244 385.205 796.09 386.182C796.937 387.145 797.581 388.285 798.024 389.6C798.467 390.902 798.688 392.315 798.688 393.838V394.287C798.688 395.811 798.467 397.224 798.024 398.526C797.581 399.828 796.937 400.967 796.09 401.944C795.244 402.907 794.215 403.662 793.004 404.209C791.794 404.743 790.42 405.01 788.883 405.01C787.334 405.01 785.947 404.743 784.723 404.209C783.512 403.662 782.484 402.907 781.637 401.944C780.791 400.967 780.146 399.828 779.704 398.526C779.261 397.224 779.04 395.811 779.04 394.287ZM783.747 393.838V394.287C783.747 395.238 783.844 396.136 784.04 396.983C784.235 397.829 784.541 398.571 784.958 399.209C785.374 399.847 785.908 400.349 786.559 400.713C787.21 401.078 787.985 401.26 788.883 401.26C789.756 401.26 790.511 401.078 791.149 400.713C791.8 400.349 792.334 399.847 792.751 399.209C793.167 398.571 793.473 397.829 793.669 396.983C793.877 396.136 793.981 395.238 793.981 394.287V393.838C793.981 392.901 793.877 392.015 793.669 391.182C793.473 390.336 793.161 389.587 792.731 388.936C792.314 388.285 791.78 387.777 791.129 387.412C790.491 387.035 789.73 386.846 788.844 386.846C787.959 386.846 787.191 387.035 786.54 387.412C785.902 387.777 785.374 388.285 784.958 388.936C784.541 389.587 784.235 390.336 784.04 391.182C783.844 392.015 783.747 392.901 783.747 393.838ZM807.36 387.51V404.619H802.653V383.487H807.145L807.36 387.51ZM813.825 383.35L813.786 387.725C813.499 387.673 813.187 387.634 812.848 387.608C812.523 387.582 812.197 387.569 811.872 387.569C811.064 387.569 810.355 387.686 809.743 387.92C809.131 388.142 808.616 388.467 808.2 388.897C807.796 389.313 807.484 389.821 807.262 390.42C807.041 391.019 806.911 391.69 806.872 392.432L805.797 392.51C805.797 391.182 805.928 389.951 806.188 388.819C806.448 387.686 806.839 386.69 807.36 385.83C807.894 384.971 808.558 384.3 809.352 383.819C810.159 383.337 811.09 383.096 812.145 383.096C812.432 383.096 812.738 383.122 813.063 383.174C813.402 383.226 813.655 383.285 813.825 383.35ZM836.032 388.057V391.944H820.934V388.057H836.032ZM822.145 376.182V404.619H817.243V376.182H822.145ZM839.801 376.182V404.619H834.919V376.182H839.801ZM854.489 405.01C852.926 405.01 851.514 404.756 850.251 404.248C849.001 403.728 847.933 403.005 847.047 402.08C846.175 401.156 845.504 400.069 845.036 398.819C844.567 397.569 844.333 396.221 844.333 394.776V393.994C844.333 392.341 844.573 390.843 845.055 389.502C845.537 388.161 846.208 387.015 847.067 386.065C847.926 385.101 848.942 384.366 850.114 383.858C851.286 383.35 852.555 383.096 853.922 383.096C855.433 383.096 856.754 383.35 857.887 383.858C859.02 384.366 859.958 385.082 860.7 386.006C861.455 386.918 862.015 388.005 862.379 389.268C862.757 390.531 862.946 391.924 862.946 393.448V395.459H846.618V392.08H858.297V391.709C858.271 390.863 858.102 390.069 857.79 389.326C857.49 388.584 857.028 387.985 856.403 387.53C855.778 387.074 854.945 386.846 853.903 386.846C853.122 386.846 852.425 387.015 851.813 387.354C851.214 387.679 850.713 388.155 850.309 388.78C849.905 389.405 849.593 390.16 849.372 391.045C849.163 391.918 849.059 392.901 849.059 393.994V394.776C849.059 395.7 849.183 396.56 849.43 397.354C849.691 398.135 850.068 398.819 850.563 399.405C851.058 399.991 851.657 400.453 852.36 400.791C853.063 401.117 853.864 401.28 854.762 401.28C855.895 401.28 856.904 401.052 857.79 400.596C858.675 400.14 859.443 399.496 860.094 398.662L862.575 401.065C862.119 401.729 861.527 402.367 860.797 402.979C860.068 403.578 859.176 404.066 858.122 404.444C857.08 404.821 855.869 405.01 854.489 405.01ZM878.532 400.381V390.303C878.532 389.548 878.395 388.897 878.122 388.35C877.848 387.803 877.432 387.38 876.872 387.08C876.325 386.781 875.635 386.631 874.801 386.631C874.033 386.631 873.369 386.761 872.809 387.022C872.249 387.282 871.813 387.634 871.501 388.076C871.188 388.519 871.032 389.02 871.032 389.58H866.344C866.344 388.747 866.546 387.94 866.95 387.158C867.353 386.377 867.939 385.681 868.708 385.069C869.476 384.457 870.394 383.975 871.461 383.623C872.529 383.272 873.727 383.096 875.055 383.096C876.644 383.096 878.05 383.363 879.274 383.897C880.511 384.431 881.481 385.238 882.184 386.319C882.9 387.386 883.258 388.728 883.258 390.342V399.737C883.258 400.7 883.323 401.566 883.454 402.334C883.597 403.089 883.799 403.747 884.059 404.307V404.619H879.235C879.014 404.112 878.838 403.467 878.708 402.686C878.59 401.892 878.532 401.123 878.532 400.381ZM879.215 391.768L879.254 394.678H875.876C875.003 394.678 874.235 394.763 873.571 394.932C872.907 395.088 872.353 395.323 871.911 395.635C871.468 395.948 871.136 396.325 870.915 396.768C870.693 397.211 870.583 397.712 870.583 398.272C870.583 398.832 870.713 399.346 870.973 399.815C871.234 400.27 871.611 400.629 872.106 400.889C872.614 401.149 873.226 401.28 873.942 401.28C874.905 401.28 875.745 401.084 876.461 400.694C877.191 400.29 877.764 399.802 878.18 399.229C878.597 398.643 878.818 398.089 878.844 397.569L880.368 399.658C880.211 400.192 879.945 400.765 879.567 401.377C879.189 401.989 878.695 402.575 878.083 403.135C877.484 403.682 876.761 404.131 875.915 404.483C875.081 404.834 874.118 405.01 873.024 405.01C871.644 405.01 870.413 404.737 869.333 404.19C868.252 403.63 867.405 402.881 866.794 401.944C866.182 400.993 865.876 399.919 865.876 398.721C865.876 397.601 866.084 396.612 866.501 395.752C866.93 394.88 867.555 394.151 868.376 393.565C869.209 392.979 870.225 392.536 871.422 392.237C872.62 391.924 873.988 391.768 875.524 391.768H879.215ZM893.219 374.619V404.619H888.493V374.619H893.219ZM908.063 383.487V386.924H896.149V383.487H908.063ZM899.586 378.311H904.294V398.78C904.294 399.431 904.385 399.932 904.567 400.283C904.762 400.622 905.029 400.85 905.368 400.967C905.706 401.084 906.103 401.143 906.559 401.143C906.885 401.143 907.197 401.123 907.497 401.084C907.796 401.045 908.037 401.006 908.219 400.967L908.239 404.561C907.848 404.678 907.392 404.782 906.872 404.873C906.364 404.964 905.778 405.01 905.114 405.01C904.033 405.01 903.076 404.821 902.243 404.444C901.409 404.053 900.758 403.422 900.29 402.549C899.821 401.677 899.586 400.518 899.586 399.073V378.311ZM916.344 374.619V404.619H911.657V374.619H916.344ZM915.524 393.272L914.001 393.252C914.014 391.794 914.215 390.446 914.606 389.209C915.01 387.972 915.57 386.898 916.286 385.987C917.015 385.062 917.887 384.353 918.903 383.858C919.919 383.35 921.045 383.096 922.282 383.096C923.323 383.096 924.261 383.239 925.094 383.526C925.941 383.812 926.67 384.274 927.282 384.912C927.894 385.537 928.356 386.358 928.669 387.373C928.994 388.376 929.157 389.6 929.157 391.045V404.619H924.43V391.006C924.43 389.991 924.28 389.183 923.981 388.584C923.695 387.985 923.271 387.556 922.711 387.295C922.152 387.022 921.468 386.885 920.661 386.885C919.814 386.885 919.066 387.054 918.415 387.393C917.777 387.731 917.243 388.194 916.813 388.78C916.383 389.366 916.058 390.043 915.836 390.811C915.628 391.579 915.524 392.399 915.524 393.272Z" fill="#555555"/>
<path d="M556.299 335.301L332.612 223.396L334.09 220.571L557.776 332.476L556.299 335.301Z" fill="#E5E5E5"/>
<path d="M-1.05061e-05 166.618C0.00770904 197.324 8.6832 227.431 25.0704 253.622C41.4575 279.812 64.9201 301.07 92.8721 315.051C94.3156 315.781 95.7764 316.495 97.2366 317.162C98.0961 317.574 98.9565 317.955 99.8161 318.336C101.926 319.272 104.067 320.177 106.225 321.018C113.901 324.087 121.804 326.586 129.865 328.492C131.001 328.777 132.169 329.031 133.321 329.285C136.225 329.92 139.151 330.47 142.098 330.935C158.187 333.57 174.577 333.944 190.773 332.046C194.132 331.665 197.463 331.179 200.768 330.586C202.342 330.301 203.916 329.999 205.473 329.682C205.684 329.634 205.895 329.587 206.106 329.555C211.697 328.404 217.221 326.963 222.655 325.239C225.576 324.318 228.481 323.334 231.32 322.255C232.796 321.7 234.256 321.129 235.7 320.542C236.414 320.256 237.128 319.955 237.826 319.653C266.063 307.748 290.479 288.591 308.486 264.213C326.493 239.835 337.418 211.146 340.104 181.188C342.79 151.229 337.136 121.118 323.741 94.0479C310.347 66.9776 289.712 43.9571 264.024 27.4275C238.336 10.898 208.553 1.47563 177.833 0.159646C147.113 -1.15634 116.602 5.68313 89.5348 19.9527C62.4675 34.2223 39.8533 55.3901 24.0902 81.2113C8.32709 107.033 0.00276284 136.545 -1.05061e-05 166.618Z" fill="#F1F1F1"/>
<path d="M64.5979 106.022C70.2004 87.3305 82.9406 70.187 100.56 63.8681C118.18 57.5492 143.981 67.1749 157.228 80.9957C181.458 106.277 187.371 193.125 170.724 220.571C167.413 220.387 155.987 220.252 152.636 220.12L147.895 203.578V219.957C142.556 219.784 137.175 219.665 131.752 219.599C113.571 219.363 96.1848 211.757 83.2495 198.379C70.3142 185.002 62.8369 166.895 62.3897 147.866C61.9559 129.661 62.3901 113.389 64.5979 106.022Z" fill="#3F3D56"/>
<path d="M124.932 168.205C146.367 168.205 163.742 150.088 163.742 127.741C163.742 105.393 146.367 87.2762 124.932 87.2762C103.498 87.2762 86.1222 105.393 86.1222 127.741C86.1222 150.088 103.498 168.205 124.932 168.205Z" fill="#9E616A"/>
<path d="M92.093 91.954L136.168 68.2341C145.179 72.5983 152.94 79.4739 158.645 88.148C164.35 96.8221 167.792 106.979 168.615 117.564L169.713 131.708L151.257 126.658L149.235 108.573L146.1 125.247L137.583 122.918L137.664 94.8415L129.141 122.898L98.72 115.386L92.093 91.954Z" fill="#3F3D56"/>
<path d="M199.567 228.565C181.083 251.548 155.069 265.667 127.142 267.873C99.2147 270.078 71.6137 260.194 50.2974 240.353L59.4487 212.449C61.5167 207.493 64.7802 203.245 68.8893 200.162C72.9984 197.078 77.7981 195.275 82.7735 194.946L88.5954 194.555L102.477 181.471C102.477 181.471 139.882 180.012 139.327 179.313L161.984 194.206L161.965 194.103L170.872 194.699C175.848 195.027 180.648 196.829 184.757 199.913C188.867 202.997 192.13 207.245 194.197 212.202L199.567 228.565Z" fill="#557AA1"/>
<path d="M311.52 151.021C311.52 150.877 311.52 150.733 311.52 150.589C311.225 144.945 306.462 140.453 300.618 140.453C295.904 140.453 291.902 143.359 290.379 147.442L282.473 146.674C282.473 146.602 282.473 146.53 282.473 146.458C282.473 136.635 277.563 127.94 270 122.585L276.801 111.369C277.759 111.633 278.79 111.801 279.846 111.801C285.862 111.801 290.748 107.022 290.748 101.137C290.748 101.113 290.748 101.113 290.748 101.089C290.748 101.065 290.748 101.065 290.748 101.041C290.748 95.1812 285.911 90.4499 279.895 90.4499H279.871H279.846C273.831 90.4499 268.944 95.2293 268.944 101.113C268.944 104.044 270.172 106.709 272.136 108.655L265.335 119.847C261.407 117.997 256.987 116.965 252.322 116.965C244.661 116.965 237.688 119.751 232.385 124.338L229.193 121.408C230.052 119.871 230.543 118.118 230.543 116.244C230.543 110.36 225.657 105.581 219.642 105.581H219.617H219.593C213.602 105.581 208.74 110.312 208.74 116.172C208.74 116.196 208.74 116.196 208.74 116.22C208.74 116.244 208.74 116.244 208.74 116.268C208.74 122.152 213.626 126.932 219.642 126.932C221.778 126.932 223.767 126.331 225.461 125.299L228.628 128.229C224.577 133.248 222.171 139.589 222.171 146.458C222.171 148.787 222.441 151.069 222.981 153.254L211.539 157.001C209.6 154.047 206.211 152.102 202.356 152.102C196.341 152.102 191.455 156.881 191.455 162.765V162.789V162.813C191.455 168.673 196.292 173.405 202.283 173.405C202.307 173.405 202.307 173.405 202.332 173.405C202.356 173.405 202.356 173.405 202.381 173.405C208.396 173.405 213.282 168.625 213.282 162.741C213.282 162.501 213.282 162.261 213.258 162.045L224.724 158.298C229.389 168.673 239.996 175.927 252.322 175.927C253.697 175.927 255.047 175.83 256.373 175.662L258.141 183.18C254.655 184.957 252.248 188.535 252.248 192.642C252.248 198.527 257.134 203.306 263.15 203.306C263.911 203.306 264.623 203.234 265.335 203.09C270.319 202.105 274.051 197.782 274.051 192.642C274.051 186.854 269.313 182.123 263.42 181.979L261.652 174.461C271.964 171.171 279.846 162.573 281.908 151.958L289.815 152.726C290.625 157.842 295.143 161.756 300.593 161.756C306.437 161.756 311.2 157.265 311.495 151.621C311.495 151.429 311.52 151.261 311.52 151.069C311.52 151.093 311.52 151.069 311.52 151.021ZM271.498 161.252C271.228 159.403 270.344 157.409 267.962 156.833C263.174 155.632 259.271 152.966 259.271 152.966L256.226 162.381L255.661 164.158V164.134L255.17 165.623L253.574 161.18C257.527 155.8 252.788 155.848 252.518 155.872C252.248 155.872 247.51 155.8 251.463 161.18L249.867 165.623L249.376 164.134V164.158L248.811 162.381L245.766 152.966C245.766 152.966 241.862 155.656 237.074 156.833C234.644 157.433 233.784 159.499 233.539 161.396C230.175 157.313 228.162 152.126 228.162 146.482C228.162 133.32 239.063 122.681 252.494 122.681C265.949 122.681 276.826 133.344 276.826 146.482C276.752 152.054 274.788 157.193 271.498 161.252Z" fill="#F9AD42"/>
<path d="M261.382 140.285C261.529 139.877 261.652 139.445 261.726 139.036C263.052 131.207 259.123 130.943 259.123 130.943C259.123 130.943 258.46 129.718 256.742 128.781C255.588 128.109 253.992 127.604 251.855 127.772C251.168 127.796 250.53 127.94 249.916 128.133C249.13 128.397 248.418 128.757 247.78 129.213C246.994 129.694 246.233 130.294 245.57 130.991C244.539 132.023 243.606 133.392 243.188 135.074C242.844 136.322 242.918 137.643 243.213 139.06C243.286 139.469 243.409 139.877 243.556 140.309C242.771 140.237 241.838 140.694 242.722 143.696C243.36 145.905 243.949 146.53 244.416 146.554C244.833 149.172 246.896 152.534 250.309 153.687C251.708 154.167 253.23 154.167 254.63 153.687C257.994 152.51 260.13 149.172 260.547 146.554C260.989 146.53 261.603 145.905 262.241 143.696C263.101 140.67 262.168 140.213 261.382 140.285Z" fill="#F9AD42"/>
<path d="M556.302 435L332.614 546.905L334.092 549.73L557.78 437.825L556.302 435Z" fill="#E5E5E5"/>
<path d="M0.687347 601.65C0.695051 570.754 9.35311 540.461 25.7073 514.108C42.0616 487.755 65.477 466.366 93.3728 452.298C94.8133 451.563 96.2712 450.845 97.7284 450.174C98.5863 449.759 99.4449 449.376 100.303 448.993C102.408 448.051 104.545 447.141 106.699 446.294C114.36 443.206 122.246 440.692 130.291 438.774C131.425 438.487 132.59 438.231 133.74 437.976C136.638 437.337 139.558 436.784 142.5 436.315C158.556 433.664 174.913 433.288 191.077 435.198C194.429 435.581 197.754 436.07 201.052 436.666C202.622 436.954 204.193 437.257 205.748 437.577C205.958 437.624 206.168 437.672 206.379 437.704C211.959 438.862 217.472 440.312 222.895 442.047C225.81 442.973 228.709 443.963 231.542 445.049C233.015 445.608 234.472 446.183 235.914 446.773C236.626 447.061 237.338 447.364 238.035 447.667C266.215 459.646 290.583 478.922 308.553 503.451C326.524 527.979 337.427 556.846 340.107 586.99C342.788 617.134 337.145 647.432 323.778 674.67C310.41 701.908 289.817 725.071 264.18 741.703C238.544 758.335 208.821 767.815 178.163 769.139C147.505 770.463 117.055 763.582 90.0421 749.224C63.0292 734.866 40.4605 713.567 24.7291 687.586C8.99773 661.605 0.690115 631.91 0.687347 601.65Z" fill="#F1F1F1"/>
<path d="M127.277 603.289C148.269 603.289 165.285 584.977 165.285 562.389C165.285 539.8 148.269 521.488 127.277 521.488C106.286 521.488 89.2694 539.8 89.2694 562.389C89.2694 584.977 106.286 603.289 127.277 603.289Z" fill="#FFB8B8"/>
<path d="M206.059 667.929C187.574 690.562 161.561 704.465 133.633 706.637C105.705 708.809 78.1042 699.075 56.7878 679.538L65.9391 652.059C68.0071 647.179 71.2707 642.996 75.3798 639.96C79.4889 636.923 84.2886 635.148 89.2641 634.823L95.086 634.439L108.968 621.555C108.968 621.555 146.373 620.117 145.818 619.429L168.475 634.095L168.456 633.993L177.363 634.58C182.339 634.903 187.139 636.678 191.249 639.715C195.358 642.751 198.621 646.935 200.688 651.816L206.059 667.929Z" fill="#557AA1"/>
<path d="M167.377 548.045C167.643 544.991 167.765 541.925 167.743 538.858C167.898 532.792 166.865 526.759 164.712 521.151C162.063 514.942 157.34 510.032 151.482 507.398C145.675 504.878 139.186 504.884 133.384 507.415C128.145 503.853 122.324 501.03 116.194 500.68C110.064 500.33 103.583 502.777 99.8056 508.164C98.9621 509.586 98.0039 510.926 96.9424 512.167C93.9058 515.193 89.2911 514.757 85.255 514.138C87.0652 515.808 88.876 517.477 90.6872 519.147C88.4959 519.763 86.3044 520.379 84.1127 520.995C86.6701 522.664 89.2272 524.333 91.7842 526.002C84.3603 530.797 80.986 541.263 81.8774 550.768C82.7206 559.767 86.7581 567.996 91.5845 575.311C93.5098 570.939 93.095 565.707 93.0632 560.783C93.0456 559.185 93.1361 557.589 93.3342 556.006C109.645 560.213 126.689 562.914 143.972 556.231L147.441 547.096C147.928 547.15 148.415 547.201 148.901 547.256L150.911 556.24C155.467 558.244 160.032 559.995 164.599 558.155C164.821 559.542 164.955 560.958 165.058 562.319C165.45 560.691 165.79 559.051 166.097 557.405C166.7 557.056 167.278 556.659 167.826 556.216C167.936 553.483 167.786 550.745 167.377 548.045V548.045Z" fill="#2F2E41"/>
<path d="M278.056 617.979C274.871 616.016 278.105 618.005 278.056 617.979H209.295H201.191C196.61 617.979 193.079 616.998 193.079 612.168V606.796H199.766L203.625 606.965V579.264V551.395C203.625 547.03 205.155 546.665 209.295 546.665H244.999H265.28H285.561C289.701 546.665 290.429 547.03 290.429 551.395V564.412V575.725C287.933 575.714 290.406 575.725 289.966 575.725C287.124 575.725 286.311 575.957 284.474 576.241C283.91 575.26 283.322 574.278 282.734 573.297V554.313H210.348V606.848H236.486V607.39C236.486 609.043 237.759 610.386 239.327 610.386H253.682C255.25 610.386 256.523 609.043 256.523 607.39V606.848H261.766C263.652 607.984 265.538 609.353 267.498 611.032C268.012 611.497 268.649 611.962 269.286 612.478C269.972 612.995 270.658 613.537 271.123 614.002C273.597 616.301 276.145 617.334 278.056 617.979ZM311.86 606.873C311.566 605.814 311.052 604.213 310.758 602.328C310.513 595.122 307.696 587.425 306.618 584.636C306.398 583.887 305.859 583.422 305.222 583.137C293.317 578.721 282.097 581.872 282.097 581.872L280.505 579.237C279.256 577.042 277.933 574.95 276.684 572.755C275.263 570.353 273.94 568.028 272.519 565.729C271.515 564.076 269.629 563.56 268.086 564.412C266.542 565.368 265.954 567.15 266.738 568.984C270.168 577.378 273.622 585.643 276.855 594.011C277.149 594.967 277.443 595.922 277.443 596.955C277.419 598.996 276.978 600.701 275.214 599.771C273.181 598.712 268.821 595.767 267.767 595.561C266.077 595.07 264.24 594.76 262.427 595.483C261.619 595.793 260.639 596.723 260.271 597.498C259.536 599.048 259.806 600.106 261.3 600.804C264.632 602.405 267.718 604.601 270.584 607.08C271.662 608.01 273.303 609.12 274.357 610.179C275.949 611.703 277.615 612.504 279.501 613.124C279.501 613.124 286.923 615.603 292.582 621.26C294.443 623.119 297.236 623.326 299.318 621.905L311.958 613.175C313.012 612.375 313.452 610.877 312.914 609.585L311.86 606.873Z" fill="#F9AD42"/>
<path d="M1520.78 571.65C1520.74 598.664 1514.1 625.271 1501.43 649.22C1488.75 673.168 1470.41 693.754 1447.96 709.235C1447.54 709.522 1447.12 709.809 1446.7 710.081C1444.24 711.757 1441.73 713.37 1439.15 714.887C1437.52 715.877 1435.85 716.835 1434.18 717.777C1432.17 718.894 1430.15 719.964 1428.09 721.002C1427.62 721.242 1427.15 721.481 1426.67 721.705C1424.95 722.567 1423.22 723.397 1421.45 724.18C1421.36 724.227 1421.26 724.259 1421.16 724.307C1420.58 724.563 1419.98 724.834 1419.36 725.09C1415.56 726.75 1411.67 728.283 1407.71 729.656C1407.43 729.768 1407.14 729.864 1406.85 729.959C1397.76 733.106 1388.42 735.457 1378.91 736.985C1377.12 737.304 1375.3 737.56 1373.49 737.799C1373.2 737.847 1372.89 737.895 1372.6 737.927C1370.12 738.246 1367.63 738.502 1365.12 738.709C1364.83 738.741 1364.54 738.757 1364.24 738.773C1362.37 738.933 1360.47 739.044 1358.56 739.124C1355.97 739.236 1353.38 739.3 1350.76 739.3C1347.08 739.3 1343.43 739.188 1339.79 738.965C1336.64 738.757 1333.49 738.486 1330.38 738.102C1328.49 737.879 1326.6 737.623 1324.73 737.336C1322.68 737.033 1320.62 736.681 1318.6 736.298C1317.59 736.107 1316.59 735.899 1315.58 735.691C1315.42 735.66 1315.24 735.628 1315.08 735.596C1313.46 735.26 1311.86 734.909 1310.27 734.51C1303.98 733.013 1297.78 731.146 1291.72 728.922C1289.64 728.155 1287.59 727.357 1285.55 726.527C1284.92 726.271 1284.28 726 1283.67 725.728C1282.55 725.265 1281.45 724.77 1280.35 724.275C1279.52 723.908 1278.7 723.525 1277.87 723.142C1276.12 722.343 1274.41 721.497 1272.69 720.619C1271.31 719.932 1269.94 719.198 1268.59 718.463C1268.56 718.447 1268.54 718.431 1268.51 718.415C1242.27 704.118 1220.33 683.233 1204.91 657.876C1189.49 632.52 1181.15 603.595 1180.72 574.034C1180.3 544.473 1187.81 515.326 1202.49 489.55C1217.18 463.774 1238.51 442.285 1264.34 427.262C1290.16 412.238 1319.55 404.214 1349.53 404.004C1379.52 403.794 1409.02 411.405 1435.06 426.065C1461.1 440.725 1482.74 461.913 1497.79 487.48C1512.85 513.048 1520.78 542.086 1520.78 571.65V571.65Z" fill="#F1F1F1"/>
<path d="M964.474 421.338L963 424.18L1186.26 536.745L1187.73 533.903L964.474 421.338Z" fill="#E5E5E5"/>
<path d="M1363.03 568.998C1356.84 568.568 1350.62 569.342 1344.75 571.275C1338.87 573.207 1333.45 576.259 1328.81 580.25C1324.16 584.242 1320.39 589.093 1317.71 594.518C1315.02 599.944 1313.49 605.834 1313.19 611.844L1310.25 661.856C1312.11 662.794 1313.98 663.699 1315.88 664.552C1316.78 664.961 1317.67 665.371 1318.57 665.763C1319.77 666.292 1320.97 666.821 1322.18 667.316C1322.85 667.606 1323.53 667.896 1324.22 668.169C1326.44 669.057 1328.67 669.91 1330.93 670.729C1337.52 673.107 1344.26 675.101 1351.1 676.701C1352.82 677.128 1354.56 677.503 1356.32 677.861C1356.5 677.895 1356.69 677.929 1356.87 677.964C1357.96 678.185 1359.05 678.407 1360.14 678.612L1363.87 569.049L1363.03 568.998Z" fill="#2F2E41"/>
<path d="M1410.7 681.189C1413.43 680.967 1416.14 680.694 1418.83 680.353C1419.15 680.318 1419.49 680.267 1419.8 680.216C1421.77 679.96 1423.74 679.687 1425.7 679.346C1425.86 674.722 1425.8 671.394 1425.8 670.985L1434.55 582.614L1416.32 572.308L1412.76 570.295L1357.64 568.571L1357.18 568.947L1330.72 591.197L1322.18 667.316C1322.85 667.606 1323.53 667.896 1324.22 668.169C1326.44 669.057 1328.67 669.91 1330.93 670.729C1337.52 673.106 1344.26 675.101 1351.1 676.701C1352.82 677.128 1354.56 677.503 1356.32 677.861C1356.5 677.895 1356.69 677.929 1356.87 677.964C1357.96 678.185 1359.05 678.407 1360.14 678.612C1362.34 679.022 1364.58 679.397 1366.81 679.721C1368.84 680.028 1370.89 680.301 1372.95 680.54C1376.33 680.95 1379.75 681.24 1383.18 681.462C1387.12 681.7 1391.09 681.82 1395.09 681.82C1397.94 681.82 1400.76 681.752 1403.58 681.632C1405.65 681.547 1407.71 681.427 1409.75 681.257L1410.7 681.189Z" fill="#557AA1"/>
<path d="M1447.57 590.225L1416.35 571.728L1416.32 572.308L1410.7 681.189C1413.43 680.967 1416.14 680.694 1418.83 680.353C1419.15 680.318 1419.49 680.267 1419.8 680.216C1421.77 679.96 1423.74 679.687 1425.7 679.346C1436.02 677.713 1446.18 675.201 1456.06 671.838C1456.37 671.736 1456.69 671.633 1456.99 671.514L1459.21 610.462C1459.36 606.38 1458.36 602.335 1456.31 598.767C1454.26 595.199 1451.24 592.245 1447.57 590.225V590.225Z" fill="#2F2E41"/>
<path d="M1379.05 556.787C1400.44 556.787 1417.78 539.974 1417.78 519.234C1417.78 498.494 1400.44 481.681 1379.05 481.681C1357.66 481.681 1340.31 498.494 1340.31 519.234C1340.31 539.974 1357.66 556.787 1379.05 556.787Z" fill="#9F616A"/>
<path d="M1365.04 463.784C1404.05 452.878 1415.12 484.225 1415.12 484.225C1433.93 496.319 1422.15 511.483 1422.15 511.483C1426.9 512.504 1417.41 539.423 1414.25 538.742C1412.56 538.378 1408.22 543.401 1404.54 548.164C1403.28 548.163 1402.02 548.28 1400.78 548.515L1407.92 522.898C1407.92 522.898 1383.85 519.322 1376.47 508.079C1369.41 497.322 1346.16 493.925 1339.54 501.111C1339.15 499.045 1338.35 497.072 1337.18 495.303C1336.28 493.958 1335.1 492.81 1333.72 491.931C1339.56 467.831 1365.04 463.784 1365.04 463.784Z" fill="#2F2E41"/>
<path opacity="0.2" d="M1409.75 681.257C1407.71 681.427 1405.65 681.547 1403.58 681.632L1409 652.761V654.758L1409.75 681.257Z" fill="black"/>
<path d="M1259.06 539.268V533.564C1255.38 529.038 1252.88 523.023 1248.66 519.216C1243.86 514.894 1237.96 513.336 1232.18 514.42C1227.2 515.354 1221.6 516.845 1216.73 514.582C1216.29 514.379 1215.87 514.921 1216.04 515.463C1217.52 520.191 1223.4 534.648 1239.61 536.233C1251.64 537.411 1256.49 538.265 1259.06 539.268Z" fill="#F9AD42"/>
<path d="M1313.94 514.596C1309.06 516.858 1303.46 515.368 1298.48 514.433C1292.7 513.349 1286.8 514.907 1282 519.229C1277.78 523.023 1275.28 529.038 1271.6 533.577V539.281C1274.17 538.279 1279.02 537.411 1291.05 536.233C1307.25 534.648 1313.13 520.191 1314.63 515.476C1314.8 514.934 1314.37 514.392 1313.94 514.596Z" fill="#F9AD42"/>
<path d="M1260.94 528.158C1261.48 528.795 1262.12 529.323 1262.81 529.689V557.924L1260.94 556.8L1259.06 555.675L1250.5 550.567H1256.65C1257.72 550.567 1258.63 549.687 1258.95 548.467C1259.04 548.156 1259.08 547.83 1259.08 547.492V544.457C1259.08 544.118 1259.04 543.779 1258.95 543.481C1258.63 542.262 1257.72 541.381 1256.65 541.381H1246.15C1244.8 541.381 1243.72 542.763 1243.72 544.457V554.645C1243.72 555.865 1244.29 556.962 1245.15 557.45L1257.01 564.197L1249.7 569.725C1248.96 570.281 1248.51 571.283 1248.51 572.367V573.776C1248.51 574.968 1249.05 576.052 1249.91 576.567L1257.57 581.119L1252.57 584.656C1251.8 585.198 1251.33 586.227 1251.33 587.338V588.815C1251.33 589.994 1251.86 591.078 1252.7 591.592L1257.98 594.831L1253.19 599.031C1252.54 599.6 1252.14 600.548 1252.14 601.564V603.515C1252.14 604.762 1252.74 605.886 1253.65 606.36L1258.11 608.691L1256.26 611.007C1255.8 611.59 1255.55 612.362 1255.55 613.189C1255.55 614.408 1256.11 615.506 1256.98 615.993L1257.39 616.224C1257.92 616.522 1258.5 616.576 1259.05 616.373C1259.19 616.319 1259.33 616.251 1259.47 616.17L1260.93 615.248L1262.8 614.07V621.399C1262.8 623.052 1263.85 624.38 1265.16 624.38H1265.47C1266.78 624.38 1267.83 623.052 1267.83 621.399V614.097L1269.7 615.275L1271.16 616.183C1271.29 616.264 1271.43 616.332 1271.58 616.386C1272.12 616.59 1272.71 616.535 1273.24 616.237L1273.65 616.007C1274.52 615.506 1275.08 614.408 1275.08 613.202C1275.08 612.39 1274.82 611.604 1274.36 611.021L1272.55 608.691L1277.01 606.36C1277.92 605.886 1278.52 604.762 1278.52 603.515V601.551C1278.52 600.535 1278.14 599.6 1277.47 599.017L1272.68 594.817L1277.96 591.579C1278.8 591.064 1279.34 589.994 1279.34 588.802V587.325C1279.34 586.214 1278.86 585.184 1278.09 584.642L1273.09 581.12L1280.75 576.567C1281.61 576.066 1282.15 574.968 1282.15 573.776V572.367C1282.15 571.283 1281.7 570.281 1280.96 569.725L1273.65 564.197L1285.52 557.464C1286.4 556.962 1286.95 555.865 1286.95 554.659V544.471C1286.95 542.764 1285.86 541.395 1284.52 541.395L1274.03 541.355C1272.96 541.355 1272.05 542.235 1271.73 543.455C1271.64 543.766 1271.6 544.091 1271.6 544.444V547.478C1271.6 547.817 1271.64 548.156 1271.73 548.468C1272.05 549.687 1272.96 550.568 1274.03 550.568L1280.16 550.608L1271.59 555.689L1269.71 556.813L1267.84 557.938V529.689C1268.53 529.31 1269.17 528.795 1269.71 528.158C1270.61 527.101 1271.28 525.706 1271.59 524.148C1271.72 523.511 1271.78 522.861 1271.78 522.17C1271.78 521.492 1271.72 520.828 1271.59 520.192C1271.43 519.392 1271.18 518.634 1270.85 517.943C1269.71 515.585 1267.67 514 1265.32 514C1262.97 514 1260.93 515.572 1259.79 517.943C1259.46 518.634 1259.21 519.392 1259.05 520.192C1258.92 520.828 1258.86 521.479 1258.86 522.17C1258.86 522.847 1258.92 523.511 1259.05 524.148C1259.37 525.706 1260.04 527.088 1260.94 528.158ZM1262.81 590.59L1259.04 588.043L1262.81 585.495V590.59ZM1257.56 572.814L1262.81 569.454V576.174L1257.56 572.814ZM1259.04 601.916L1262.81 599.369V604.463L1259.04 601.916ZM1267.84 604.463V599.383L1271.61 601.93L1267.84 604.463ZM1267.84 590.59V585.509L1271.61 588.056L1267.84 590.59ZM1273.09 572.814L1267.84 576.174V569.454L1273.09 572.814Z" fill="#F9AD42"/>
<path d="M1186.24 207.709L963 320.308L964.475 323.15L1187.72 210.552L1186.24 207.709Z" fill="#E5E5E5"/>
<path d="M1520.78 167.65C1520.77 198.546 1512.11 228.839 1495.76 255.192C1479.4 281.545 1455.99 302.934 1428.09 317.002C1426.65 317.737 1425.19 318.455 1423.74 319.126C1422.88 319.541 1422.02 319.924 1421.16 320.307C1419.06 321.249 1416.92 322.159 1414.76 323.006C1407.1 326.094 1399.22 328.608 1391.17 330.526C1390.04 330.813 1388.87 331.069 1387.72 331.324C1384.82 331.963 1381.9 332.516 1378.96 332.985C1362.91 335.636 1346.55 336.012 1330.38 334.102C1327.03 333.719 1323.71 333.23 1320.41 332.634C1318.84 332.346 1317.27 332.043 1315.71 331.723C1315.5 331.676 1315.29 331.628 1315.08 331.596C1309.5 330.438 1303.99 328.988 1298.56 327.253C1295.65 326.327 1292.75 325.337 1289.92 324.251C1288.44 323.692 1286.99 323.117 1285.55 322.527C1284.83 322.239 1284.12 321.936 1283.42 321.633C1255.24 309.654 1230.87 290.378 1212.9 265.849C1194.93 241.321 1184.03 212.454 1181.35 182.31C1178.67 152.166 1184.31 121.868 1197.68 94.6303C1211.05 67.3924 1231.64 44.2293 1257.28 27.5974C1282.92 10.9655 1312.64 1.48477 1343.3 0.160634C1373.96 -1.1635 1404.41 5.71832 1431.42 20.0763C1458.44 34.4342 1481.01 55.7331 1496.74 81.7143C1512.47 107.695 1520.78 137.39 1520.78 167.65Z" fill="#F1F1F1"/>
<path d="M1384.87 57.48C1371.87 57.4962 1359.41 62.9165 1350.22 72.5518C1341.03 82.1871 1335.86 95.2508 1335.84 108.877V147.227C1335.85 149.057 1336.54 150.811 1337.78 152.103C1339.02 153.396 1340.69 154.121 1342.44 154.12H1427.31C1429.05 154.121 1430.73 153.396 1431.97 152.103C1433.2 150.811 1433.9 149.057 1433.9 147.227V108.877C1433.89 95.2513 1428.71 82.1885 1419.52 72.5535C1410.33 62.9185 1397.87 57.4978 1384.87 57.48V57.48Z" fill="#2F2E41"/>
<path d="M1360.03 217.075L1355.38 195.501C1354.73 192.435 1353.21 189.639 1351.01 187.468C1349.05 185.716 1346.76 184.407 1344.28 183.627C1343.99 183.557 1343.7 183.487 1343.4 183.434C1343.27 183.397 1343.14 183.367 1343 183.346C1340.92 182.973 1338.78 183.048 1336.72 183.566C1334.67 184.085 1332.74 185.037 1331.06 186.361C1329.37 187.686 1327.97 189.354 1326.95 191.262C1325.92 193.17 1325.29 195.276 1325.09 197.448L1321.14 222.897L1315.1 261.87C1315.83 262.203 1316.58 262.536 1317.33 262.852C1318.85 263.501 1320.38 264.133 1321.93 264.746C1324.91 265.939 1327.95 267.027 1331.02 268.044C1336.72 269.95 1342.52 271.542 1348.38 272.814C1348.61 272.849 1348.83 272.902 1349.05 272.955C1350.68 273.306 1352.33 273.639 1353.99 273.954L1362.24 227.352L1360.03 217.075Z" fill="#2F2E41"/>
<path d="M1373.56 152.188C1393.35 152.188 1409.39 135.746 1409.39 115.464C1409.39 95.1825 1393.35 78.7409 1373.56 78.7409C1353.77 78.7409 1337.73 95.1825 1337.73 115.464C1337.73 135.746 1353.77 152.188 1373.56 152.188Z" fill="#FFB7B7"/>
<path d="M1412.62 239.869L1405 177.165L1403.39 163.879H1403.38L1402.66 163.861C1400.23 163.772 1397.87 163.754 1395.55 163.843C1381.28 163.906 1367.29 167.945 1355.02 175.542C1351.81 177.586 1348.75 179.875 1345.86 182.39L1345.73 182.533L1345.39 182.997L1333.27 199.261L1333.25 199.582L1332.07 268.832C1337.8 270.77 1343.61 272.389 1349.5 273.683C1349.73 273.718 1349.95 273.772 1350.17 273.825C1351.81 274.182 1353.47 274.521 1355.13 274.842C1358.61 275.502 1362.12 276.049 1365.66 276.482C1382.72 278.616 1399.98 278.195 1416.93 275.234L1412.62 239.869Z" fill="#557AA1"/>
<path d="M1424.57 178.333C1418.93 171.476 1411.28 166.704 1402.78 164.74H1402.76C1400.49 164.214 1398.18 163.9 1395.86 163.802L1395.26 163.784L1394.9 164.705L1366.07 236.386L1361.42 217.236L1354.21 176.315L1354.16 176.015L1353.08 176.669C1349.74 178.654 1346.58 180.946 1343.64 183.519C1331.95 193.703 1324.15 207.842 1321.63 223.413C1320.89 228.027 1320.62 232.706 1320.82 237.377L1322 265.572C1325.01 266.776 1328.08 267.873 1331.17 268.9C1336.91 270.823 1342.76 272.43 1348.67 273.714C1348.89 273.749 1349.12 273.802 1349.34 273.855C1350.99 274.209 1352.65 274.546 1354.32 274.864C1357.82 275.519 1361.34 276.062 1364.89 276.493C1382.02 278.61 1399.35 278.193 1416.37 275.254C1419.49 274.74 1422.58 274.127 1425.65 273.413C1426.87 273.13 1428.1 272.847 1429.3 272.528L1426.71 264.652L1433.58 209.979C1434.28 204.348 1433.84 198.629 1432.29 193.182C1430.74 187.734 1428.11 182.678 1424.57 178.333V178.333Z" fill="#2F2E41"/>
<path d="M1433.64 178.831C1432.42 174.87 1429.81 171.558 1426.35 169.583C1422.89 167.609 1418.84 167.125 1415.05 168.232C1414.43 168.398 1413.83 168.609 1413.25 168.862C1410.43 170.078 1408.02 172.159 1406.32 174.836C1404.63 177.513 1403.72 180.665 1403.73 183.888L1403.8 217.521L1412.8 240.141L1426.28 273.954C1427.49 273.667 1428.71 273.379 1429.9 273.055C1438.34 270.893 1446.62 268.06 1454.66 264.579C1456.92 263.625 1459.16 262.599 1461.37 261.538C1462.27 261.106 1463.17 260.674 1464.07 260.206L1433.64 178.831Z" fill="#2F2E41"/>
<path d="M1370.62 71.0097H1363.29C1353.01 71.0133 1343.15 75.213 1335.88 82.6854C1328.61 90.1577 1324.53 100.291 1324.53 110.856V111.599H1376.42L1376.96 103.941L1379.61 111.599H1387.6L1388.66 96.4242L1393.93 111.599H1409.39V110.856C1409.38 100.294 1405.29 90.1672 1398.02 82.6972C1390.76 75.2272 1380.9 71.024 1370.62 71.0097Z" fill="#2F2E41"/>
<path d="M1291.01 187.906V191.792H1243.84V187.906C1243.84 185.765 1245.61 184.02 1247.77 184.02H1255.69C1255.89 179.171 1259.08 175.122 1263.5 173.571V128.01C1261.42 126.716 1260.04 124.447 1260.04 121.844H1263.5H1271.36H1274.82C1274.82 124.447 1273.43 126.716 1271.36 128.01V173.567C1275.78 175.118 1278.96 179.167 1279.17 184.016H1287.08C1289.25 184.02 1291.01 185.765 1291.01 187.906ZM1318.53 152.93C1315.65 160.95 1307.98 166.736 1298.88 166.736C1289.78 166.736 1282.1 160.946 1279.22 152.93H1283.76L1297.04 118.141C1297.61 116.625 1300.14 116.625 1300.72 118.141L1314 152.93H1318.53ZM1309.79 152.93L1298.88 124.334L1287.96 152.934H1309.79V152.93ZM1235.98 114.115C1237.76 114.115 1239.21 112.937 1239.71 111.34C1241.01 110.851 1242.35 110.19 1243.71 109.506C1246.72 108.006 1250.13 106.301 1253.67 106.301C1257.06 106.301 1259.19 107.851 1260.4 109.172C1260.36 109.506 1260.3 109.841 1260.3 110.186C1260.3 114.076 1263.49 117.231 1267.43 117.231C1271.36 117.231 1274.55 114.076 1274.55 110.186C1274.55 109.841 1274.5 109.51 1274.45 109.176C1275.66 107.859 1277.79 106.301 1281.19 106.301C1284.72 106.301 1288.13 108.003 1291.14 109.502C1292.51 110.186 1293.84 110.847 1295.14 111.337C1295.65 112.934 1297.1 114.111 1298.88 114.111C1301.07 114.111 1302.85 112.355 1302.85 110.186C1302.85 108.018 1301.07 106.262 1298.88 106.262C1297.74 106.262 1296.73 106.744 1296.01 107.497C1295.04 107.093 1293.99 106.576 1292.91 106.036C1289.51 104.338 1285.66 102.415 1281.19 102.415C1277.27 102.415 1274.54 103.887 1272.69 105.473C1271.86 104.567 1270.8 103.891 1269.59 103.507C1271.06 102.73 1272.09 101.249 1272.09 99.4966C1272.09 96.9514 1267.43 91.01 1267.43 91.01C1267.43 91.01 1262.77 96.9514 1262.77 99.4966C1262.77 101.253 1263.8 102.73 1265.26 103.507C1264.05 103.887 1262.99 104.567 1262.16 105.473C1260.31 103.887 1257.58 102.415 1253.67 102.415C1249.19 102.415 1245.34 104.338 1241.94 106.036C1240.86 106.58 1239.82 107.097 1238.84 107.497C1238.12 106.747 1237.11 106.262 1235.98 106.262C1233.78 106.262 1232.01 108.018 1232.01 110.186C1232.01 112.355 1233.78 114.115 1235.98 114.115ZM1235.98 166.74C1226.88 166.74 1219.2 160.95 1216.32 152.934H1220.86L1234.14 118.144C1234.71 116.629 1237.24 116.629 1237.82 118.144L1251.1 152.934H1255.63C1252.75 160.95 1245.08 166.74 1235.98 166.74ZM1246.9 152.93L1235.98 124.334L1225.06 152.934H1246.9V152.93Z" fill="#F9AD42"/>
</svg>
