<svg width="737" height="462" viewBox="0 0 737 462" fill="none" xmlns="http://www.w3.org/2000/svg">
<g clip-path="url(#clip0_26_79)">
<path d="M254.961 439.163C254.386 439.19 253.817 439.039 253.33 438.731C252.844 438.423 252.464 437.973 252.242 437.442C252.02 436.911 251.967 436.324 252.089 435.762C252.211 435.199 252.504 434.688 252.926 434.297L253.119 433.533C253.093 433.471 253.068 433.41 253.042 433.349C252.463 431.981 251.492 430.814 250.252 429.996C249.012 429.177 247.558 428.744 246.072 428.749C244.586 428.755 243.135 429.199 241.901 430.027C240.667 430.854 239.705 432.028 239.136 433.401C236.861 438.879 233.965 444.366 233.252 450.159C232.938 452.719 233.071 455.314 233.644 457.829C228.302 446.176 225.527 433.51 225.51 420.69C225.508 417.474 225.687 414.259 226.045 411.062C226.341 408.441 226.751 405.839 227.276 403.256C230.139 389.238 236.286 376.099 245.214 364.918C249.534 362.561 253.029 358.935 255.225 354.531C256.021 352.948 256.584 351.257 256.895 349.513C256.408 349.577 255.058 342.154 255.425 341.699C254.746 340.668 253.53 340.155 252.788 339.15C249.099 334.148 244.016 335.021 241.362 341.818C235.694 344.679 235.639 349.424 239.117 353.988C241.33 356.891 241.634 360.819 243.576 363.927C243.376 364.183 243.168 364.431 242.968 364.687C239.317 369.382 236.134 374.424 233.466 379.74C234.115 373.785 233.341 367.76 231.207 362.162C229.044 356.944 224.99 352.55 221.421 348.04C217.133 342.623 208.34 344.987 207.585 351.855C207.578 351.921 207.57 351.987 207.564 352.054C208.094 352.353 208.613 352.671 209.121 353.006C209.759 353.433 210.253 354.042 210.539 354.754C210.825 355.466 210.889 356.247 210.723 356.996C210.557 357.746 210.169 358.427 209.609 358.952C209.049 359.476 208.344 359.819 207.585 359.936L207.508 359.948C207.696 361.859 208.03 363.753 208.506 365.613C203.927 383.324 213.814 389.774 227.931 390.064C228.242 390.223 228.546 390.383 228.858 390.535C226.177 398.132 224.496 406.044 223.856 414.074C223.493 418.812 223.515 423.571 223.92 428.305L223.896 428.137C222.873 422.873 220.065 418.123 215.945 414.69C209.827 409.664 201.183 407.813 194.583 403.773C193.881 403.323 193.066 403.082 192.232 403.08C191.398 403.078 190.582 403.315 189.878 403.762C189.174 404.209 188.613 404.848 188.261 405.603C187.908 406.358 187.779 407.199 187.888 408.025C187.897 408.084 187.906 408.143 187.915 408.202C188.899 408.602 189.857 409.064 190.784 409.584C191.314 409.883 191.833 410.201 192.341 410.536C192.979 410.963 193.473 411.572 193.759 412.284C194.045 412.996 194.109 413.777 193.943 414.526C193.777 415.275 193.389 415.957 192.829 416.482C192.269 417.006 191.564 417.349 190.806 417.466L190.728 417.478C190.672 417.486 190.624 417.494 190.568 417.502C192.249 421.516 194.609 425.211 197.544 428.425C200.407 443.885 212.706 445.352 225.861 440.85H225.869C227.313 447.122 229.404 453.228 232.11 459.068H254.402C254.482 458.82 254.554 458.564 254.626 458.316C252.563 458.446 250.491 458.323 248.458 457.949C250.112 455.919 251.766 453.874 253.42 451.844C253.457 451.806 253.491 451.766 253.524 451.725C254.363 450.686 255.21 449.655 256.048 448.616L256.049 448.615C256.094 445.431 255.728 442.255 254.962 439.164L254.961 439.163Z" fill="#F2F2F2"/>
<path d="M525.662 233.529H17.092C12.5605 233.523 8.21615 231.721 5.01192 228.517C1.80768 225.312 0.00523504 220.968 0 216.437V17.092C0.00523504 12.5605 1.80768 8.21615 5.01192 5.01192C8.21615 1.80768 12.5605 0.00523504 17.092 0H525.662C530.194 0.00523504 534.538 1.80768 537.742 5.01192C540.946 8.21615 542.749 12.5605 542.754 17.092V216.437C542.749 220.968 540.946 225.312 537.742 228.517C534.538 231.721 530.194 233.523 525.662 233.529V233.529Z" fill="#F2F2F2"/>
<path d="M407.052 222.628H97.8196C74.776 222.602 52.6837 213.436 36.3894 197.142C20.0951 180.847 10.9296 158.755 10.9036 135.712V97.8264C10.9295 74.7827 20.0951 52.6904 36.3893 36.396C52.6836 20.1016 74.7759 10.9359 97.8196 10.9098H444.937C467.981 10.9359 490.073 20.1016 506.367 36.396C522.662 52.6904 531.827 74.7827 531.853 97.8264C531.816 130.914 518.655 162.636 495.258 186.033C471.862 209.429 440.14 222.59 407.052 222.628V222.628Z" fill="white"/>
<path d="M327.283 67.9756H122.876C121.707 67.9756 120.586 67.5112 119.759 66.6845C118.933 65.8578 118.468 64.7366 118.468 63.5676C118.468 62.3985 118.933 61.2773 119.759 60.4506C120.586 59.624 121.707 59.1595 122.876 59.1595H327.283C328.452 59.1595 329.573 59.624 330.4 60.4506C331.226 61.2773 331.691 62.3985 331.691 63.5676C331.691 64.7366 331.226 65.8578 330.4 66.6845C329.573 67.5112 328.452 67.9756 327.283 67.9756V67.9756Z" fill="#E6E6E6"/>
<path d="M430.757 115.006H122.876C121.707 115.006 120.586 114.542 119.759 113.715C118.933 112.889 118.468 111.767 118.468 110.598C118.468 109.429 118.933 108.308 119.759 107.481C120.586 106.655 121.707 106.19 122.876 106.19H430.757C431.926 106.19 433.047 106.655 433.874 107.481C434.7 108.308 435.165 109.429 435.165 110.598C435.165 111.767 434.7 112.889 433.874 113.715C433.047 114.542 431.926 115.006 430.757 115.006V115.006Z" fill="#E6E6E6"/>
<path d="M430.757 162.037H122.876C121.707 162.037 120.586 161.573 119.759 160.746C118.933 159.919 118.468 158.798 118.468 157.629C118.468 156.46 118.933 155.339 119.759 154.512C120.586 153.686 121.707 153.221 122.876 153.221H430.757C431.926 153.221 433.047 153.686 433.874 154.512C434.7 155.339 435.165 156.46 435.165 157.629C435.165 158.798 434.7 159.919 433.874 160.746C433.047 161.573 431.926 162.037 430.757 162.037V162.037Z" fill="#E6E6E6"/>
<path d="M430.757 162.037H122.876C121.707 162.037 120.586 161.573 119.759 160.746C118.933 159.919 118.468 158.798 118.468 157.629C118.468 156.46 118.933 155.339 119.759 154.512C120.586 153.686 121.707 153.221 122.876 153.221H430.757C431.926 153.221 433.047 153.686 433.874 154.512C434.7 155.339 435.165 156.46 435.165 157.629C435.165 158.798 434.7 159.919 433.874 160.746C433.047 161.573 431.926 162.037 430.757 162.037V162.037Z" fill="#E6E6E6"/>
<path d="M400.956 81.1405C403.775 65.7787 410.364 52.3288 421.946 41.4118C422.372 40.6082 423.099 40.0062 423.968 39.738C424.837 39.4699 425.777 39.5573 426.582 39.9812L456.586 55.8333C457.389 56.259 457.991 56.9861 458.259 57.8551C458.528 58.7241 458.44 59.664 458.016 60.4686L437.026 100.197C436.601 101.001 435.873 101.603 435.004 101.871C434.135 102.139 433.196 102.052 432.391 101.628L402.387 85.7758C401.583 85.3501 400.981 84.623 400.713 83.754C400.445 82.885 400.533 81.9451 400.956 81.1405V81.1405Z" fill="#E6E6E6"/>
<path d="M409.598 70.3568C409.969 62.338 415.816 53.6624 423.092 44.8155C423.491 44.0629 424.172 43.4992 424.985 43.248C425.799 42.9968 426.679 43.0788 427.433 43.4758L453.219 57.0993C453.972 57.498 454.535 58.179 454.787 58.9928C455.038 59.8067 454.956 60.6869 454.559 61.4405L435.881 96.7936C435.482 97.5463 434.801 98.11 433.987 98.3611C433.173 98.6123 432.293 98.5303 431.539 98.1333L415.566 89.6938C412.213 87.9178 409.702 84.8844 408.583 81.2593C407.464 77.6341 407.829 73.7133 409.598 70.3568V70.3568Z" fill="white"/>
<path d="M439.877 75.4729L419.741 64.9059C419.422 64.7369 419.183 64.4484 419.077 64.1036C418.97 63.7588 419.004 63.3858 419.172 63.0662C419.34 62.7466 419.627 62.5065 419.971 62.3984C420.316 62.2903 420.689 62.3231 421.009 62.4896L441.145 73.0566C441.464 73.2256 441.703 73.514 441.81 73.8588C441.916 74.2036 441.882 74.5766 441.714 74.8962C441.547 75.2158 441.259 75.4559 440.915 75.564C440.57 75.6721 440.197 75.6393 439.877 75.4729V75.4729Z" fill="#557AA1"/>
<path d="M427.648 60.6051L423.218 58.2803C423.059 58.1975 422.917 58.084 422.802 57.9464C422.687 57.8088 422.6 57.6497 422.546 57.4783C422.492 57.3069 422.473 57.1266 422.489 56.9476C422.505 56.7687 422.556 56.5948 422.639 56.4357C422.723 56.2767 422.837 56.1356 422.975 56.0208C423.113 55.9059 423.273 55.8194 423.444 55.7663C423.616 55.7132 423.796 55.6945 423.975 55.7113C424.154 55.7281 424.328 55.78 424.486 55.8641L428.916 58.1888C429.235 58.3578 429.474 58.6463 429.581 58.991C429.688 59.3358 429.653 59.7089 429.486 60.0285C429.318 60.3481 429.03 60.5882 428.686 60.6962C428.342 60.8043 427.968 60.7716 427.648 60.6051V60.6051Z" fill="#557AA1"/>
<path d="M434.302 86.0955L414.167 75.5285C413.847 75.3598 413.608 75.0713 413.501 74.7263C413.394 74.3814 413.428 74.0081 413.596 73.6883C413.764 73.3685 414.052 73.1283 414.396 73.0203C414.741 72.9123 415.114 72.9454 415.435 73.1122L435.57 83.6792C435.889 83.8482 436.128 84.1367 436.235 84.4814C436.342 84.8262 436.307 85.1993 436.14 85.5189C435.972 85.8385 435.684 86.0786 435.34 86.1866C434.996 86.2947 434.623 86.262 434.302 86.0955V86.0955Z" fill="#557AA1"/>
<path d="M437.09 80.7841L416.954 70.2171C416.795 70.1343 416.653 70.0208 416.538 69.8832C416.422 69.7455 416.335 69.5864 416.281 69.415C416.228 69.2437 416.208 69.0633 416.224 68.8844C416.24 68.7055 416.292 68.5315 416.375 68.3725C416.459 68.2134 416.573 68.0724 416.711 67.9576C416.849 67.8427 417.008 67.7562 417.18 67.7031C417.351 67.65 417.532 67.6313 417.711 67.6481C417.889 67.6648 418.063 67.7168 418.222 67.8009L438.358 78.3679C438.677 78.5368 438.916 78.8253 439.022 79.1701C439.129 79.5149 439.095 79.8879 438.927 80.2075C438.759 80.5271 438.472 80.7672 438.127 80.8753C437.783 80.9834 437.41 80.9506 437.09 80.7841Z" fill="#557AA1"/>
<path d="M617.922 350.744H607.506C607.014 350.744 606.526 350.841 606.071 351.029C605.616 351.218 605.203 351.494 604.854 351.842C604.506 352.191 604.23 352.604 604.042 353.059C603.853 353.514 603.756 354.002 603.756 354.494C603.756 355.489 603.361 356.443 602.658 357.146C601.954 357.85 601 358.245 600.006 358.245H565.283C564.79 358.245 564.302 358.148 563.847 357.959C563.392 357.771 562.979 357.494 562.631 357.146C562.282 356.798 562.006 356.385 561.818 355.93C561.629 355.475 561.532 354.987 561.532 354.494L560.846 350.692L560.89 350.744L560.846 350.692L554.552 342.668C554.345 342.401 554.08 342.185 553.777 342.038C553.473 341.891 553.14 341.816 552.802 341.819H540.999C540.409 341.819 539.844 342.054 539.428 342.47C539.011 342.887 538.777 343.452 538.776 344.041L538.532 350.692H534.07C533.132 350.692 532.204 350.877 531.338 351.236C530.473 351.594 529.686 352.12 529.023 352.783C528.36 353.446 527.835 354.232 527.476 355.098C527.117 355.964 526.933 356.892 526.933 357.83V404.313C526.933 405.145 527.096 405.969 527.415 406.737C527.733 407.506 528.2 408.204 528.788 408.792C529.376 409.38 530.074 409.847 530.842 410.165C531.611 410.483 532.434 410.647 533.266 410.647H617.922C619.601 410.645 621.21 409.977 622.397 408.789C623.584 407.602 624.252 405.992 624.254 404.313V357.076C624.254 356.244 624.09 355.421 623.772 354.653C623.453 353.884 622.987 353.186 622.399 352.598C621.811 352.011 621.113 351.544 620.345 351.226C619.577 350.908 618.753 350.744 617.922 350.744V350.744Z" fill="#F2F2F2"/>
<path d="M560.849 350.521H538.776V343.87C538.777 343.28 539.011 342.715 539.428 342.299C539.844 341.882 540.409 341.648 540.999 341.647H552.802C553.14 341.644 553.473 341.719 553.777 341.866C554.08 342.014 554.345 342.229 554.551 342.497L560.849 350.521Z" fill="#E6E6E6"/>
<path d="M572.151 405.532H535.295C534.128 405.531 533.009 405.067 532.184 404.242C531.359 403.417 530.895 402.298 530.894 401.131V391.052C530.895 389.885 531.359 388.767 532.184 387.942C533.009 387.117 534.128 386.653 535.295 386.651H579.531C580.698 386.653 581.816 387.117 582.641 387.942C583.466 388.767 583.93 389.885 583.931 391.052V393.752C583.928 396.875 582.686 399.869 580.477 402.078C578.269 404.286 575.274 405.528 572.151 405.532Z" fill="white"/>
<path d="M545.904 394.255H536.807C536.215 394.255 535.648 394.019 535.229 393.601C534.811 393.183 534.576 392.615 534.576 392.023C534.576 391.431 534.811 390.864 535.229 390.445C535.648 390.027 536.215 389.792 536.807 389.792H545.904C546.496 389.792 547.063 390.027 547.482 390.445C547.9 390.864 548.135 391.431 548.135 392.023C548.135 392.615 547.9 393.183 547.482 393.601C547.063 394.019 546.496 394.255 545.904 394.255Z" fill="#F2F2F2"/>
<path d="M576.8 401.292H536.807C536.514 401.292 536.223 401.235 535.952 401.123C535.681 401.011 535.434 400.847 535.226 400.64C535.019 400.433 534.854 400.186 534.741 399.915C534.629 399.644 534.571 399.354 534.571 399.06C534.571 398.767 534.629 398.476 534.741 398.205C534.854 397.934 535.019 397.688 535.226 397.481C535.434 397.274 535.681 397.109 535.952 396.998C536.223 396.886 536.514 396.828 536.807 396.829H576.8C577.391 396.829 577.959 397.064 578.377 397.483C578.796 397.901 579.031 398.469 579.031 399.06C579.031 399.652 578.796 400.22 578.377 400.638C577.959 401.057 577.391 401.292 576.8 401.292H576.8Z" fill="#F2F2F2"/>
<path d="M654.922 401.744H644.506C644.014 401.744 643.526 401.841 643.071 402.029C642.616 402.218 642.203 402.494 641.854 402.842C641.506 403.191 641.23 403.604 641.042 404.059C640.853 404.514 640.756 405.002 640.756 405.494C640.756 406.489 640.361 407.443 639.658 408.146C638.954 408.85 638 409.245 637.006 409.245H602.283C601.79 409.245 601.302 409.148 600.847 408.959C600.392 408.771 599.979 408.494 599.631 408.146C599.282 407.798 599.006 407.385 598.818 406.93C598.629 406.475 598.532 405.987 598.532 405.494L597.846 401.692L597.89 401.744L597.846 401.692L591.552 393.668C591.345 393.401 591.08 393.185 590.777 393.038C590.473 392.891 590.14 392.816 589.802 392.819H577.999C577.409 392.819 576.844 393.054 576.428 393.47C576.011 393.887 575.777 394.452 575.776 395.041L575.532 401.692H571.07C570.132 401.692 569.204 401.877 568.338 402.236C567.473 402.594 566.686 403.12 566.023 403.783C565.36 404.446 564.835 405.232 564.476 406.098C564.117 406.964 563.933 407.892 563.933 408.83V455.313C563.933 456.145 564.096 456.969 564.415 457.737C564.733 458.506 565.2 459.204 565.788 459.792C566.376 460.38 567.074 460.847 567.842 461.165C568.611 461.483 569.434 461.647 570.266 461.647H654.922C656.601 461.645 658.21 460.977 659.397 459.789C660.584 458.602 661.252 456.992 661.254 455.313V408.076C661.254 407.244 661.09 406.421 660.772 405.653C660.453 404.884 659.987 404.186 659.399 403.598C658.811 403.011 658.113 402.544 657.345 402.226C656.577 401.908 655.753 401.744 654.922 401.744V401.744Z" fill="#F2F2F2"/>
<path d="M597.849 401.521H575.776V394.87C575.777 394.28 576.011 393.715 576.428 393.299C576.844 392.882 577.409 392.648 577.999 392.647H589.802C590.14 392.644 590.473 392.719 590.777 392.866C591.08 393.014 591.345 393.229 591.551 393.497L597.849 401.521Z" fill="#E6E6E6"/>
<path d="M609.151 456.532H572.295C571.128 456.531 570.009 456.067 569.184 455.242C568.359 454.417 567.895 453.298 567.894 452.131V442.052C567.895 440.885 568.359 439.767 569.184 438.942C570.009 438.117 571.128 437.653 572.295 437.651H616.531C617.698 437.653 618.816 438.117 619.641 438.942C620.466 439.767 620.93 440.885 620.931 442.052V444.752C620.928 447.875 619.686 450.869 617.477 453.078C615.269 455.286 612.274 456.528 609.151 456.532V456.532Z" fill="white"/>
<path d="M582.904 445.255H573.807C573.215 445.255 572.648 445.019 572.229 444.601C571.811 444.183 571.576 443.615 571.576 443.023C571.576 442.431 571.811 441.864 572.229 441.445C572.648 441.027 573.215 440.792 573.807 440.792H582.904C583.496 440.792 584.063 441.027 584.482 441.445C584.9 441.864 585.135 442.431 585.135 443.023C585.135 443.615 584.9 444.183 584.482 444.601C584.063 445.019 583.496 445.255 582.904 445.255V445.255Z" fill="#F2F2F2"/>
<path d="M613.8 452.292H573.807C573.514 452.292 573.223 452.235 572.952 452.123C572.681 452.011 572.434 451.847 572.226 451.64C572.019 451.433 571.854 451.186 571.741 450.915C571.629 450.644 571.571 450.354 571.571 450.06C571.571 449.767 571.629 449.476 571.741 449.205C571.854 448.934 572.019 448.688 572.226 448.481C572.434 448.274 572.681 448.109 572.952 447.998C573.223 447.886 573.514 447.828 573.807 447.829H613.8C614.391 447.829 614.959 448.064 615.377 448.483C615.796 448.901 616.031 449.469 616.031 450.06C616.031 450.652 615.796 451.22 615.377 451.638C614.959 452.057 614.391 452.292 613.8 452.292H613.8Z" fill="#F2F2F2"/>
<path d="M489.468 444.144L480.868 444.143L476.777 410.972H489.47L489.468 444.144Z" fill="#FFB6B6"/>
<path d="M463.511 456.833C463.515 457.796 463.899 458.719 464.58 459.401C465.26 460.083 466.182 460.469 467.146 460.475H483.335L483.837 459.435L486.127 454.71L487.013 459.435L487.21 460.475H493.316L493.229 459.428L491.601 439.902L489.471 439.771L480.267 439.226L478.006 439.088V444.918C476.291 446.743 462.828 453.641 463.511 456.833Z" fill="#2F2E41"/>
<path d="M631.857 377.722L627.7 385.251L596.682 372.802L602.817 361.69L631.857 377.722Z" fill="#FFB6B6"/>
<path d="M630.421 406.579C631.267 407.041 632.26 407.151 633.186 406.885C634.112 406.618 634.895 405.998 635.366 405.157L643.19 390.984L642.522 390.042L639.492 385.754L644.058 387.261L645.063 387.592L648.014 382.246L647.055 381.816L629.173 373.805L628.03 375.607L623.105 383.401L621.891 385.313L626.995 388.131C627.764 390.515 627.297 405.635 630.421 406.579Z" fill="#2F2E41"/>
<path d="M503.858 225.515L536.353 239.312C536.353 239.312 546.749 261.507 539.559 264.688V323.365L613.782 366.32L591.41 403.689C591.41 403.689 562.694 396.272 562.994 389.5C563.294 382.728 566.604 380.05 556.745 379.18C546.885 378.311 541.3 379.037 541.568 372.994C541.836 366.951 506.746 335.53 506.746 335.53L503.858 225.515Z" fill="#2F2E41"/>
<path d="M511.643 236.78L503.404 227.524C503.404 227.524 484.898 257.91 484.968 264.151C485.037 270.393 469.26 302.579 469.26 302.579L449.696 417.439C449.696 417.439 487.431 426.409 490.336 426.657C493.242 426.906 498.141 428.437 495.06 422.622C491.979 416.808 495.06 416.808 495.06 416.808L496.954 328.374L511.643 267.55V236.78Z" fill="#2F2E41"/>
<path d="M507.322 147.803L523.099 144.016L532.223 155.207C536.387 159.125 539.492 164.033 541.248 169.473C543.004 174.914 543.354 180.711 542.266 186.324L533.828 229.846C533.828 229.846 548.974 243.73 547.081 251.303C544.01 263.586 510.144 252.739 504.315 253.599C498.486 254.459 490.913 245.027 489.651 239.645C488.389 234.264 493.537 221.347 495.331 221.642C497.125 221.937 490.382 194.922 490.382 194.922C490.382 194.922 490.913 176.833 497.224 171.785C501.095 168.633 504.245 164.688 506.462 160.216L507.322 147.803Z" fill="#557AA1"/>
<path d="M438.822 79.5664C438.835 80.6274 439.077 81.6731 439.533 82.6312C439.989 83.5892 440.648 84.4368 441.464 85.1152C442.28 85.7936 443.233 86.2868 444.258 86.5605C445.283 86.8342 446.356 86.8819 447.401 86.7004L467.261 117.343L477.088 113.933L453.233 77.7114C452.797 75.9744 451.738 74.4579 450.258 73.4491C448.779 72.4403 446.98 72.0095 445.204 72.2381C443.428 72.4668 441.797 73.3391 440.621 74.6897C439.445 76.0404 438.805 77.7756 438.822 79.5664H438.822Z" fill="#FFB6B6"/>
<path d="M518.463 186.389C518.463 186.389 525.942 170.375 520.254 163.258C514.566 156.14 510.408 148.905 507.224 146.945C504.041 144.985 491.353 122.291 488.155 121.613C484.957 120.936 487.442 117.257 482.977 115.282C478.512 113.308 477.23 113.293 477.244 112.011C477.259 110.729 466.356 95.334 466.356 95.334L455.149 102.291L482.526 158.296L518.463 186.389Z" fill="#557AA1"/>
<path d="M447.807 336.246C433.469 317.176 425.183 295.851 424.911 271.538C424.449 270.228 424.526 268.788 425.124 267.534C425.723 266.28 426.794 265.315 428.103 264.85L476.972 247.559C478.283 247.097 479.723 247.173 480.976 247.772C482.23 248.37 483.195 249.442 483.66 250.751L506.556 315.459C507.018 316.769 506.941 318.209 506.343 319.463C505.744 320.717 504.673 321.682 503.364 322.147L454.494 339.438C453.184 339.9 451.744 339.824 450.491 339.225C449.237 338.627 448.272 337.555 447.807 336.246V336.246Z" fill="#E6E6E6"/>
<path d="M444.64 315.375C436.017 306.657 432.326 291.106 429.92 273.775C429.488 272.548 429.56 271.199 430.12 270.025C430.68 268.851 431.684 267.947 432.91 267.511L474.909 252.651C476.136 252.218 477.485 252.29 478.659 252.851C479.833 253.411 480.737 254.414 481.173 255.64L501.547 313.222C501.979 314.449 501.907 315.798 501.347 316.972C500.786 318.146 499.783 319.05 498.557 319.486L472.539 328.691C467.073 330.618 461.066 330.299 455.836 327.802C450.606 325.306 446.579 320.837 444.64 315.375V315.375Z" fill="white"/>
<path d="M481.734 286.66L449.018 298.338C448.498 298.524 447.925 298.495 447.425 298.258C446.926 298.022 446.541 297.596 446.355 297.076C446.169 296.555 446.197 295.982 446.434 295.482C446.671 294.983 447.096 294.598 447.617 294.412L480.333 282.734C480.591 282.642 480.864 282.602 481.138 282.615C481.411 282.629 481.679 282.696 481.926 282.814C482.174 282.931 482.396 283.096 482.579 283.298C482.763 283.501 482.905 283.739 482.997 283.996C483.089 284.254 483.129 284.527 483.116 284.801C483.102 285.074 483.034 285.342 482.917 285.59C482.8 285.837 482.635 286.059 482.432 286.242C482.229 286.426 481.992 286.568 481.734 286.66V286.66Z" fill="#557AA1"/>
<path d="M452.373 285.004L445.176 287.573C444.656 287.757 444.083 287.728 443.585 287.491C443.086 287.254 442.702 286.829 442.516 286.309C442.331 285.789 442.359 285.217 442.595 284.718C442.831 284.219 443.255 283.834 443.774 283.647L450.972 281.078C451.492 280.893 452.065 280.923 452.563 281.16C453.062 281.397 453.446 281.822 453.631 282.342C453.817 282.861 453.789 283.434 453.553 283.933C453.317 284.432 452.893 284.817 452.373 285.004V285.004Z" fill="#557AA1"/>
<path d="M487.895 303.919L455.179 315.597C454.921 315.689 454.648 315.73 454.375 315.716C454.101 315.703 453.833 315.635 453.586 315.518C453.339 315.401 453.117 315.236 452.933 315.033C452.749 314.83 452.608 314.593 452.516 314.335C452.424 314.077 452.383 313.804 452.397 313.531C452.411 313.257 452.478 312.989 452.595 312.742C452.712 312.495 452.877 312.273 453.08 312.089C453.283 311.905 453.52 311.764 453.778 311.672L486.494 299.994C486.752 299.902 487.025 299.861 487.299 299.875C487.572 299.888 487.84 299.956 488.087 300.073C488.335 300.19 488.556 300.355 488.74 300.558C488.924 300.761 489.066 300.998 489.158 301.256C489.25 301.514 489.29 301.787 489.276 302.06C489.263 302.334 489.195 302.602 489.078 302.849C488.961 303.096 488.796 303.318 488.593 303.502C488.39 303.686 488.153 303.827 487.895 303.919Z" fill="#557AA1"/>
<path d="M484.815 295.29L452.099 306.968C451.841 307.06 451.568 307.1 451.294 307.086C451.021 307.073 450.753 307.005 450.506 306.888C450.258 306.771 450.036 306.606 449.853 306.403C449.669 306.2 449.527 305.963 449.435 305.705C449.343 305.448 449.303 305.174 449.317 304.901C449.33 304.627 449.398 304.359 449.515 304.112C449.632 303.865 449.797 303.643 450 303.459C450.203 303.276 450.44 303.134 450.698 303.042L483.414 291.364C483.934 291.178 484.507 291.207 485.007 291.443C485.506 291.68 485.891 292.105 486.077 292.626C486.263 293.147 486.235 293.72 485.998 294.219C485.761 294.719 485.336 295.104 484.815 295.29V295.29Z" fill="#557AA1"/>
<path d="M509.235 142.096C518.59 142.096 526.174 134.512 526.174 125.157C526.174 115.802 518.59 108.218 509.235 108.218C499.88 108.218 492.296 115.802 492.296 125.157C492.296 134.512 499.88 142.096 509.235 142.096Z" fill="#FFB6B6"/>
<path d="M491.423 122.946C492.323 123.546 493.395 123.832 494.474 123.761C494.722 122.465 494.762 121.137 494.591 119.827C495.234 121.002 495.717 122.257 496.028 123.559C499.041 122.902 498.907 122.006 502.011 122.475C502.863 122.654 503.67 123.008 504.38 123.512C505.09 124.017 505.689 124.663 506.139 125.409C506.589 126.155 506.881 126.986 506.996 127.85C507.111 128.714 507.047 129.592 506.808 130.43C507.465 128.99 510.197 129.644 510.658 131.292C511.138 133.026 510.081 134.778 509.068 136.266C505.454 141.585 514.803 151.39 511.188 156.709L510.684 157.31C513.845 155.665 516.835 153.712 519.612 151.479C519.137 149.378 519.054 147.207 519.369 145.076C519.761 146.832 520.722 148.408 522.103 149.562C532.331 141.542 544.634 129.996 542.372 127.194L535.487 115.058C528.251 102.31 510.801 97.1886 499.989 107.088C499.706 107.351 499.066 107.177 498.781 107.454C495.675 108.259 491.699 109.717 489.67 112.2C487.648 114.687 488.768 121.154 491.423 122.946Z" fill="#2F2E41"/>
<path d="M504.675 254.126C490.894 246.777 480.078 236.417 473.191 222.068C472.555 221.418 472.202 220.543 472.21 219.633C472.219 218.724 472.587 217.855 473.235 217.217L497.446 193.44C498.096 192.803 498.971 192.45 499.881 192.459C500.79 192.467 501.659 192.835 502.297 193.483L533.781 225.541C534.417 226.191 534.77 227.066 534.762 227.976C534.754 228.885 534.385 229.754 533.737 230.392L509.526 254.17C508.877 254.806 508.001 255.159 507.092 255.151C506.182 255.142 505.313 254.774 504.675 254.126V254.126Z" fill="#E6E6E6"/>
<path d="M497.023 242.619C489.495 239.832 483.004 231.627 476.782 222.009C476.186 221.401 475.856 220.581 475.863 219.729C475.871 218.878 476.216 218.064 476.823 217.466L497.631 197.032C498.239 196.436 499.059 196.105 499.911 196.113C500.762 196.12 501.576 196.466 502.174 197.073L530.19 225.6C530.786 226.208 531.117 227.028 531.109 227.88C531.101 228.732 530.756 229.545 530.149 230.143L517.259 242.802C514.55 245.457 510.897 246.929 507.103 246.895C503.31 246.861 499.684 245.323 497.023 242.619Z" fill="white"/>
<path d="M511.088 215.321L494.908 231.3C494.781 231.426 494.63 231.525 494.464 231.593C494.298 231.66 494.12 231.695 493.941 231.694C493.761 231.692 493.584 231.656 493.419 231.587C493.254 231.517 493.104 231.415 492.978 231.288C492.852 231.16 492.753 231.009 492.685 230.843C492.617 230.677 492.583 230.5 492.585 230.32C492.586 230.141 492.622 229.964 492.692 229.799C492.761 229.634 492.863 229.484 492.991 229.358L509.17 213.379C509.298 213.253 509.449 213.154 509.615 213.086C509.781 213.018 509.959 212.984 510.138 212.985C510.317 212.986 510.494 213.023 510.66 213.092C510.825 213.162 510.975 213.263 511.1 213.391C511.226 213.519 511.326 213.67 511.394 213.836C511.461 214.002 511.495 214.179 511.494 214.359C511.493 214.538 511.456 214.715 511.387 214.88C511.317 215.045 511.216 215.195 511.088 215.321V215.321Z" fill="#557AA1"/>
<path d="M493.21 222.46L489.651 225.976C489.393 226.23 489.045 226.371 488.683 226.369C488.321 226.367 487.975 226.221 487.721 225.964C487.467 225.706 487.325 225.358 487.327 224.996C487.33 224.634 487.476 224.288 487.733 224.034L491.293 220.519C491.42 220.392 491.571 220.292 491.737 220.224C491.903 220.156 492.081 220.122 492.261 220.123C492.44 220.124 492.618 220.16 492.783 220.23C492.948 220.299 493.098 220.401 493.224 220.529C493.351 220.656 493.45 220.808 493.518 220.974C493.585 221.14 493.619 221.318 493.618 221.497C493.617 221.677 493.58 221.854 493.51 222.02C493.44 222.185 493.338 222.335 493.21 222.46Z" fill="#557AA1"/>
<path d="M519.518 223.857L503.338 239.835C503.21 239.961 503.059 240.061 502.893 240.129C502.727 240.196 502.55 240.23 502.37 240.229C502.191 240.228 502.014 240.192 501.849 240.122C501.684 240.053 501.534 239.951 501.408 239.824C501.282 239.696 501.182 239.545 501.115 239.379C501.047 239.213 501.013 239.035 501.014 238.856C501.015 238.677 501.052 238.5 501.121 238.334C501.191 238.169 501.293 238.02 501.42 237.894L517.6 221.915C517.728 221.789 517.879 221.689 518.045 221.622C518.211 221.554 518.388 221.52 518.568 221.521C518.747 221.522 518.924 221.559 519.089 221.628C519.254 221.698 519.404 221.799 519.53 221.927C519.656 222.054 519.756 222.205 519.823 222.371C519.891 222.537 519.925 222.715 519.924 222.894C519.923 223.073 519.886 223.251 519.816 223.416C519.747 223.581 519.645 223.731 519.518 223.857V223.857Z" fill="#6C63FF"/>
<path d="M515.303 219.589L499.123 235.567C498.995 235.694 498.844 235.794 498.678 235.862C498.512 235.93 498.334 235.964 498.155 235.963C497.975 235.962 497.798 235.926 497.632 235.856C497.467 235.787 497.317 235.685 497.191 235.558C497.065 235.43 496.965 235.279 496.898 235.112C496.83 234.946 496.796 234.768 496.797 234.589C496.799 234.409 496.835 234.232 496.905 234.067C496.975 233.901 497.077 233.752 497.205 233.626L513.385 217.647C513.643 217.393 513.991 217.252 514.352 217.254C514.714 217.256 515.06 217.402 515.314 217.66C515.569 217.917 515.71 218.265 515.708 218.627C515.706 218.988 515.56 219.334 515.303 219.589V219.589Z" fill="#557AA1"/>
<path d="M480.617 287.328C480.416 286.286 480.444 285.213 480.699 284.183C480.953 283.153 481.429 282.191 482.092 281.362C482.755 280.534 483.59 279.86 484.54 279.386C485.489 278.912 486.53 278.65 487.591 278.619L500.903 244.616L511.213 245.986L495.107 286.256C495.028 288.045 494.295 289.743 493.047 291.028C491.8 292.313 490.124 293.096 488.338 293.228C486.552 293.36 484.78 292.833 483.356 291.745C481.933 290.658 480.959 289.086 480.617 287.328V287.328Z" fill="#FFB6B6"/>
<path d="M537.219 166.705C537.219 166.705 547.757 180.893 543.612 189.007C539.466 197.121 536.844 205.043 534.118 207.601C531.393 210.16 523.513 234.937 520.516 236.242C517.519 237.548 520.691 240.654 516.712 243.484C512.734 246.313 511.481 246.585 511.752 247.838C512.024 249.091 504.429 266.359 504.429 266.359L492.055 261.791L518.406 170.133L537.219 166.705Z" fill="#557AA1"/>
<path d="M734.887 461.657L72.1374 460.964C71.8222 460.963 71.5203 460.837 71.2977 460.614C71.0752 460.391 70.9502 460.089 70.9502 459.773C70.9502 459.458 71.0752 459.156 71.2977 458.933C71.5203 458.71 71.8222 458.584 72.1374 458.583L734.887 459.275C735.044 459.275 735.199 459.305 735.344 459.365C735.489 459.425 735.621 459.512 735.732 459.623C735.842 459.734 735.931 459.865 735.991 460.01C736.051 460.154 736.082 460.309 736.082 460.466C736.082 460.623 736.051 460.778 735.991 460.923C735.931 461.067 735.842 461.199 735.732 461.309C735.621 461.42 735.489 461.508 735.344 461.567C735.199 461.627 735.044 461.657 734.887 461.657V461.657Z" fill="#CACACA"/>
<path d="M248.983 199.381C241.135 185.878 237.394 171.376 239.095 155.55C238.895 154.663 239.056 153.733 239.542 152.964C240.028 152.195 240.799 151.65 241.686 151.449L274.788 143.981C275.675 143.782 276.605 143.943 277.374 144.429C278.143 144.915 278.688 145.685 278.889 146.572L288.778 190.403C288.977 191.291 288.816 192.221 288.33 192.99C287.844 193.759 287.073 194.303 286.186 194.504L253.084 201.972C252.197 202.172 251.267 202.011 250.498 201.525C249.729 201.039 249.184 200.268 248.983 199.381V199.381Z" fill="#E6E6E6"/>
<path d="M248.535 185.57C243.603 179.237 242.404 168.843 242.178 157.391C241.992 156.56 242.142 155.689 242.597 154.969C243.052 154.249 243.774 153.739 244.605 153.55L273.053 147.132C273.885 146.946 274.756 147.096 275.476 147.551C276.196 148.006 276.706 148.728 276.894 149.559L285.694 188.563C285.88 189.394 285.73 190.265 285.275 190.985C284.82 191.705 284.098 192.215 283.267 192.403L265.644 196.379C261.942 197.21 258.062 196.539 254.854 194.512C251.647 192.486 249.375 189.27 248.535 185.57V185.57Z" fill="white"/>
<path d="M259.601 164.04C260.181 163.371 260.961 162.908 261.826 162.72C262.69 162.531 263.593 162.627 264.398 162.994C265.203 163.422 265.847 164.099 266.235 164.925C266.622 165.75 266.73 166.679 266.544 167.571C266.232 169.634 265.155 171.512 265.057 173.625C264.969 174.55 265.13 175.482 265.525 176.323C265.919 177.165 266.531 177.886 267.298 178.411C268.473 179.124 269.682 177.358 268.502 176.641C266.56 175.461 267.212 172.868 267.776 171.099C268.479 168.89 269.212 166.639 268.342 164.363C267.957 163.41 267.339 162.57 266.545 161.917C265.75 161.265 264.805 160.822 263.796 160.63C262.786 160.437 261.745 160.501 260.766 160.815C259.787 161.129 258.903 161.683 258.194 162.427C257.267 163.426 258.663 165.052 259.601 164.04V164.04Z" fill="#557AA1"/>
<path d="M269.029 184.579C270.211 184.579 271.17 183.621 271.17 182.439C271.17 181.257 270.211 180.298 269.029 180.298C267.847 180.298 266.889 181.257 266.889 182.439C266.889 183.621 267.847 184.579 269.029 184.579Z" fill="#557AA1"/>
<path d="M59.7758 106.159C51.9278 92.6558 48.1871 78.1535 49.8872 62.3281C49.6881 61.4407 49.8491 60.5106 50.3348 59.7418C50.8206 58.973 51.5915 58.4282 52.4784 58.2271L85.5806 50.759C86.468 50.5599 87.398 50.7208 88.1669 51.2066C88.9357 51.6924 89.4804 52.4633 89.6816 53.3502L99.5702 97.1813C99.7693 98.0686 99.6083 98.9987 99.1226 99.7676C98.6368 100.536 97.8659 101.081 96.979 101.282L63.8768 108.75C62.9894 108.95 62.0593 108.789 61.2905 108.303C60.5216 107.817 59.9769 107.046 59.7758 106.159V106.159Z" fill="#E6E6E6"/>
<path d="M59.3282 92.3475C54.3957 86.0143 53.1966 75.621 52.9709 64.1689C52.7844 63.3379 52.9351 62.4668 53.3901 61.7467C53.845 61.0267 54.567 60.5165 55.3976 60.3282L83.8462 53.91C84.6772 53.7235 85.5484 53.8742 86.2684 54.3291C86.9885 54.7841 87.4987 55.5061 87.6871 56.3367L96.4866 95.3404C96.673 96.1714 96.5223 97.0425 96.0673 97.7626C95.6123 98.4826 94.8903 98.9928 94.0596 99.1811L76.4364 103.157C72.7346 103.988 68.8544 103.316 65.6471 101.29C62.4398 99.2634 60.1673 96.0474 59.3282 92.3475V92.3475Z" fill="white"/>
<path d="M74.1973 95.3204C75.8541 95.3204 77.1973 93.9772 77.1973 92.3204C77.1973 90.6635 75.8541 89.3204 74.1973 89.3204C72.5404 89.3204 71.1973 90.6635 71.1973 92.3204C71.1973 93.9772 72.5404 95.3204 74.1973 95.3204Z" fill="#557AA1"/>
<path d="M77.7825 63.8278C76.6278 62.474 74.5151 62.6892 72.7671 63.0222C70.951 63.2862 69.1781 63.7909 67.4953 64.5231C66.6549 64.894 65.8963 65.4275 65.2632 66.093C64.6301 66.7585 64.135 67.5428 63.8065 68.4006C63.1083 70.5418 63.8686 72.8686 64.7806 74.9276C66.5365 78.8883 68.8672 82.5682 71.6975 85.8484L73.1276 86.5107C75.3523 83.6764 76.9876 80.4256 77.937 76.9498C78.8863 73.4739 79.1307 69.8432 78.6556 66.2715C78.6013 65.3908 78.2986 64.5435 77.7825 63.8278Z" fill="#557AA1"/>
</g>
<defs>
<clipPath id="clip0_26_79">
<rect width="736.078" height="461.657" fill="white"/>
</clipPath>
</defs>
</svg>
