<svg width="1521" height="770" viewBox="0 0 1521 770" fill="none" xmlns="http://www.w3.org/2000/svg">
<path d="M556.299 335.301L332.612 223.396L334.09 220.571L557.776 332.476L556.299 335.301Z" fill="#E5E5E5"/>
<path d="M-1.05061e-05 166.618C0.00770904 197.324 8.6832 227.431 25.0704 253.622C41.4575 279.812 64.9201 301.07 92.8721 315.051C94.3156 315.781 95.7764 316.495 97.2366 317.162C98.0961 317.574 98.9565 317.955 99.8161 318.336C101.926 319.272 104.067 320.177 106.225 321.018C113.901 324.087 121.804 326.586 129.865 328.492C131.001 328.777 132.169 329.031 133.321 329.285C136.225 329.92 139.151 330.47 142.098 330.935C158.187 333.57 174.577 333.944 190.773 332.046C194.132 331.665 197.463 331.179 200.768 330.586C202.342 330.301 203.916 329.999 205.473 329.682C205.684 329.634 205.895 329.587 206.106 329.555C211.697 328.404 217.221 326.963 222.655 325.239C225.576 324.318 228.481 323.334 231.32 322.255C232.796 321.7 234.256 321.129 235.7 320.542C236.414 320.256 237.128 319.955 237.826 319.653C266.063 307.748 290.479 288.591 308.486 264.213C326.493 239.835 337.418 211.146 340.104 181.188C342.79 151.229 337.136 121.118 323.741 94.0479C310.347 66.9776 289.712 43.9571 264.024 27.4275C238.336 10.898 208.553 1.47563 177.833 0.159646C147.113 -1.15634 116.602 5.68313 89.5348 19.9527C62.4675 34.2223 39.8533 55.3901 24.0902 81.2113C8.32709 107.033 0.00276284 136.545 -1.05061e-05 166.618Z" fill="#F1F1F1"/>
<path d="M64.5979 106.022C70.2004 87.3305 82.9406 70.187 100.56 63.8681C118.18 57.5492 143.981 67.1749 157.228 80.9957C181.458 106.277 187.371 193.125 170.724 220.571C167.413 220.387 155.987 220.252 152.636 220.12L147.895 203.578V219.957C142.556 219.784 137.175 219.665 131.752 219.599C113.571 219.363 96.1848 211.757 83.2495 198.379C70.3142 185.002 62.8369 166.895 62.3897 147.866C61.9559 129.661 62.3901 113.389 64.5979 106.022Z" fill="#3F3D56"/>
<path d="M124.932 168.205C146.367 168.205 163.742 150.088 163.742 127.741C163.742 105.393 146.367 87.2762 124.932 87.2762C103.498 87.2762 86.1222 105.393 86.1222 127.741C86.1222 150.088 103.498 168.205 124.932 168.205Z" fill="#9E616A"/>
<path d="M92.093 91.954L136.168 68.2341C145.179 72.5983 152.94 79.4739 158.645 88.148C164.35 96.8221 167.792 106.979 168.615 117.564L169.713 131.708L151.257 126.658L149.235 108.573L146.1 125.247L137.583 122.918L137.664 94.8415L129.141 122.898L98.72 115.386L92.093 91.954Z" fill="#3F3D56"/>
<path d="M199.567 228.565C181.083 251.548 155.069 265.667 127.142 267.873C99.2147 270.078 71.6137 260.194 50.2974 240.353L59.4487 212.449C61.5167 207.493 64.7802 203.245 68.8893 200.162C72.9984 197.078 77.7981 195.275 82.7735 194.946L88.5954 194.555L102.477 181.471C102.477 181.471 139.882 180.012 139.327 179.313L161.984 194.206L161.965 194.103L170.872 194.699C175.848 195.027 180.648 196.829 184.757 199.913C188.867 202.997 192.13 207.245 194.197 212.202L199.567 228.565Z" fill="#557AA1"/>
<path d="M311.52 151.021C311.52 150.877 311.52 150.733 311.52 150.589C311.225 144.945 306.462 140.453 300.618 140.453C295.904 140.453 291.902 143.359 290.379 147.442L282.473 146.674C282.473 146.602 282.473 146.53 282.473 146.458C282.473 136.635 277.563 127.94 270 122.585L276.801 111.369C277.759 111.633 278.79 111.801 279.846 111.801C285.862 111.801 290.748 107.022 290.748 101.137C290.748 101.113 290.748 101.113 290.748 101.089C290.748 101.065 290.748 101.065 290.748 101.041C290.748 95.1812 285.911 90.4499 279.895 90.4499H279.871H279.846C273.831 90.4499 268.944 95.2293 268.944 101.113C268.944 104.044 270.172 106.709 272.136 108.655L265.335 119.847C261.407 117.997 256.987 116.965 252.322 116.965C244.661 116.965 237.688 119.751 232.385 124.338L229.193 121.408C230.052 119.871 230.543 118.118 230.543 116.244C230.543 110.36 225.657 105.581 219.642 105.581H219.617H219.593C213.602 105.581 208.74 110.312 208.74 116.172C208.74 116.196 208.74 116.196 208.74 116.22C208.74 116.244 208.74 116.244 208.74 116.268C208.74 122.152 213.626 126.932 219.642 126.932C221.778 126.932 223.767 126.331 225.461 125.299L228.628 128.229C224.577 133.248 222.171 139.589 222.171 146.458C222.171 148.787 222.441 151.069 222.981 153.254L211.539 157.001C209.6 154.047 206.211 152.102 202.356 152.102C196.341 152.102 191.455 156.881 191.455 162.765V162.789V162.813C191.455 168.673 196.292 173.405 202.283 173.405C202.307 173.405 202.307 173.405 202.332 173.405C202.356 173.405 202.356 173.405 202.381 173.405C208.396 173.405 213.282 168.625 213.282 162.741C213.282 162.501 213.282 162.261 213.258 162.045L224.724 158.298C229.389 168.673 239.996 175.927 252.322 175.927C253.697 175.927 255.047 175.83 256.373 175.662L258.141 183.18C254.655 184.957 252.248 188.535 252.248 192.642C252.248 198.527 257.134 203.306 263.15 203.306C263.911 203.306 264.623 203.234 265.335 203.09C270.319 202.105 274.051 197.782 274.051 192.642C274.051 186.854 269.313 182.123 263.42 181.979L261.652 174.461C271.964 171.171 279.846 162.573 281.908 151.958L289.815 152.726C290.625 157.842 295.143 161.756 300.593 161.756C306.437 161.756 311.2 157.265 311.495 151.621C311.495 151.429 311.52 151.261 311.52 151.069C311.52 151.093 311.52 151.069 311.52 151.021ZM271.498 161.252C271.228 159.403 270.344 157.409 267.962 156.833C263.174 155.632 259.271 152.966 259.271 152.966L256.226 162.381L255.661 164.158V164.134L255.17 165.623L253.574 161.18C257.527 155.8 252.788 155.848 252.518 155.872C252.248 155.872 247.51 155.8 251.463 161.18L249.867 165.623L249.376 164.134V164.158L248.811 162.381L245.766 152.966C245.766 152.966 241.862 155.656 237.074 156.833C234.644 157.433 233.784 159.499 233.539 161.396C230.175 157.313 228.162 152.126 228.162 146.482C228.162 133.32 239.063 122.681 252.494 122.681C265.949 122.681 276.826 133.344 276.826 146.482C276.752 152.054 274.788 157.193 271.498 161.252Z" fill="#F9AD42"/>
<path d="M261.382 140.285C261.529 139.877 261.652 139.445 261.726 139.036C263.052 131.207 259.123 130.943 259.123 130.943C259.123 130.943 258.46 129.718 256.742 128.781C255.588 128.109 253.992 127.604 251.855 127.772C251.168 127.796 250.53 127.94 249.916 128.133C249.13 128.397 248.418 128.757 247.78 129.213C246.994 129.694 246.233 130.294 245.57 130.991C244.539 132.023 243.606 133.392 243.188 135.074C242.844 136.322 242.918 137.643 243.213 139.06C243.286 139.469 243.409 139.877 243.556 140.309C242.771 140.237 241.838 140.694 242.722 143.696C243.36 145.905 243.949 146.53 244.416 146.554C244.833 149.172 246.896 152.534 250.309 153.687C251.708 154.167 253.23 154.167 254.63 153.687C257.994 152.51 260.13 149.172 260.547 146.554C260.989 146.53 261.603 145.905 262.241 143.696C263.101 140.67 262.168 140.213 261.382 140.285Z" fill="#F9AD42"/>
<path d="M556.302 435L332.614 546.905L334.092 549.73L557.78 437.825L556.302 435Z" fill="#E5E5E5"/>
<path d="M0.687347 601.65C0.695051 570.754 9.35311 540.461 25.7073 514.108C42.0616 487.755 65.477 466.366 93.3728 452.298C94.8133 451.563 96.2712 450.845 97.7284 450.174C98.5863 449.759 99.4449 449.376 100.303 448.993C102.408 448.051 104.545 447.141 106.699 446.294C114.36 443.206 122.246 440.692 130.291 438.774C131.425 438.487 132.59 438.231 133.74 437.976C136.638 437.337 139.558 436.784 142.5 436.315C158.556 433.664 174.913 433.288 191.077 435.198C194.429 435.581 197.754 436.07 201.052 436.666C202.622 436.954 204.193 437.257 205.748 437.577C205.958 437.624 206.168 437.672 206.379 437.704C211.959 438.862 217.472 440.312 222.895 442.047C225.81 442.973 228.709 443.963 231.542 445.049C233.015 445.608 234.472 446.183 235.914 446.773C236.626 447.061 237.338 447.364 238.035 447.667C266.215 459.646 290.583 478.922 308.553 503.451C326.524 527.979 337.427 556.846 340.107 586.99C342.788 617.134 337.145 647.432 323.778 674.67C310.41 701.908 289.817 725.071 264.18 741.703C238.544 758.335 208.821 767.815 178.163 769.139C147.505 770.463 117.055 763.582 90.0421 749.224C63.0292 734.866 40.4605 713.567 24.7291 687.586C8.99773 661.605 0.690115 631.91 0.687347 601.65Z" fill="#F1F1F1"/>
<path d="M127.277 603.289C148.269 603.289 165.285 584.977 165.285 562.389C165.285 539.8 148.269 521.488 127.277 521.488C106.286 521.488 89.2694 539.8 89.2694 562.389C89.2694 584.977 106.286 603.289 127.277 603.289Z" fill="#FFB8B8"/>
<path d="M206.059 667.929C187.574 690.562 161.561 704.465 133.633 706.637C105.705 708.809 78.1042 699.075 56.7878 679.538L65.9391 652.059C68.0071 647.179 71.2707 642.996 75.3798 639.96C79.4889 636.923 84.2886 635.148 89.2641 634.823L95.086 634.439L108.968 621.555C108.968 621.555 146.373 620.117 145.818 619.429L168.475 634.095L168.456 633.993L177.363 634.58C182.339 634.903 187.139 636.678 191.249 639.715C195.358 642.751 198.621 646.935 200.688 651.816L206.059 667.929Z" fill="#557AA1"/>
<path d="M167.377 548.045C167.643 544.991 167.765 541.925 167.743 538.858C167.898 532.792 166.865 526.759 164.712 521.151C162.063 514.942 157.34 510.032 151.482 507.398C145.675 504.878 139.186 504.884 133.384 507.415C128.145 503.853 122.324 501.03 116.194 500.68C110.064 500.33 103.583 502.777 99.8056 508.164C98.9621 509.586 98.0039 510.926 96.9424 512.167C93.9058 515.193 89.2911 514.757 85.255 514.138C87.0652 515.808 88.876 517.477 90.6872 519.147C88.4959 519.763 86.3044 520.379 84.1127 520.995C86.6701 522.664 89.2272 524.333 91.7842 526.002C84.3603 530.797 80.986 541.263 81.8774 550.768C82.7206 559.767 86.7581 567.996 91.5845 575.311C93.5098 570.939 93.095 565.707 93.0632 560.783C93.0456 559.185 93.1361 557.589 93.3342 556.006C109.645 560.213 126.689 562.914 143.972 556.231L147.441 547.096C147.928 547.15 148.415 547.201 148.901 547.256L150.911 556.24C155.467 558.244 160.032 559.995 164.599 558.155C164.821 559.542 164.955 560.958 165.058 562.319C165.45 560.691 165.79 559.051 166.097 557.405C166.7 557.056 167.278 556.659 167.826 556.216C167.936 553.483 167.786 550.745 167.377 548.045V548.045Z" fill="#2F2E41"/>
<path d="M278.056 617.979C274.871 616.016 278.105 618.005 278.056 617.979H209.295H201.191C196.61 617.979 193.079 616.998 193.079 612.168V606.796H199.766L203.625 606.965V579.264V551.395C203.625 547.03 205.155 546.665 209.295 546.665H244.999H265.28H285.561C289.701 546.665 290.429 547.03 290.429 551.395V564.412V575.725C287.933 575.714 290.406 575.725 289.966 575.725C287.124 575.725 286.311 575.957 284.474 576.241C283.91 575.26 283.322 574.278 282.734 573.297V554.313H210.348V606.848H236.486V607.39C236.486 609.043 237.759 610.386 239.327 610.386H253.682C255.25 610.386 256.523 609.043 256.523 607.39V606.848H261.766C263.652 607.984 265.538 609.353 267.498 611.032C268.012 611.497 268.649 611.962 269.286 612.478C269.972 612.995 270.658 613.537 271.123 614.002C273.597 616.301 276.145 617.334 278.056 617.979ZM311.86 606.873C311.566 605.814 311.052 604.213 310.758 602.328C310.513 595.122 307.696 587.425 306.618 584.636C306.398 583.887 305.859 583.422 305.222 583.137C293.317 578.721 282.097 581.872 282.097 581.872L280.505 579.237C279.256 577.042 277.933 574.95 276.684 572.755C275.263 570.353 273.94 568.028 272.519 565.729C271.515 564.076 269.629 563.56 268.086 564.412C266.542 565.368 265.954 567.15 266.738 568.984C270.168 577.378 273.622 585.643 276.855 594.011C277.149 594.967 277.443 595.922 277.443 596.955C277.419 598.996 276.978 600.701 275.214 599.771C273.181 598.712 268.821 595.767 267.767 595.561C266.077 595.07 264.24 594.76 262.427 595.483C261.619 595.793 260.639 596.723 260.271 597.498C259.536 599.048 259.806 600.106 261.3 600.804C264.632 602.405 267.718 604.601 270.584 607.08C271.662 608.01 273.303 609.12 274.357 610.179C275.949 611.703 277.615 612.504 279.501 613.124C279.501 613.124 286.923 615.603 292.582 621.26C294.443 623.119 297.236 623.326 299.318 621.905L311.958 613.175C313.012 612.375 313.452 610.877 312.914 609.585L311.86 606.873Z" fill="#F9AD42"/>
<path d="M1520.78 571.65C1520.74 598.664 1514.1 625.271 1501.43 649.22C1488.75 673.168 1470.41 693.754 1447.96 709.235C1447.54 709.522 1447.12 709.809 1446.7 710.081C1444.24 711.757 1441.73 713.37 1439.15 714.887C1437.52 715.877 1435.85 716.835 1434.18 717.777C1432.17 718.894 1430.15 719.964 1428.09 721.002C1427.62 721.242 1427.15 721.481 1426.67 721.705C1424.95 722.567 1423.22 723.397 1421.45 724.18C1421.36 724.227 1421.26 724.259 1421.16 724.307C1420.58 724.563 1419.98 724.834 1419.36 725.09C1415.56 726.75 1411.67 728.283 1407.71 729.656C1407.43 729.768 1407.14 729.864 1406.85 729.959C1397.76 733.106 1388.42 735.457 1378.91 736.985C1377.12 737.304 1375.3 737.56 1373.49 737.799C1373.2 737.847 1372.89 737.895 1372.6 737.927C1370.12 738.246 1367.63 738.502 1365.12 738.709C1364.83 738.741 1364.54 738.757 1364.24 738.773C1362.37 738.933 1360.47 739.044 1358.56 739.124C1355.97 739.236 1353.38 739.3 1350.76 739.3C1347.08 739.3 1343.43 739.188 1339.79 738.965C1336.64 738.757 1333.49 738.486 1330.38 738.102C1328.49 737.879 1326.6 737.623 1324.73 737.336C1322.68 737.033 1320.62 736.681 1318.6 736.298C1317.59 736.107 1316.59 735.899 1315.58 735.691C1315.42 735.66 1315.24 735.628 1315.08 735.596C1313.46 735.26 1311.86 734.909 1310.27 734.51C1303.98 733.013 1297.78 731.146 1291.72 728.922C1289.64 728.155 1287.59 727.357 1285.55 726.527C1284.92 726.271 1284.28 726 1283.67 725.728C1282.55 725.265 1281.45 724.77 1280.35 724.275C1279.52 723.908 1278.7 723.525 1277.87 723.142C1276.12 722.343 1274.41 721.497 1272.69 720.619C1271.31 719.932 1269.94 719.198 1268.59 718.463C1268.56 718.447 1268.54 718.431 1268.51 718.415C1242.27 704.118 1220.33 683.233 1204.91 657.876C1189.49 632.52 1181.15 603.595 1180.72 574.034C1180.3 544.473 1187.81 515.326 1202.49 489.55C1217.18 463.774 1238.51 442.285 1264.34 427.262C1290.16 412.238 1319.55 404.214 1349.53 404.004C1379.52 403.794 1409.02 411.405 1435.06 426.065C1461.1 440.725 1482.74 461.913 1497.79 487.48C1512.85 513.048 1520.78 542.086 1520.78 571.65V571.65Z" fill="#F1F1F1"/>
<path d="M964.474 421.338L963 424.18L1186.26 536.745L1187.73 533.903L964.474 421.338Z" fill="#E5E5E5"/>
<path d="M1363.03 568.998C1356.84 568.568 1350.62 569.342 1344.75 571.275C1338.87 573.207 1333.45 576.259 1328.81 580.25C1324.16 584.242 1320.39 589.093 1317.71 594.518C1315.02 599.944 1313.49 605.834 1313.19 611.844L1310.25 661.856C1312.11 662.794 1313.98 663.699 1315.88 664.552C1316.78 664.961 1317.67 665.371 1318.57 665.763C1319.77 666.292 1320.97 666.821 1322.18 667.316C1322.85 667.606 1323.53 667.896 1324.22 668.169C1326.44 669.057 1328.67 669.91 1330.93 670.729C1337.52 673.107 1344.26 675.101 1351.1 676.701C1352.82 677.128 1354.56 677.503 1356.32 677.861C1356.5 677.895 1356.69 677.929 1356.87 677.964C1357.96 678.185 1359.05 678.407 1360.14 678.612L1363.87 569.049L1363.03 568.998Z" fill="#2F2E41"/>
<path d="M1410.7 681.189C1413.43 680.967 1416.14 680.694 1418.83 680.353C1419.15 680.318 1419.49 680.267 1419.8 680.216C1421.77 679.96 1423.74 679.687 1425.7 679.346C1425.86 674.722 1425.8 671.394 1425.8 670.985L1434.55 582.614L1416.32 572.308L1412.76 570.295L1357.64 568.571L1357.18 568.947L1330.72 591.197L1322.18 667.316C1322.85 667.606 1323.53 667.896 1324.22 668.169C1326.44 669.057 1328.67 669.91 1330.93 670.729C1337.52 673.106 1344.26 675.101 1351.1 676.701C1352.82 677.128 1354.56 677.503 1356.32 677.861C1356.5 677.895 1356.69 677.929 1356.87 677.964C1357.96 678.185 1359.05 678.407 1360.14 678.612C1362.34 679.022 1364.58 679.397 1366.81 679.721C1368.84 680.028 1370.89 680.301 1372.95 680.54C1376.33 680.95 1379.75 681.24 1383.18 681.462C1387.12 681.7 1391.09 681.82 1395.09 681.82C1397.94 681.82 1400.76 681.752 1403.58 681.632C1405.65 681.547 1407.71 681.427 1409.75 681.257L1410.7 681.189Z" fill="#557AA1"/>
<path d="M1447.57 590.225L1416.35 571.728L1416.32 572.308L1410.7 681.189C1413.43 680.967 1416.14 680.694 1418.83 680.353C1419.15 680.318 1419.49 680.267 1419.8 680.216C1421.77 679.96 1423.74 679.687 1425.7 679.346C1436.02 677.713 1446.18 675.201 1456.06 671.838C1456.37 671.736 1456.69 671.633 1456.99 671.514L1459.21 610.462C1459.36 606.38 1458.36 602.335 1456.31 598.767C1454.26 595.199 1451.24 592.245 1447.57 590.225V590.225Z" fill="#2F2E41"/>
<path d="M1379.05 556.787C1400.44 556.787 1417.78 539.974 1417.78 519.234C1417.78 498.494 1400.44 481.681 1379.05 481.681C1357.66 481.681 1340.31 498.494 1340.31 519.234C1340.31 539.974 1357.66 556.787 1379.05 556.787Z" fill="#9F616A"/>
<path d="M1365.04 463.784C1404.05 452.878 1415.12 484.225 1415.12 484.225C1433.93 496.319 1422.15 511.483 1422.15 511.483C1426.9 512.504 1417.41 539.423 1414.25 538.742C1412.56 538.378 1408.22 543.401 1404.54 548.164C1403.28 548.163 1402.02 548.28 1400.78 548.515L1407.92 522.898C1407.92 522.898 1383.85 519.322 1376.47 508.079C1369.41 497.322 1346.16 493.925 1339.54 501.111C1339.15 499.045 1338.35 497.072 1337.18 495.303C1336.28 493.958 1335.1 492.81 1333.72 491.931C1339.56 467.831 1365.04 463.784 1365.04 463.784Z" fill="#2F2E41"/>
<path opacity="0.2" d="M1409.75 681.257C1407.71 681.427 1405.65 681.547 1403.58 681.632L1409 652.761V654.758L1409.75 681.257Z" fill="black"/>
<path d="M1259.06 539.268V533.564C1255.38 529.038 1252.88 523.023 1248.66 519.216C1243.86 514.894 1237.96 513.336 1232.18 514.42C1227.2 515.354 1221.6 516.845 1216.73 514.582C1216.29 514.379 1215.87 514.921 1216.04 515.463C1217.52 520.191 1223.4 534.648 1239.61 536.233C1251.64 537.411 1256.49 538.265 1259.06 539.268Z" fill="#F9AD42"/>
<path d="M1313.94 514.596C1309.06 516.858 1303.46 515.368 1298.48 514.433C1292.7 513.349 1286.8 514.907 1282 519.229C1277.78 523.023 1275.28 529.038 1271.6 533.577V539.281C1274.17 538.279 1279.02 537.411 1291.05 536.233C1307.25 534.648 1313.13 520.191 1314.63 515.476C1314.8 514.934 1314.37 514.392 1313.94 514.596Z" fill="#F9AD42"/>
<path d="M1260.94 528.158C1261.48 528.795 1262.12 529.323 1262.81 529.689V557.924L1260.94 556.8L1259.06 555.675L1250.5 550.567H1256.65C1257.72 550.567 1258.63 549.687 1258.95 548.467C1259.04 548.156 1259.08 547.83 1259.08 547.492V544.457C1259.08 544.118 1259.04 543.779 1258.95 543.481C1258.63 542.262 1257.72 541.381 1256.65 541.381H1246.15C1244.8 541.381 1243.72 542.763 1243.72 544.457V554.645C1243.72 555.865 1244.29 556.962 1245.15 557.45L1257.01 564.197L1249.7 569.725C1248.96 570.281 1248.51 571.283 1248.51 572.367V573.776C1248.51 574.968 1249.05 576.052 1249.91 576.567L1257.57 581.119L1252.57 584.656C1251.8 585.198 1251.33 586.227 1251.33 587.338V588.815C1251.33 589.994 1251.86 591.078 1252.7 591.592L1257.98 594.831L1253.19 599.031C1252.54 599.6 1252.14 600.548 1252.14 601.564V603.515C1252.14 604.762 1252.74 605.886 1253.65 606.36L1258.11 608.691L1256.26 611.007C1255.8 611.59 1255.55 612.362 1255.55 613.189C1255.55 614.408 1256.11 615.506 1256.98 615.993L1257.39 616.224C1257.92 616.522 1258.5 616.576 1259.05 616.373C1259.19 616.319 1259.33 616.251 1259.47 616.17L1260.93 615.248L1262.8 614.07V621.399C1262.8 623.052 1263.85 624.38 1265.16 624.38H1265.47C1266.78 624.38 1267.83 623.052 1267.83 621.399V614.097L1269.7 615.275L1271.16 616.183C1271.29 616.264 1271.43 616.332 1271.58 616.386C1272.12 616.59 1272.71 616.535 1273.24 616.237L1273.65 616.007C1274.52 615.506 1275.08 614.408 1275.08 613.202C1275.08 612.39 1274.82 611.604 1274.36 611.021L1272.55 608.691L1277.01 606.36C1277.92 605.886 1278.52 604.762 1278.52 603.515V601.551C1278.52 600.535 1278.14 599.6 1277.47 599.017L1272.68 594.817L1277.96 591.579C1278.8 591.064 1279.34 589.994 1279.34 588.802V587.325C1279.34 586.214 1278.86 585.184 1278.09 584.642L1273.09 581.12L1280.75 576.567C1281.61 576.066 1282.15 574.968 1282.15 573.776V572.367C1282.15 571.283 1281.7 570.281 1280.96 569.725L1273.65 564.197L1285.52 557.464C1286.4 556.962 1286.95 555.865 1286.95 554.659V544.471C1286.95 542.764 1285.86 541.395 1284.52 541.395L1274.03 541.355C1272.96 541.355 1272.05 542.235 1271.73 543.455C1271.64 543.766 1271.6 544.091 1271.6 544.444V547.478C1271.6 547.817 1271.64 548.156 1271.73 548.468C1272.05 549.687 1272.96 550.568 1274.03 550.568L1280.16 550.608L1271.59 555.689L1269.71 556.813L1267.84 557.938V529.689C1268.53 529.31 1269.17 528.795 1269.71 528.158C1270.61 527.101 1271.28 525.706 1271.59 524.148C1271.72 523.511 1271.78 522.861 1271.78 522.17C1271.78 521.492 1271.72 520.828 1271.59 520.192C1271.43 519.392 1271.18 518.634 1270.85 517.943C1269.71 515.585 1267.67 514 1265.32 514C1262.97 514 1260.93 515.572 1259.79 517.943C1259.46 518.634 1259.21 519.392 1259.05 520.192C1258.92 520.828 1258.86 521.479 1258.86 522.17C1258.86 522.847 1258.92 523.511 1259.05 524.148C1259.37 525.706 1260.04 527.088 1260.94 528.158ZM1262.81 590.59L1259.04 588.043L1262.81 585.495V590.59ZM1257.56 572.814L1262.81 569.454V576.174L1257.56 572.814ZM1259.04 601.916L1262.81 599.369V604.463L1259.04 601.916ZM1267.84 604.463V599.383L1271.61 601.93L1267.84 604.463ZM1267.84 590.59V585.509L1271.61 588.056L1267.84 590.59ZM1273.09 572.814L1267.84 576.174V569.454L1273.09 572.814Z" fill="#F9AD42"/>
<path d="M1186.24 207.709L963 320.308L964.475 323.15L1187.72 210.552L1186.24 207.709Z" fill="#E5E5E5"/>
<path d="M1520.78 167.65C1520.77 198.546 1512.11 228.839 1495.76 255.192C1479.4 281.545 1455.99 302.934 1428.09 317.002C1426.65 317.737 1425.19 318.455 1423.74 319.126C1422.88 319.541 1422.02 319.924 1421.16 320.307C1419.06 321.249 1416.92 322.159 1414.76 323.006C1407.1 326.094 1399.22 328.608 1391.17 330.526C1390.04 330.813 1388.87 331.069 1387.72 331.324C1384.82 331.963 1381.9 332.516 1378.96 332.985C1362.91 335.636 1346.55 336.012 1330.38 334.102C1327.03 333.719 1323.71 333.23 1320.41 332.634C1318.84 332.346 1317.27 332.043 1315.71 331.723C1315.5 331.676 1315.29 331.628 1315.08 331.596C1309.5 330.438 1303.99 328.988 1298.56 327.253C1295.65 326.327 1292.75 325.337 1289.92 324.251C1288.44 323.692 1286.99 323.117 1285.55 322.527C1284.83 322.239 1284.12 321.936 1283.42 321.633C1255.24 309.654 1230.87 290.378 1212.9 265.849C1194.93 241.321 1184.03 212.454 1181.35 182.31C1178.67 152.166 1184.31 121.868 1197.68 94.6303C1211.05 67.3924 1231.64 44.2293 1257.28 27.5974C1282.92 10.9655 1312.64 1.48477 1343.3 0.160634C1373.96 -1.1635 1404.41 5.71832 1431.42 20.0763C1458.44 34.4342 1481.01 55.7331 1496.74 81.7143C1512.47 107.695 1520.78 137.39 1520.78 167.65Z" fill="#F1F1F1"/>
<path d="M1384.87 57.48C1371.87 57.4962 1359.41 62.9165 1350.22 72.5518C1341.03 82.1871 1335.86 95.2508 1335.84 108.877V147.227C1335.85 149.057 1336.54 150.811 1337.78 152.103C1339.02 153.396 1340.69 154.121 1342.44 154.12H1427.31C1429.05 154.121 1430.73 153.396 1431.97 152.103C1433.2 150.811 1433.9 149.057 1433.9 147.227V108.877C1433.89 95.2513 1428.71 82.1885 1419.52 72.5535C1410.33 62.9185 1397.87 57.4978 1384.87 57.48V57.48Z" fill="#2F2E41"/>
<path d="M1360.03 217.075L1355.38 195.501C1354.73 192.435 1353.21 189.639 1351.01 187.468C1349.05 185.716 1346.76 184.407 1344.28 183.627C1343.99 183.557 1343.7 183.487 1343.4 183.434C1343.27 183.397 1343.14 183.367 1343 183.346C1340.92 182.973 1338.78 183.048 1336.72 183.566C1334.67 184.085 1332.74 185.037 1331.06 186.361C1329.37 187.686 1327.97 189.354 1326.95 191.262C1325.92 193.17 1325.29 195.276 1325.09 197.448L1321.14 222.897L1315.1 261.87C1315.83 262.203 1316.58 262.536 1317.33 262.852C1318.85 263.501 1320.38 264.133 1321.93 264.746C1324.91 265.939 1327.95 267.027 1331.02 268.044C1336.72 269.95 1342.52 271.542 1348.38 272.814C1348.61 272.849 1348.83 272.902 1349.05 272.955C1350.68 273.306 1352.33 273.639 1353.99 273.954L1362.24 227.352L1360.03 217.075Z" fill="#2F2E41"/>
<path d="M1373.56 152.188C1393.35 152.188 1409.39 135.746 1409.39 115.464C1409.39 95.1825 1393.35 78.7409 1373.56 78.7409C1353.77 78.7409 1337.73 95.1825 1337.73 115.464C1337.73 135.746 1353.77 152.188 1373.56 152.188Z" fill="#FFB7B7"/>
<path d="M1412.62 239.869L1405 177.165L1403.39 163.879H1403.38L1402.66 163.861C1400.23 163.772 1397.87 163.754 1395.55 163.843C1381.28 163.906 1367.29 167.945 1355.02 175.542C1351.81 177.586 1348.75 179.875 1345.86 182.39L1345.73 182.533L1345.39 182.997L1333.27 199.261L1333.25 199.582L1332.07 268.832C1337.8 270.77 1343.61 272.389 1349.5 273.683C1349.73 273.718 1349.95 273.772 1350.17 273.825C1351.81 274.182 1353.47 274.521 1355.13 274.842C1358.61 275.502 1362.12 276.049 1365.66 276.482C1382.72 278.616 1399.98 278.195 1416.93 275.234L1412.62 239.869Z" fill="#557AA1"/>
<path d="M1424.57 178.333C1418.93 171.476 1411.28 166.704 1402.78 164.74H1402.76C1400.49 164.214 1398.18 163.9 1395.86 163.802L1395.26 163.784L1394.9 164.705L1366.07 236.386L1361.42 217.236L1354.21 176.315L1354.16 176.015L1353.08 176.669C1349.74 178.654 1346.58 180.946 1343.64 183.519C1331.95 193.703 1324.15 207.842 1321.63 223.413C1320.89 228.027 1320.62 232.706 1320.82 237.377L1322 265.572C1325.01 266.776 1328.08 267.873 1331.17 268.9C1336.91 270.823 1342.76 272.43 1348.67 273.714C1348.89 273.749 1349.12 273.802 1349.34 273.855C1350.99 274.209 1352.65 274.546 1354.32 274.864C1357.82 275.519 1361.34 276.062 1364.89 276.493C1382.02 278.61 1399.35 278.193 1416.37 275.254C1419.49 274.74 1422.58 274.127 1425.65 273.413C1426.87 273.13 1428.1 272.847 1429.3 272.528L1426.71 264.652L1433.58 209.979C1434.28 204.348 1433.84 198.629 1432.29 193.182C1430.74 187.734 1428.11 182.678 1424.57 178.333V178.333Z" fill="#2F2E41"/>
<path d="M1433.64 178.831C1432.42 174.87 1429.81 171.558 1426.35 169.583C1422.89 167.609 1418.84 167.125 1415.05 168.232C1414.43 168.398 1413.83 168.609 1413.25 168.862C1410.43 170.078 1408.02 172.159 1406.32 174.836C1404.63 177.513 1403.72 180.665 1403.73 183.888L1403.8 217.521L1412.8 240.141L1426.28 273.954C1427.49 273.667 1428.71 273.379 1429.9 273.055C1438.34 270.893 1446.62 268.06 1454.66 264.579C1456.92 263.625 1459.16 262.599 1461.37 261.538C1462.27 261.106 1463.17 260.674 1464.07 260.206L1433.64 178.831Z" fill="#2F2E41"/>
<path d="M1370.62 71.0097H1363.29C1353.01 71.0133 1343.15 75.213 1335.88 82.6854C1328.61 90.1577 1324.53 100.291 1324.53 110.856V111.599H1376.42L1376.96 103.941L1379.61 111.599H1387.6L1388.66 96.4242L1393.93 111.599H1409.39V110.856C1409.38 100.294 1405.29 90.1672 1398.02 82.6972C1390.76 75.2272 1380.9 71.024 1370.62 71.0097Z" fill="#2F2E41"/>
<path d="M1291.01 187.906V191.792H1243.84V187.906C1243.84 185.765 1245.61 184.02 1247.77 184.02H1255.69C1255.89 179.171 1259.08 175.122 1263.5 173.571V128.01C1261.42 126.716 1260.04 124.447 1260.04 121.844H1263.5H1271.36H1274.82C1274.82 124.447 1273.43 126.716 1271.36 128.01V173.567C1275.78 175.118 1278.96 179.167 1279.17 184.016H1287.08C1289.25 184.02 1291.01 185.765 1291.01 187.906ZM1318.53 152.93C1315.65 160.95 1307.98 166.736 1298.88 166.736C1289.78 166.736 1282.1 160.946 1279.22 152.93H1283.76L1297.04 118.141C1297.61 116.625 1300.14 116.625 1300.72 118.141L1314 152.93H1318.53ZM1309.79 152.93L1298.88 124.334L1287.96 152.934H1309.79V152.93ZM1235.98 114.115C1237.76 114.115 1239.21 112.937 1239.71 111.34C1241.01 110.851 1242.35 110.19 1243.71 109.506C1246.72 108.006 1250.13 106.301 1253.67 106.301C1257.06 106.301 1259.19 107.851 1260.4 109.172C1260.36 109.506 1260.3 109.841 1260.3 110.186C1260.3 114.076 1263.49 117.231 1267.43 117.231C1271.36 117.231 1274.55 114.076 1274.55 110.186C1274.55 109.841 1274.5 109.51 1274.45 109.176C1275.66 107.859 1277.79 106.301 1281.19 106.301C1284.72 106.301 1288.13 108.003 1291.14 109.502C1292.51 110.186 1293.84 110.847 1295.14 111.337C1295.65 112.934 1297.1 114.111 1298.88 114.111C1301.07 114.111 1302.85 112.355 1302.85 110.186C1302.85 108.018 1301.07 106.262 1298.88 106.262C1297.74 106.262 1296.73 106.744 1296.01 107.497C1295.04 107.093 1293.99 106.576 1292.91 106.036C1289.51 104.338 1285.66 102.415 1281.19 102.415C1277.27 102.415 1274.54 103.887 1272.69 105.473C1271.86 104.567 1270.8 103.891 1269.59 103.507C1271.06 102.73 1272.09 101.249 1272.09 99.4966C1272.09 96.9514 1267.43 91.01 1267.43 91.01C1267.43 91.01 1262.77 96.9514 1262.77 99.4966C1262.77 101.253 1263.8 102.73 1265.26 103.507C1264.05 103.887 1262.99 104.567 1262.16 105.473C1260.31 103.887 1257.58 102.415 1253.67 102.415C1249.19 102.415 1245.34 104.338 1241.94 106.036C1240.86 106.58 1239.82 107.097 1238.84 107.497C1238.12 106.747 1237.11 106.262 1235.98 106.262C1233.78 106.262 1232.01 108.018 1232.01 110.186C1232.01 112.355 1233.78 114.115 1235.98 114.115ZM1235.98 166.74C1226.88 166.74 1219.2 160.95 1216.32 152.934H1220.86L1234.14 118.144C1234.71 116.629 1237.24 116.629 1237.82 118.144L1251.1 152.934H1255.63C1252.75 160.95 1245.08 166.74 1235.98 166.74ZM1246.9 152.93L1235.98 124.334L1225.06 152.934H1246.9V152.93Z" fill="#F9AD42"/>
<path d="M981.167 630.359H515.413C513.978 630.357 512.602 629.786 511.588 628.772C510.573 627.757 510.002 626.381 510 624.946V192.413C510.002 190.978 510.573 189.602 511.588 188.588C512.602 187.573 513.978 187.002 515.413 187H981.167C982.603 187.002 983.978 187.573 984.993 188.588C986.008 189.602 986.579 190.978 986.581 192.413V624.945C986.579 626.38 986.008 627.756 984.994 628.771C983.979 629.786 982.603 630.357 981.167 630.358V630.359Z" fill="#F1F1F1"/>
<path d="M1029.59 672.04H563.833C562.397 672.038 561.022 671.467 560.007 670.453C558.992 669.438 558.421 668.062 558.419 666.627V234.094C558.421 232.659 558.992 231.283 560.007 230.269C561.022 229.254 562.397 228.683 563.833 228.681H1029.59C1031.02 228.683 1032.4 229.254 1033.41 230.269C1034.43 231.283 1035 232.659 1035 234.094V666.626C1035 668.061 1034.43 669.437 1033.41 670.452C1032.4 671.467 1031.02 672.038 1029.59 672.039V672.04Z" fill="white"/>
<path d="M1029.59 672.04H563.833C562.397 672.038 561.022 671.467 560.007 670.453C558.992 669.438 558.421 668.062 558.419 666.627V234.094C558.421 232.659 558.992 231.283 560.007 230.269C561.022 229.254 562.397 228.683 563.833 228.681H1029.59C1031.02 228.683 1032.4 229.254 1033.41 230.269C1034.43 231.283 1035 232.659 1035 234.094V666.626C1035 668.061 1034.43 669.437 1033.41 670.452C1032.4 671.467 1031.02 672.038 1029.59 672.039V672.04ZM563.833 230.842C562.972 230.844 562.148 231.187 561.54 231.795C560.932 232.403 560.589 233.227 560.587 234.087V666.626C560.589 667.486 560.932 668.31 561.54 668.918C562.148 669.527 562.972 669.869 563.833 669.871H1029.59C1030.45 669.869 1031.27 669.527 1031.88 668.919C1032.49 668.31 1032.83 667.486 1032.83 666.626V234.094C1032.83 233.234 1032.49 232.41 1031.88 231.802C1031.27 231.194 1030.45 230.851 1029.59 230.849L563.833 230.842Z" fill="#E6E6E6"/>
<path d="M685.577 401.813C684.604 401.815 683.671 402.203 682.983 402.892C682.295 403.581 681.909 404.514 681.909 405.488C681.909 406.461 682.295 407.395 682.983 408.084C683.671 408.773 684.604 409.161 685.577 409.163H887.242C888.215 409.161 889.148 408.773 889.836 408.084C890.524 407.395 890.91 406.461 890.91 405.488C890.91 404.514 890.524 403.581 889.836 402.892C889.148 402.203 888.215 401.815 887.242 401.813H685.577Z" fill="white"/>
<path d="M718.169 423.541C717.195 423.542 716.262 423.93 715.575 424.619C714.887 425.309 714.501 426.242 714.501 427.216C714.501 428.189 714.887 429.123 715.575 429.812C716.262 430.501 717.195 430.889 718.169 430.891H821.123C822.096 430.889 823.029 430.501 823.717 429.812C824.405 429.123 824.791 428.189 824.791 427.216C824.791 426.242 824.405 425.309 823.717 424.619C823.029 423.93 822.096 423.542 821.123 423.541H718.169Z" fill="white"/>
<path d="M608.171 472.428C607.198 472.43 606.265 472.818 605.577 473.507C604.89 474.196 604.503 475.13 604.503 476.103C604.503 477.077 604.89 478.011 605.577 478.7C606.265 479.389 607.198 479.777 608.171 479.779H986.294C987.267 479.777 988.2 479.389 988.888 478.7C989.576 478.011 989.962 477.077 989.962 476.103C989.962 475.13 989.576 474.196 988.888 473.507C988.2 472.818 987.267 472.43 986.294 472.428H608.171Z" fill="#E6E6E6"/>
<path d="M608.171 494.156C607.198 494.158 606.265 494.546 605.577 495.235C604.89 495.924 604.503 496.858 604.503 497.831C604.503 498.805 604.89 499.739 605.577 500.428C606.265 501.117 607.198 501.505 608.171 501.506H887.583C888.557 501.505 889.49 501.117 890.177 500.428C890.865 499.739 891.251 498.805 891.251 497.831C891.251 496.858 890.865 495.924 890.177 495.235C889.49 494.546 888.557 494.158 887.583 494.156H608.171Z" fill="#E6E6E6"/>
<path d="M608.171 515.884C607.198 515.886 606.265 516.274 605.577 516.963C604.89 517.652 604.503 518.586 604.503 519.559C604.503 520.533 604.89 521.466 605.577 522.156C606.265 522.845 607.198 523.233 608.171 523.234H986.294C987.267 523.233 988.2 522.845 988.888 522.156C989.576 521.466 989.962 520.533 989.962 519.559C989.962 518.586 989.576 517.652 988.888 516.963C988.2 516.274 987.267 515.886 986.294 515.884H608.171Z" fill="#E6E6E6"/>
<path d="M608.171 537.612C607.198 537.614 606.265 538.002 605.577 538.691C604.89 539.38 604.503 540.314 604.503 541.287C604.503 542.261 604.89 543.194 605.577 543.883C606.265 544.572 607.198 544.96 608.171 544.962H887.583C888.557 544.96 889.49 544.572 890.177 543.883C890.865 543.194 891.251 542.261 891.251 541.287C891.251 540.314 890.865 539.38 890.177 538.691C889.49 538.002 888.557 537.614 887.583 537.612H608.171Z" fill="#E6E6E6"/>
<path d="M951.587 587.921H840.775C839.34 587.919 837.964 587.348 836.949 586.334C835.935 585.319 835.364 583.943 835.362 582.507V564.753C835.364 563.318 835.935 561.942 836.949 560.927C837.964 559.912 839.34 559.341 840.775 559.34H951.587C953.022 559.341 954.398 559.912 955.413 560.927C956.428 561.942 956.999 563.318 957 564.753V582.507C956.999 583.943 956.428 585.319 955.413 586.334C954.398 587.348 953.022 587.919 951.587 587.921V587.921Z" fill="#557AA1"/>
<path d="M679.316 422.451C678.027 422.535 672.934 421.593 671.109 420.89C666.445 419.097 665.377 418.865 660.732 417.006C650.76 413.023 640.991 408.489 631.766 403.04C624.455 398.719 616.181 394.275 610.657 387.816C604.793 380.955 600.475 372.19 598.395 363.566C596.093 354.016 596.618 343.723 600.773 334.833C606.315 322.954 617.153 316.181 629.711 314.627C628.189 315.94 626.746 317.412 625.406 319.036C619.132 326.655 616.021 336.495 615.846 346.276C615.694 355.121 617.681 364.628 621.639 372.655C625.376 380.22 632.297 386.479 638.309 392.397C645.895 399.86 654.235 406.567 662.922 412.782C667.431 416.016 673.554 421.434 679.316 422.451Z" fill="#F9AD42"/>
<path d="M677.675 419.329C672.75 417.769 670.132 415.345 665.89 412.229C657.362 405.981 649.171 399.241 641.716 391.75C635.807 385.812 629.006 379.524 625.316 371.945C621.404 363.905 619.417 354.392 619.53 345.549C619.656 335.767 622.658 325.945 628.763 318.354C630.07 316.731 631.472 315.27 632.956 313.963C635.684 313.633 638.493 313.554 641.343 313.738C644.205 313.921 645.092 314.699 647.942 315.169C643.386 320.407 639.486 326.812 637.67 333.538C635.376 342.044 634.959 351.712 636.785 360.426C638.505 368.638 643.57 376.353 647.859 383.524C653.265 392.565 659.579 401.057 666.332 409.156C669.653 413.137 672.75 416.208 677.675 419.329Z" fill="#7CBD27"/>
<path d="M743.334 316.324C741.416 313.57 740.182 313.37 738.409 311.642C732.526 305.907 723.402 303.287 715.429 302.278C702.408 300.63 689.964 303.92 678.909 311.351C673.027 315.306 668.14 320.67 664.597 326.698C660.11 334.328 657.199 343.512 656.755 352.307C656.341 360.594 659.385 369.195 661.791 377.08C664.833 387.035 668.91 396.67 673.531 406.038C675.682 410.404 678.079 414.649 680.291 418.981C681.15 420.672 681.822 422.168 682.827 422.947L682.833 422.954C681.657 422.436 680.622 421.137 679.356 419.699C676.111 416.012 672.713 412.456 669.517 408.721C662.661 400.715 656.255 392.32 650.784 383.379C646.442 376.288 641.311 368.658 639.602 360.511C637.789 351.87 638.277 342.27 640.677 333.812C642.572 327.122 645.942 320.769 650.639 315.546C651.166 315.63 651.687 315.704 652.207 315.793C655.165 316.317 658.42 317.993 661.468 317.342C665.055 316.574 666.185 313.203 669.467 310.081C669.467 310.081 672.899 307.029 674.392 305.399C675.116 304.604 675.252 304.587 676.033 303.839C681.818 298.296 689.466 294.136 697.437 292.27C709.227 289.501 722.255 292.357 731.469 299.922C736.413 303.976 742.257 310.114 743.334 316.324Z" fill="#298FFB"/>
<path d="M705.333 305.388C696.552 305.684 689.258 308.685 687.284 309.49C684.654 310.569 682.159 311.931 679.824 313.513C673.991 317.466 669.147 322.834 665.641 328.869C661.2 336.509 659.769 344.324 659.346 353.138C658.951 361.444 661.99 370.069 664.395 377.976C667.434 387.958 671.502 397.622 676.109 407.019C678.466 411.87 677.908 411.725 680.957 417.769C681.814 419.466 682.426 422.042 683.426 422.825C685.882 420.89 686.764 419.887 687.523 417.769C692.832 403.03 703.285 394.119 714.438 383.396C726.218 372.072 737.174 360.055 742.059 344.294C742.446 343.035 742.799 341.764 743.107 340.482C743.749 337.782 744.202 334.966 744.437 332.106C744.805 327.73 744.661 323.248 743.903 318.896C740.992 316.617 729.617 304.57 705.333 305.388Z" fill="#26415E"/>
<path d="M778.784 316.109H792.615C795.587 316.109 798.12 316.557 800.215 317.452C802.31 318.347 803.912 319.672 805.022 321.427C806.15 323.163 806.714 325.312 806.714 327.872C806.714 329.823 806.356 331.542 805.64 333.028C804.923 334.514 803.912 335.768 802.605 336.788C801.298 337.791 799.74 338.569 797.932 339.124L795.891 340.118H783.457L783.403 334.774H792.722C794.333 334.774 795.676 334.487 796.75 333.914C797.825 333.342 798.63 332.563 799.167 331.578C799.722 330.575 800 329.448 800 328.194C800 326.834 799.731 325.652 799.194 324.649C798.675 323.629 797.869 322.85 796.777 322.313C795.685 321.758 794.298 321.48 792.615 321.48H785.525V355.211H778.784V316.109ZM801.101 355.211L791.916 337.647L798.979 337.621L808.298 354.862V355.211H801.101ZM819.712 326.153V355.211H813.213V326.153H819.712ZM812.783 318.526C812.783 317.542 813.105 316.727 813.75 316.082C814.412 315.42 815.325 315.089 816.489 315.089C817.635 315.089 818.539 315.42 819.202 316.082C819.864 316.727 820.195 317.542 820.195 318.526C820.195 319.493 819.864 320.299 819.202 320.943C818.539 321.588 817.635 321.91 816.489 321.91C815.325 321.91 814.412 321.588 813.75 320.943C813.105 320.299 812.783 319.493 812.783 318.526ZM845.413 326.153H851.294V354.405C851.294 357.019 850.739 359.239 849.629 361.065C848.519 362.892 846.97 364.279 844.983 365.228C842.996 366.195 840.695 366.678 838.081 366.678C836.971 366.678 835.736 366.517 834.375 366.195C833.032 365.872 831.725 365.353 830.454 364.637C829.201 363.939 828.153 363.017 827.312 361.871L830.347 358.058C831.385 359.293 832.531 360.197 833.784 360.77C835.037 361.343 836.353 361.629 837.732 361.629C839.218 361.629 840.48 361.352 841.518 360.797C842.575 360.26 843.389 359.463 843.962 358.407C844.535 357.35 844.822 356.061 844.822 354.539V332.733L845.413 326.153ZM825.674 341.004V340.44C825.674 338.238 825.942 336.233 826.479 334.425C827.017 332.599 827.786 331.032 828.789 329.725C829.792 328.4 831.009 327.389 832.441 326.69C833.874 325.974 835.494 325.616 837.302 325.616C839.182 325.616 840.784 325.956 842.109 326.637C843.452 327.317 844.571 328.293 845.466 329.564C846.361 330.817 847.06 332.321 847.561 334.076C848.08 335.812 848.465 337.746 848.716 339.876V341.676C848.483 343.753 848.089 345.65 847.534 347.369C846.979 349.088 846.245 350.574 845.332 351.827C844.419 353.08 843.291 354.047 841.948 354.727C840.623 355.408 839.057 355.748 837.248 355.748C835.476 355.748 833.874 355.381 832.441 354.647C831.027 353.913 829.81 352.883 828.789 351.559C827.786 350.234 827.017 348.676 826.479 346.886C825.942 345.077 825.674 343.117 825.674 341.004ZM832.146 340.44V341.004C832.146 342.329 832.271 343.565 832.522 344.71C832.79 345.856 833.193 346.868 833.73 347.745C834.285 348.604 834.984 349.285 835.825 349.786C836.685 350.269 837.696 350.511 838.86 350.511C840.382 350.511 841.626 350.189 842.593 349.544C843.577 348.9 844.329 348.031 844.849 346.939C845.386 345.829 845.762 344.594 845.977 343.233V338.372C845.869 337.316 845.645 336.331 845.305 335.418C844.983 334.505 844.544 333.709 843.989 333.028C843.434 332.33 842.736 331.793 841.894 331.417C841.053 331.023 840.059 330.826 838.914 330.826C837.75 330.826 836.738 331.077 835.879 331.578C835.019 332.079 834.312 332.769 833.757 333.646C833.22 334.523 832.817 335.544 832.549 336.707C832.28 337.871 832.146 339.115 832.146 340.44ZM864.399 313.961V355.211H857.954V313.961H864.399ZM863.271 339.608L861.177 339.581C861.195 337.576 861.472 335.723 862.009 334.022C862.564 332.321 863.334 330.844 864.319 329.591C865.321 328.32 866.521 327.344 867.917 326.663C869.314 325.965 870.863 325.616 872.563 325.616C873.996 325.616 875.285 325.813 876.431 326.207C877.594 326.601 878.597 327.236 879.438 328.114C880.28 328.973 880.915 330.101 881.345 331.497C881.793 332.876 882.017 334.559 882.017 336.546V355.211H875.518V336.493C875.518 335.096 875.312 333.986 874.9 333.163C874.506 332.339 873.924 331.748 873.154 331.39C872.384 331.014 871.444 330.826 870.334 330.826C869.171 330.826 868.141 331.059 867.246 331.524C866.369 331.99 865.635 332.625 865.044 333.431C864.453 334.237 864.005 335.168 863.701 336.224C863.415 337.28 863.271 338.408 863.271 339.608ZM901.89 326.153V330.88H885.508V326.153H901.89ZM890.234 319.037H896.706V347.181C896.706 348.076 896.832 348.766 897.082 349.249C897.351 349.714 897.718 350.028 898.184 350.189C898.649 350.35 899.195 350.431 899.822 350.431C900.269 350.431 900.699 350.404 901.111 350.35C901.523 350.296 901.854 350.243 902.104 350.189L902.131 355.13C901.594 355.291 900.968 355.435 900.251 355.56C899.553 355.685 898.747 355.748 897.834 355.748C896.348 355.748 895.032 355.488 893.887 354.969C892.741 354.432 891.846 353.564 891.201 352.364C890.557 351.165 890.234 349.571 890.234 347.584V319.037ZM923.186 347.342C923.186 346.698 923.025 346.116 922.703 345.597C922.38 345.059 921.763 344.576 920.85 344.146C919.954 343.717 918.629 343.323 916.875 342.965C915.335 342.625 913.921 342.222 912.632 341.756C911.361 341.273 910.268 340.691 909.355 340.011C908.442 339.33 907.735 338.525 907.234 337.594C906.733 336.663 906.482 335.588 906.482 334.371C906.482 333.189 906.741 332.07 907.261 331.014C907.78 329.958 908.523 329.027 909.49 328.221C910.456 327.415 911.629 326.78 913.008 326.314C914.404 325.849 915.962 325.616 917.681 325.616C920.115 325.616 922.201 326.028 923.938 326.851C925.692 327.657 927.035 328.758 927.966 330.155C928.897 331.533 929.363 333.091 929.363 334.828H922.891C922.891 334.058 922.694 333.342 922.3 332.679C921.924 331.999 921.351 331.453 920.581 331.041C919.811 330.611 918.844 330.396 917.681 330.396C916.571 330.396 915.649 330.575 914.914 330.934C914.198 331.274 913.661 331.721 913.303 332.276C912.963 332.831 912.793 333.44 912.793 334.102C912.793 334.586 912.882 335.025 913.061 335.418C913.258 335.794 913.581 336.143 914.028 336.466C914.476 336.77 915.085 337.057 915.854 337.325C916.642 337.594 917.627 337.853 918.809 338.104C921.029 338.569 922.935 339.169 924.529 339.903C926.14 340.619 927.375 341.55 928.235 342.696C929.094 343.824 929.524 345.256 929.524 346.993C929.524 348.282 929.246 349.464 928.691 350.538C928.154 351.594 927.366 352.516 926.328 353.304C925.29 354.074 924.045 354.674 922.595 355.103C921.163 355.533 919.552 355.748 917.761 355.748C915.129 355.748 912.9 355.282 911.074 354.351C909.248 353.403 907.86 352.194 906.912 350.726C905.981 349.24 905.515 347.7 905.515 346.107H911.772C911.844 347.306 912.175 348.264 912.766 348.98C913.375 349.679 914.127 350.189 915.022 350.511C915.935 350.816 916.875 350.968 917.842 350.968C919.005 350.968 919.981 350.816 920.769 350.511C921.557 350.189 922.157 349.759 922.568 349.222C922.98 348.667 923.186 348.04 923.186 347.342ZM786.894 410.211H780.422V378.36C780.422 376.194 780.825 374.377 781.631 372.909C782.454 371.423 783.627 370.304 785.149 369.552C786.671 368.782 788.47 368.397 790.547 368.397C791.191 368.397 791.827 368.442 792.454 368.531C793.08 368.603 793.689 368.719 794.28 368.88L794.119 373.875C793.761 373.786 793.367 373.723 792.937 373.687C792.525 373.652 792.078 373.634 791.594 373.634C790.609 373.634 789.759 373.822 789.043 374.198C788.345 374.556 787.808 375.084 787.432 375.782C787.074 376.48 786.894 377.34 786.894 378.36V410.211ZM792.883 381.153V385.88H775.964V381.153H792.883ZM796.348 396.004V395.387C796.348 393.292 796.652 391.349 797.261 389.559C797.869 387.751 798.747 386.184 799.893 384.859C801.056 383.517 802.471 382.478 804.136 381.744C805.819 380.992 807.716 380.616 809.829 380.616C811.96 380.616 813.857 380.992 815.522 381.744C817.205 382.478 818.629 383.517 819.792 384.859C820.956 386.184 821.842 387.751 822.451 389.559C823.06 391.349 823.364 393.292 823.364 395.387V396.004C823.364 398.099 823.06 400.042 822.451 401.832C821.842 403.622 820.956 405.189 819.792 406.532C818.629 407.857 817.214 408.895 815.549 409.647C813.884 410.381 811.995 410.748 809.883 410.748C807.752 410.748 805.845 410.381 804.163 409.647C802.497 408.895 801.083 407.857 799.919 406.532C798.756 405.189 797.869 403.622 797.261 401.832C796.652 400.042 796.348 398.099 796.348 396.004ZM802.82 395.387V396.004C802.82 397.311 802.954 398.547 803.223 399.71C803.491 400.874 803.912 401.895 804.485 402.772C805.058 403.649 805.792 404.338 806.687 404.84C807.582 405.341 808.647 405.592 809.883 405.592C811.082 405.592 812.121 405.341 812.998 404.84C813.893 404.338 814.627 403.649 815.2 402.772C815.773 401.895 816.194 400.874 816.462 399.71C816.749 398.547 816.892 397.311 816.892 396.004V395.387C816.892 394.098 816.749 392.88 816.462 391.734C816.194 390.571 815.764 389.541 815.173 388.646C814.6 387.751 813.866 387.052 812.971 386.551C812.094 386.032 811.046 385.772 809.829 385.772C808.612 385.772 807.555 386.032 806.66 386.551C805.783 387.052 805.058 387.751 804.485 388.646C803.912 389.541 803.491 390.571 803.223 391.734C802.954 392.88 802.82 394.098 802.82 395.387ZM835.288 386.685V410.211H828.816V381.153H834.993L835.288 386.685ZM844.177 380.965L844.123 386.981C843.73 386.909 843.3 386.856 842.834 386.82C842.387 386.784 841.939 386.766 841.492 386.766C840.382 386.766 839.406 386.927 838.564 387.249C837.723 387.554 837.016 388.001 836.443 388.592C835.888 389.165 835.458 389.863 835.154 390.687C834.849 391.511 834.67 392.433 834.617 393.453L833.14 393.56C833.14 391.734 833.319 390.042 833.677 388.485C834.035 386.927 834.572 385.558 835.288 384.376C836.022 383.194 836.935 382.272 838.027 381.61C839.137 380.947 840.417 380.616 841.868 380.616C842.261 380.616 842.682 380.652 843.13 380.724C843.595 380.795 843.944 380.876 844.177 380.965ZM874.712 387.437V392.782H853.953V387.437H874.712ZM855.618 371.109V410.211H848.877V371.109H855.618ZM879.895 371.109V410.211H873.181V371.109H879.895ZM900.09 410.748C897.942 410.748 895.999 410.399 894.263 409.701C892.544 408.984 891.076 407.991 889.858 406.72C888.659 405.448 887.737 403.954 887.092 402.235C886.448 400.516 886.125 398.663 886.125 396.676V395.601C886.125 393.328 886.457 391.269 887.119 389.425C887.782 387.581 888.704 386.005 889.885 384.698C891.067 383.373 892.463 382.362 894.075 381.663C895.686 380.965 897.432 380.616 899.311 380.616C901.388 380.616 903.206 380.965 904.763 381.663C906.321 382.362 907.61 383.346 908.63 384.618C909.669 385.871 910.439 387.366 910.94 389.102C911.459 390.839 911.719 392.755 911.719 394.85V397.616H889.268V392.97H905.327V392.459C905.291 391.296 905.059 390.204 904.629 389.183C904.217 388.163 903.581 387.339 902.722 386.712C901.863 386.086 900.717 385.772 899.285 385.772C898.21 385.772 897.253 386.005 896.411 386.471C895.588 386.918 894.898 387.572 894.343 388.431C893.788 389.29 893.359 390.329 893.054 391.546C892.768 392.746 892.624 394.098 892.624 395.601V396.676C892.624 397.947 892.795 399.129 893.135 400.221C893.493 401.295 894.012 402.235 894.692 403.04C895.373 403.846 896.196 404.482 897.163 404.947C898.13 405.395 899.231 405.619 900.466 405.619C902.024 405.619 903.411 405.305 904.629 404.679C905.846 404.052 906.903 403.166 907.798 402.02L911.208 405.323C910.582 406.236 909.767 407.114 908.765 407.955C907.762 408.779 906.536 409.45 905.085 409.969C903.653 410.488 901.988 410.748 900.09 410.748ZM933.149 404.383V390.526C933.149 389.487 932.961 388.592 932.585 387.84C932.209 387.088 931.636 386.506 930.867 386.095C930.115 385.683 929.166 385.477 928.02 385.477C926.964 385.477 926.051 385.656 925.281 386.014C924.511 386.372 923.911 386.856 923.481 387.464C923.052 388.073 922.837 388.762 922.837 389.532H916.392C916.392 388.386 916.669 387.276 917.224 386.202C917.779 385.128 918.585 384.17 919.641 383.329C920.697 382.487 921.96 381.825 923.428 381.341C924.896 380.858 926.543 380.616 928.369 380.616C930.553 380.616 932.487 380.983 934.17 381.717C935.871 382.451 937.205 383.561 938.171 385.047C939.156 386.515 939.648 388.359 939.648 390.58V403.497C939.648 404.822 939.738 406.012 939.917 407.069C940.114 408.107 940.391 409.011 940.749 409.781V410.211H934.116C933.812 409.513 933.57 408.626 933.391 407.552C933.23 406.46 933.149 405.404 933.149 404.383ZM934.089 392.54L934.143 396.541H929.497C928.297 396.541 927.241 396.658 926.328 396.891C925.415 397.105 924.654 397.428 924.045 397.857C923.437 398.287 922.98 398.806 922.676 399.415C922.371 400.024 922.219 400.713 922.219 401.483C922.219 402.253 922.398 402.96 922.756 403.604C923.114 404.231 923.634 404.723 924.314 405.081C925.012 405.44 925.854 405.619 926.838 405.619C928.163 405.619 929.318 405.35 930.303 404.813C931.305 404.258 932.093 403.587 932.666 402.799C933.239 401.993 933.543 401.232 933.579 400.516L935.674 403.39C935.459 404.124 935.092 404.911 934.573 405.753C934.053 406.594 933.373 407.4 932.532 408.17C931.708 408.922 930.714 409.539 929.551 410.023C928.405 410.506 927.08 410.748 925.576 410.748C923.678 410.748 921.986 410.372 920.5 409.62C919.014 408.85 917.851 407.821 917.009 406.532C916.168 405.225 915.747 403.748 915.747 402.101C915.747 400.561 916.033 399.2 916.606 398.018C917.197 396.819 918.057 395.816 919.185 395.011C920.33 394.205 921.727 393.596 923.374 393.184C925.021 392.755 926.901 392.54 929.014 392.54H934.089ZM953.345 368.961V410.211H946.846V368.961H953.345ZM973.755 381.153V385.88H957.373V381.153H973.755ZM962.1 374.037H968.572V402.181C968.572 403.076 968.697 403.766 968.948 404.249C969.216 404.714 969.583 405.028 970.049 405.189C970.514 405.35 971.06 405.431 971.687 405.431C972.135 405.431 972.564 405.404 972.976 405.35C973.388 405.296 973.719 405.243 973.97 405.189L973.997 410.13C973.459 410.291 972.833 410.435 972.117 410.56C971.418 410.685 970.613 410.748 969.7 410.748C968.214 410.748 966.898 410.488 965.752 409.969C964.606 409.432 963.711 408.564 963.066 407.364C962.422 406.165 962.1 404.571 962.1 402.584V374.037ZM985.142 368.961V410.211H978.696V368.961H985.142ZM984.014 394.608L981.919 394.581C981.937 392.576 982.214 390.723 982.751 389.022C983.306 387.321 984.076 385.844 985.061 384.591C986.064 383.32 987.263 382.344 988.66 381.663C990.056 380.965 991.605 380.616 993.306 380.616C994.738 380.616 996.027 380.813 997.173 381.207C998.337 381.601 999.339 382.236 1000.18 383.114C1001.02 383.973 1001.66 385.101 1002.09 386.497C1002.53 387.876 1002.76 389.559 1002.76 391.546V410.211H996.26V391.493C996.26 390.096 996.054 388.986 995.642 388.163C995.248 387.339 994.666 386.748 993.896 386.39C993.127 386.014 992.187 385.826 991.077 385.826C989.913 385.826 988.883 386.059 987.988 386.524C987.111 386.99 986.377 387.625 985.786 388.431C985.195 389.237 984.748 390.168 984.443 391.224C984.157 392.28 984.014 393.408 984.014 394.608Z" fill="#555555"/>
</svg>
