<svg width="165" height="163" viewBox="0 0 165 163" fill="none" xmlns="http://www.w3.org/2000/svg">
<path fill-rule="evenodd" clip-rule="evenodd" d="M15.4014 24.7765C15.3357 22.0158 17.5204 19.7246 20.2811 19.6589L144.734 16.6967C147.495 16.6309 149.786 18.8156 149.852 21.5763L152.741 142.974C152.807 145.734 150.622 148.026 147.862 148.091L60.5448 150.17C63.163 147.871 66.4187 145.486 69.8255 143.259L137.691 111.15C146.117 106.503 147.407 98.5309 132.437 105.558C106.014 117.96 98.9022 116.838 98.7889 112.076C98.7517 110.512 105.194 105.3 113.022 98.9675C126.514 88.0527 144.122 73.8082 139.765 69.1718C138.18 67.4846 125.668 76.627 113.875 85.2445C103.285 92.982 93.2753 100.296 92.2745 98.9676C91.7673 98.2944 96.8989 93.154 103.606 86.435C114.251 75.7719 128.866 61.1326 131.211 54.0618C134.269 44.8409 128.339 48.1617 123.978 51.4419L84.8907 87.6308C80.8335 89.3156 79.6833 86.2608 91.6036 68.4123C108.418 43.2359 108.327 39.4263 106.257 38.5227C104.187 37.619 97.0887 40.6468 81.2527 63.8941C77.7806 68.9911 74.768 72.703 72.1478 75.3928C72.5453 78.4776 73.5156 82.5168 74.3208 84.9319L88.7644 114.07C90.3787 117.917 88.6627 121.022 85.4615 114.614C79.8114 103.304 77.0846 101.806 75.7584 103.427C75.3228 103.959 76.1088 107.475 77.0639 111.748C78.71 119.111 80.8582 128.721 78.12 129.172C77.1236 129.337 75.3322 122.847 73.6436 116.731C72.1275 111.239 70.6943 106.047 69.994 106.243C69.6391 106.341 69.9978 109.485 70.4666 113.594C71.2107 120.115 72.2321 129.067 71.1194 132.141C69.6682 136.149 68.5453 133.424 67.9463 131.13L64.4124 108.213C63.4855 106.553 62.2675 107.307 61.5032 116.657C60.4251 129.846 59.3641 131.142 58.4144 130.906C57.4646 130.67 55.8645 127.737 56.7543 115.477C57.52 104.928 54.9284 103.651 53.5359 102.964C53.31 102.853 53.1156 102.757 52.9723 102.64C52.5446 102.29 51.0462 103.975 49.2374 106.01C46.7043 108.859 43.5625 112.393 41.9002 111.98C39.6207 111.414 40.514 108.32 41.2841 107.147C44.0795 103.115 47.8993 94.5871 50.5795 88.6034C51.9547 85.5332 53.0298 83.1329 53.5126 82.3534C54.2002 81.2434 54.0811 75.4749 53.9677 69.9788C53.9596 69.5883 53.9516 69.1993 53.9439 68.8134C53.3861 60.4798 52.5612 50.8986 49.1537 49.4112C44.1853 47.2424 41.4107 54.0425 41.145 57.2252C40.1805 74.0833 37.0139 107.448 36.34 113.563C35.9872 116.764 26.3291 125.26 17.9674 132.581L15.4014 24.7765Z" fill="#F9AD42" fill-opacity="0.6"/>
<path fill-rule="evenodd" clip-rule="evenodd" d="M11.9749 21.3681C11.8728 18.6086 14.0271 16.2888 16.7866 16.1867L141.19 11.5844C143.949 11.4823 146.269 13.6366 146.371 16.3961L150.861 137.745C150.963 140.504 148.808 142.824 146.049 142.926L58.767 146.155C61.3547 143.822 64.5787 141.395 67.9558 139.123L135.393 106.123C143.756 101.364 144.941 93.3763 130.065 100.6C103.808 113.35 96.6818 112.321 96.5057 107.561C96.4479 105.998 102.821 100.702 110.565 94.2661C123.912 83.1744 141.33 68.6991 136.913 64.1205C135.306 62.4543 122.915 71.7609 111.236 80.533C100.75 88.4094 90.8374 95.855 89.8191 94.5396C89.3031 93.8731 94.3665 88.6656 100.985 81.8588C111.488 71.0562 125.909 56.2256 128.16 49.1245C131.097 39.8641 125.211 43.2627 120.894 46.6002L82.2865 83.3011C78.2519 85.0392 77.0615 81.9999 88.7455 63.9958C105.227 38.6 105.086 34.7919 103.004 33.9156C100.922 33.0394 93.8642 36.1604 78.336 59.6144C74.9314 64.7568 71.9679 68.508 69.3835 71.2321C69.8215 74.3115 70.845 78.3375 71.682 80.7418L86.5083 109.687C88.1732 113.512 86.4983 116.64 83.213 110.275C77.4143 99.0399 74.668 97.5781 73.3632 99.2161C72.9347 99.7541 73.767 103.26 74.7783 107.519C76.5212 114.86 78.7959 124.441 76.064 124.928C75.0698 125.106 73.193 118.641 71.424 112.547C69.8356 107.075 68.3341 101.903 67.6364 102.108C67.2829 102.211 67.683 105.35 68.2059 109.452C69.0358 115.963 70.1752 124.901 69.103 127.989C67.7048 132.015 66.5461 129.306 65.917 127.02L62.0813 104.152C61.1325 102.504 59.9246 103.273 59.2836 112.633C58.3795 125.835 57.3357 127.145 56.3829 126.922C55.43 126.698 53.7915 123.787 54.5196 111.515C55.1461 100.957 52.538 99.7144 51.1366 99.0467C50.9092 98.9384 50.7136 98.8452 50.5687 98.7298C50.1364 98.3854 48.6604 100.09 46.8786 102.149C44.3832 105.031 41.2883 108.606 39.6206 108.215C37.3339 107.679 38.1864 104.574 38.9409 103.39C41.683 99.322 45.3901 90.7444 47.9911 84.7259C49.3257 81.6378 50.3691 79.2235 50.8416 78.4378C51.5145 77.3188 51.3194 71.5524 51.1336 66.0582C51.1204 65.6679 51.1072 65.279 51.0944 64.8932C50.4268 56.5678 49.4757 46.9982 46.0489 45.5558C41.0523 43.4527 38.3676 50.2888 38.1439 53.4748C37.4017 70.3441 34.6751 103.747 34.0818 109.871C33.7713 113.076 24.226 121.699 15.9615 129.13L11.9749 21.3681Z" fill="#375C83"/>
</svg>
