<svg width="71" height="71" viewBox="0 0 71 71" fill="none" xmlns="http://www.w3.org/2000/svg">
<path d="M70.8811 43.2938L70.8917 43.2902L59.2348 17.8559L62.0618 16.4489L61.0039 14.3307L58.2479 15.7034L57.8752 14.8905C57.6027 14.2964 56.9004 14.0357 56.3064 14.308C56.0487 14.4262 55.8421 14.6328 55.7239 14.8905L55.3914 15.617C53.3857 14.6854 51.2011 14.2021 48.9896 14.2006H39.0497V11.8339H41.4163V9.46728H39.3822L40.233 6.06286C40.8862 3.44875 39.2967 0.800031 36.6826 0.146689C34.0685 -0.506506 31.4198 1.08299 30.7664 3.6971C30.5724 4.47366 30.5724 5.28616 30.7664 6.06271L31.6172 9.46714H29.5831V11.8338H31.9498V14.2004H22.0157C19.802 14.2022 17.6153 14.6868 15.6081 15.6204L15.2755 14.8939C15.0032 14.2998 14.3008 14.0391 13.7067 14.3114C13.4491 14.4296 13.2424 14.6362 13.1243 14.8939L12.7515 15.7068L9.99555 14.3282L8.93766 16.4487L11.7646 17.8616L0.107698 43.2902C0.0358113 43.4448 -0.000871765 43.6133 1.57272e-05 43.7837C0.00519277 48.3562 3.71077 52.0618 8.28328 52.0669H20.1165C24.689 52.0618 28.3946 48.3562 28.3998 43.7837C28.3968 43.6137 28.3564 43.4464 28.2814 43.2938L16.5926 17.7636C18.2917 16.9749 20.1425 16.5666 22.0157 16.5672H31.9498V59.8603L27.9099 63.9002H23.6665C20.4005 63.904 17.7537 66.5508 17.7499 69.8168C17.7499 70.4703 18.2797 71.0001 18.9332 71.0001H52.0663C52.7197 71.0001 53.2496 70.4703 53.2496 69.8168C53.2457 66.5508 50.5989 63.904 47.333 63.9002H43.0896L39.0497 59.8603V16.5672H48.9896C50.8628 16.5666 52.7137 16.9749 54.4128 17.7636L42.7073 43.2902C42.6355 43.4448 42.5988 43.6133 42.5997 43.7837C42.6048 48.3562 46.3104 52.0618 50.8829 52.0669H62.7162C67.2887 52.0618 70.9943 48.3562 70.9994 43.7837C70.9966 43.6137 70.9562 43.4464 70.8811 43.2938ZM20.1165 49.7003H8.28328C5.47259 49.6972 3.05077 47.7201 2.485 44.967H25.9148C25.3492 47.7201 22.9272 49.6972 20.1165 49.7003ZM25.3728 42.6003H3.02696L13.897 18.8854C14.0955 18.9386 14.3043 18.9386 14.5028 18.8854L25.3728 42.6003ZM33.52 3.33294C34.4415 2.23954 36.075 2.10036 37.1684 3.02187C37.2806 3.11654 37.3848 3.22067 37.4794 3.33294C37.9581 3.94176 38.1271 4.73813 37.9374 5.48895L36.9422 9.46728H34.0572L33.0621 5.48895C32.8723 4.73813 33.0415 3.94176 33.52 3.33294ZM34.3164 14.2006V11.8339H36.683V14.2006H34.3164ZM36.683 16.5672V59.1669H34.3164V16.5672H36.683V16.5672ZM47.333 66.2668C48.837 66.2686 50.1772 67.2161 50.6806 68.6335H20.3189C20.8222 67.2161 22.1625 66.2686 23.6665 66.2668H47.333ZM39.7431 63.9002H31.2563L33.623 61.5335H37.3765L39.7431 63.9002ZM56.4942 18.8889C56.6896 18.9577 56.904 18.9488 57.093 18.8641L67.9725 42.6003H45.6266L56.4942 18.8889ZM62.7162 49.7003H50.8829C48.0722 49.6972 45.6504 47.7201 45.0846 44.967H68.5144C67.9488 47.7201 65.5269 49.6972 62.7162 49.7003Z" fill="#26415E"/>
</svg>
