<svg width="74" height="74" viewBox="0 0 74 74" fill="none" xmlns="http://www.w3.org/2000/svg">
<path d="M37 0C16.5831 0 0 16.5831 0 37C0 57.4169 16.5831 74 37 74C57.4169 74 74 57.4169 74 37C74 16.5831 57.4169 0 37 0ZM37 70.7904C18.3663 70.7904 3.20964 55.6337 3.20964 37C3.20964 18.3663 18.3663 3.20964 37 3.20964C55.6337 3.20964 70.7904 18.3663 70.7904 37C70.7904 55.6337 55.6337 70.7904 37 70.7904Z" fill="#26415E"/>
<path d="M56.2579 28.9759H45.0242V17.7421C45.0242 16.8506 44.311 16.1373 43.4194 16.1373H30.5808C29.6893 16.1373 28.976 16.8506 28.976 17.7421V28.9759H17.7423C16.8507 28.9759 16.1375 29.6891 16.1375 30.5807V43.4193C16.1375 44.3108 16.8507 45.0241 17.7423 45.0241H28.976V56.2578C28.976 57.1494 29.6893 57.8626 30.5808 57.8626H43.4194C44.311 57.8626 45.0242 57.1494 45.0242 56.2578V45.0241H56.2579C57.1495 45.0241 57.8628 44.3108 57.8628 43.4193V30.5807C57.7736 29.6891 57.0604 28.9759 56.2579 28.9759ZM54.7423 41.8144H54.6531H43.4194C42.5278 41.8144 41.8146 42.5277 41.8146 43.4193V54.653H32.1856V43.4193C32.1856 42.5277 31.4724 41.8144 30.5808 41.8144H19.3471V32.1855H30.5808C31.4724 32.1855 32.1856 31.4723 32.1856 30.5807V19.347H41.9037V30.5807C41.9037 31.4723 42.617 32.1855 43.5085 32.1855H54.7423V41.8144Z" fill="#26415E"/>
</svg>
